SplineFontDB: 2.0
FontName: FreeMonoBold
FullName: Free Monospaced Bold
FamilyName: FreeMono
Weight: Bold
Copyright: Copyleft 2002, 2003, 2005, 2008 Free Software Foundation.
Version: $Revision: 1.57 $
ItalicAngle: 0
UnderlinePosition: -100
UnderlineWidth: 50
Ascent: 800
Descent: 200
LayerCount: 2
Layer: 0 0 "Back" 
Layer: 1 0 "Fore" 
NeedsXUIDChange: 1
FSType: 0
OS2Version: 0
OS2_WeightWidthSlopeOnly: 0
OS2_UseTypoMetrics: 1
CreationTime: 1203284335
ModificationTime: 1210595015
PfmFamily: 49
TTFWeight: 700
TTFWidth: 5
LineGap: 90
VLineGap: 0
Panose: 2 7 6 9 2 2 5 2 4 4
OS2TypoAscent: 0
OS2TypoAOffset: 1
OS2TypoDescent: 0
OS2TypoDOffset: 1
OS2TypoLinegap: 0
OS2WinAscent: 0
OS2WinAOffset: 1
OS2WinDescent: -145
OS2WinDOffset: 1
HheadAscent: 0
HheadAOffset: 1
HheadDescent: 145
HheadDOffset: 1
OS2SubXSize: 650
OS2SubYSize: 699
OS2SubXOff: 47
OS2SubYOff: 140
OS2SupXSize: 650
OS2SupYSize: 699
OS2SupXOff: -163
OS2SupYOff: 479
OS2StrikeYSize: 49
OS2StrikeYPos: 258
OS2Vendor: 'GNU '
Lookup: 260 0 0 "'mark' Mark Positioning in Latin lookup 0"  {"'mark' Mark Positioning in Latin lookup 0 subtable"  } ['mark' ('latn' <'dflt' > ) ]
Lookup: 260 0 0 "'mark' Mark Positioning in Latin lookup 1"  {"'mark' Mark Positioning in Latin lookup 1 subtable"  } ['mark' ('latn' <'dflt' > ) ]
Lookup: 258 0 0 "'kern' Horizontal Kerning in Latin lookup 2"  {"'kern' Horizontal Kerning in Latin lookup 2 subtable"  } ['kern' ('latn' <'dflt' > ) ]
Lookup: 258 0 0 "'kern' Horizontal Kerning lookup 3"  {"'kern' Horizontal Kerning lookup 3 subtable"  } ['kern' ('DFLT' <'dflt' > ) ]
DEI: 0
ShortTable: maxp 16
  0
  0
  0
  0
  0
  0
  0
  2
  1
  0
  9
  0
  256
  0
  0
  0
EndShort
TtTable: prep
PUSHW_1
 511
SCANCTRL
SVTCA[y-axis]
MPPEM
PUSHB_1
 8
LT
IF
PUSHB_2
 1
 1
INSTCTRL
EIF
PUSHB_2
 70
 6
CALL
IF
POP
PUSHB_1
 16
EIF
MPPEM
PUSHB_1
 20
GT
IF
POP
PUSHB_1
 128
EIF
SCVTCI
PUSHB_1
 6
CALL
NOT
IF
SVTCA[y-axis]
PUSHB_1
 4
DUP
RCVT
PUSHB_1
 3
CALL
WCVTP
PUSHB_1
 5
DUP
RCVT
PUSHB_3
 4
 75
 2
CALL
PUSHB_1

StartChar: exclam
Encoding: 33 33 1
Width: 600
Flags: MW
LayerCount: 2
Fore
SplineSet
379 525 m 0
 350 228 l 2
 347 197 329 179 301 179 c 0
 273 179 254 198 251 228 c 2
 222 525 l 1
 221 537 220 551 220 558 c 0
 220 604 254 638 301 638 c 0
 347 638 381 604 381 558 c 0
 381 552 380 538 379 525 c 0
309 -15 m 2
 292 -15 l 2
 255 -15 225 15 225 51 c 0
 225 87 255 117 292 117 c 2
 309 117 l 2
 346 117 375 88 375 51 c 0
 375 14 346 -15 309 -15 c 2
EndSplineSet
Validated: 3073
EndChar

StartChar: quotedbl
Encoding: 34 34 2
Width: 600
Flags: MW
LayerCount: 2
Fore
SplineSet
136 602 m 1
 264 602 l 1
 233 348 l 1
 229 322 221 312 201 312 c 0
 182 312 173 322 170 347 c 0
 136 602 l 1
336 602 m 1
 464 602 l 1
 433 348 l 1
 429 322 421 312 401 312 c 0
 382 312 373 322 370 347 c 0
 336 602 l 1
EndSplineSet
Validated: 3073
EndChar

StartChar: numbersign
Encoding: 35 35 3
Width: 600
Flags: MW
LayerCount: 2
Fore
SplineSet
288 625 m 0
 288 604 285 584 276 444 c 1
 347 444 l 1
 359 612 l 2
 360 648 370 675 410 675 c 0
 435 675 460 652 460 630 c 0
 460 627 l 2
 447 444 l 1
 472 444 l 2
 507 444 538 436 538 394 c 0
 538 353 509 344 472 344 c 2
 440 344 l 1
 432 238 l 1
 451 238 l 2
 489 238 518 229 518 188 c 0
 518 149 489 139 452 139 c 2
 425 139 l 1
 414 -29 l 2
 411 -67 393 -92 362 -92 c 0
 336 -92 313 -69 313 -44 c 2
 313 -44 326 138 326 139 c 1
 254 139 l 1
 242 -29 l 1
 242 -70 225 -92 192 -92 c 0
 163 -92 142 -70 142 -40 c 0
 142 -36 143 -29 143 -22 c 0
 154 139 l 1
 128 139 l 2
 91 139 62 149 62 189 c 0
 62 229 89 238 128 238 c 2
 161 238 l 1
 168 344 l 1
 149 344 l 2
 113 344 82 352 82 394 c 0
 82 438 114 444 149 444 c 2
 175 444 l 1
 187 612 l 2
 188 648 199 675 238 675 c 0
 266 675 288 652 288 625 c 0
340 344 m 1
 269 344 l 1
 261 238 l 1
 333 238 l 1
 340 344 l 1
EndSplineSet
Validated: 3073
EndChar

StartChar: dollar
Encoding: 36 36 4
Width: 600
Flags: MW
LayerCount: 2
Fore
SplineSet
302 684 m 0
 342 684 351 656 351 618 c 2
 351 592 l 1
 371 588 376 588 395 582 c 2
 409 577 l 2
 410 576 414 575 418 574 c 1
 429 579 437 581 446 581 c 0
 486 581 496 552 496 515 c 2
 496 483 l 2
 496 445 487 417 446 417 c 0
 419 417 400 432 394 459 c 0
 391 478 351 495 310 495 c 0
 250 495 211 470 211 433 c 0
 211 406 235 387 286 377 c 2
 351 363 l 2
 397 353 517 330 517 199 c 0
 517 112 455 47 351 27 c 1
 351 -56 l 2
 351 -94 343 -123 302 -123 c 0
 259 -123 252 -93 252 -56 c 2
 252 27 l 1
 210 36 205 38 173 52 c 1
 157 38 148 34 134 34 c 0
 91 34 83 66 83 101 c 2
 83 162 l 2
 83 198 91 229 133 229 c 0
 176 229 181 191 184 180 c 0
 192 149 245 124 300 124 c 0
 365 124 413 157 413 200 c 0
 413 235 389 254 333 265 c 2
 259 280 l 2
 160 300 107 354 107 435 c 0
 107 513 166 577 252 592 c 1
 252 618 l 2
 252 656 261 684 302 684 c 0
EndSplineSet
Validated: 3073
EndChar

StartChar: percent
Encoding: 37 37 5
Width: 600
Flags: MW
LayerCount: 2
Fore
SplineSet
228 617 m 0
 307 617 368 555 368 476 c 0
 368 401 305 338 229 338 c 0
 152 338 89 401 89 478 c 0
 89 554 152 617 228 617 c 0
228 552 m 0
 188 552 154 518 154 478 c 0
 154 437 188 403 228 403 c 0
 269 403 303 437 303 477 c 0
 303 519 270 552 228 552 c 0
491 331 m 0
 129 213 l 2
 122 211 113 209 109 209 c 0
 94 209 80 224 80 241 c 0
 80 257 88 265 110 272 c 2
 472 390 l 2
 484 394 486 394 492 394 c 0
 507 394 521 379 521 362 c 0
 521 346 513 338 491 331 c 0
368 264 m 0
 447 264 508 202 508 123 c 0
 508 48 445 -15 368 -15 c 0
 292 -15 229 48 229 125 c 0
 229 201 292 264 368 264 c 0
368 199 m 0
 328 199 294 165 294 125 c 0
 294 84 328 50 369 50 c 0
 409 50 443 84 443 124 c 0
 443 166 410 199 368 199 c 0
EndSplineSet
Validated: 3073
EndChar

StartChar: ampersand
Encoding: 38 38 6
Width: 600
Flags: MW
LayerCount: 2
Fore
SplineSet
508 50 m 0
 508 10 479 0 442 0 c 2
 381 0 l 1
 370 15 l 1
 340 -6 310 -14 257 -14 c 0
 147 -14 75 48 75 144 c 0
 75 211 109 267 171 303 c 1
 144 349 137 368 137 399 c 0
 137 480 208 550 289 550 c 0
 313 550 333 545 359 533 c 1
 371 537 380 540 387 540 c 0
 412 540 435 515 435 490 c 0
 435 467 426 456 394 438 c 2
 353 416 l 1
 324 442 310 450 290 450 c 0
 261 450 237 428 237 400 c 0
 237 389 246 370 265 343 c 2
 365 198 l 1
 388 280 l 1
 441 280 l 2
 480 280 507 270 507 229 c 0
 507 203 488 182 464 180 c 1
 453 139 446 121 434 100 c 1
 442 100 l 2
 477 100 508 92 508 50 c 0
312 100 m 1
 228 220 l 1
 193 204 175 177 175 144 c 0
 175 105 202 86 257 86 c 0
 282 86 293 89 312 100 c 1
EndSplineSet
Validated: 3073
EndChar

StartChar: quotesingle
Encoding: 39 39 7
Width: 600
Flags: MW
LayerCount: 2
Fore
SplineSet
236 602 m 1
 364 602 l 1
 333 348 l 1
 329 322 321 312 301 312 c 0
 282 312 273 322 270 347 c 0
 236 602 l 1
EndSplineSet
Validated: 3073
EndChar

StartChar: parenleft
Encoding: 40 40 8
Width: 600
Flags: MW
LayerCount: 2
Fore
SplineSet
264 243 m 0
 264 386 370 632 437 632 c 0
 466 632 488 610 488 583 c 0
 488 534 375 444 375 240 c 0
 375 138 407 42 476 -70 c 0
 486 -86 488 -92 488 -104 c 0
 488 -131 466 -153 437 -153 c 0
 372 -153 264 80 264 243 c 0
EndSplineSet
Validated: 3073
EndChar

StartChar: parenright
Encoding: 41 41 9
Width: 600
Flags: MW
LayerCount: 2
Fore
SplineSet
117 -104 m 0
 117 -55 230 35 230 239 c 0
 230 341 198 437 129 549 c 0
 119 565 117 571 117 583 c 0
 117 610 139 632 168 632 c 0
 233 632 341 399 341 236 c 0
 341 95 237 -153 168 -153 c 0
 139 -153 117 -131 117 -104 c 0
EndSplineSet
Validated: 3073
EndChar

StartChar: asterisk
Encoding: 42 42 10
Width: 600
Flags: MW
LayerCount: 2
Fore
SplineSet
300 622 m 0
 341 622 350 593 350 556 c 2
 350 467 l 1
 436 495 l 2
 457 501 460 502 469 502 c 0
 494 502 517 478 517 452 c 0
 517 426 503 411 467 400 c 2
 381 372 l 1
 433 301 l 2
 448 280 452 271 452 258 c 0
 452 231 429 208 402 208 c 0
 381 208 373 214 352 242 c 2
 300 314 l 1
 248 242 l 2
 228 214 218 208 198 208 c 0
 171 208 148 231 148 258 c 0
 148 271 151 280 167 301 c 0
 219 372 l 1
 133 400 l 2
 96 411 83 425 83 452 c 0
 83 479 105 502 130 502 c 0
 140 502 143 501 164 495 c 2
 250 467 l 1
 250 556 l 2
 250 593 259 622 300 622 c 0
EndSplineSet
Validated: 3073
EndChar

StartChar: plus
Encoding: 43 43 11
Width: 600
Flags: MW
LayerCount: 2
Fore
SplineSet
558 280 m 0
 558 239 529 230 491 230 c 2
 350 230 l 1
 350 66 l 2
 350 31 342 0 300 0 c 0
 260 0 250 29 250 66 c 2
 250 230 l 1
 108 230 l 2
 71 230 42 239 42 280 c 0
 42 321 69 330 108 330 c 2
 250 330 l 1
 250 494 l 2
 250 531 260 560 300 560 c 0
 341 560 350 533 350 494 c 2
 350 330 l 1
 491 330 l 2
 529 330 558 321 558 280 c 0
EndSplineSet
Validated: 3073
EndChar

StartChar: comma
Encoding: 44 44 12
Width: 600
Flags: MW
LayerCount: 2
Fore
SplineSet
219 134 m 1
 351 134 l 1
 210 -134 l 2
 202 -150 190 -158 178 -158 c 0
 161 -158 147 -145 147 -130 c 0
 147 -124 147 -122 150 -111 c 2
 219 134 l 1
EndSplineSet
Validated: 3073
EndChar

StartChar: hyphen
Encoding: 45 45 13
Width: 600
Flags: MW
LayerCount: 2
Fore
SplineSet
558 279 m 0
 558 239 529 229 492 229 c 2
 108 229 l 2
 71 229 42 238 42 279 c 0
 42 320 71 329 108 329 c 2
 492 329 l 2
 532 329 558 320 558 279 c 0
EndSplineSet
Validated: 3073
EndChar

StartChar: period
Encoding: 46 46 14
Width: 600
Flags: MW
LayerCount: 2
Fore
SplineSet
309 -15 m 2
 291 -15 l 2
 255 -15 225 15 225 51 c 0
 225 87 255 117 291 117 c 2
 309 117 l 2
 346 117 375 88 375 51 c 0
 375 14 346 -15 309 -15 c 2
EndSplineSet
Validated: 3073
EndChar

StartChar: slash
Encoding: 47 47 15
Width: 600
Flags: MW
LayerCount: 2
Fore
SplineSet
505 610 m 0
 185 -69 l 1
 170 -103 157 -113 133 -113 c 0
 107 -113 83 -90 83 -65 c 0
 83 -55 86 -45 95 -27 c 2
 416 651 l 1
 431 685 444 695 467 695 c 0
 494 695 517 672 517 647 c 0
 517 636 515 630 505 610 c 0
EndSplineSet
Validated: 3073
EndChar

StartChar: zero
Encoding: 48 48 16
Width: 600
Flags: MW
LayerCount: 2
Fore
SplineSet
300 638 m 0
 450 638 517 502 517 359 c 2
 517 264 l 2
 517 120 449 -15 300 -15 c 0
 150 -15 83 121 83 264 c 2
 83 359 l 2
 83 503 151 638 300 638 c 0
183 366 m 2
 183 257 l 2
 183 153 229 85 300 85 c 0
 371 85 417 153 417 257 c 2
 417 366 l 2
 417 470 371 538 300 538 c 0
 229 538 183 470 183 366 c 2
EndSplineSet
Validated: 3073
EndChar

StartChar: one
Encoding: 49 49 17
Width: 600
Flags: MW
LayerCount: 2
Fore
SplineSet
83 50 m 0
 83 91 110 100 149 100 c 2
 250 100 l 1
 250 509 l 1
 163 486 l 2
 144 481 141 480 131 480 c 0
 105 480 85 503 85 532 c 0
 85 561 98 573 138 583 c 2
 350 638 l 1
 350 100 l 1
 451 100 l 2
 486 100 517 92 517 50 c 0
 517 12 490 0 451 0 c 2
 149 0 l 2
 93 0 83 29 83 50 c 0
EndSplineSet
Validated: 3073
EndChar

StartChar: two
Encoding: 50 50 18
Width: 600
Flags: MW
LayerCount: 2
Fore
SplineSet
503 444 m 0
 503 362 485 340 207 100 c 1
 408 100 l 1
 411 136 427 154 458 154 c 0
 499 154 508 125 508 88 c 2
 508 0 l 1
 54 0 l 1
 54 105 l 1
 214 237 403 382 403 448 c 0
 403 499 353 538 288 538 c 0
 153 538 195 422 124 422 c 0
 97 422 74 444 74 470 c 0
 74 540 160 638 290 638 c 0
 412 638 503 555 503 444 c 0
EndSplineSet
Validated: 3073
EndChar

StartChar: three
Encoding: 51 51 19
Width: 600
Flags: MW
LayerCount: 2
Fore
SplineSet
268 85 m 0
 363 85 429 109 429 183 c 0
 429 240 376 282 276 287 c 0
 243 289 224 306 224 333 c 0
 224 362 246 383 276 383 c 2
 316 383 l 2
 365 383 407 420 407 462 c 0
 407 509 364 538 295 538 c 0
 179 538 196 477 144 477 c 0
 117 477 95 500 95 527 c 0
 95 585 194 638 301 638 c 0
 425 638 507 560 507 464 c 0
 507 409 481 372 416 333 c 1
 492 296 529 246 529 182 c 0
 529 96 477 -15 271 -15 c 0
 148 -15 66 19 66 70 c 0
 66 98 88 120 116 120 c 0
 149 120 142 85 268 85 c 0
EndSplineSet
Validated: 3073
EndChar

StartChar: four
Encoding: 52 52 20
Width: 600
Flags: MW
LayerCount: 2
Fore
SplineSet
243 50 m 0
 243 91 272 100 309 100 c 2
 347 100 l 1
 347 138 l 1
 75 138 l 1
 75 221 l 1
 316 622 l 1
 447 622 l 1
 447 238 l 1
 486 238 508 220 508 188 c 0
 508 156 487 139 447 138 c 1
 447 100 l 1
 486 100 508 82 508 50 c 0
 508 10 477 0 441 0 c 2
 309 0 l 2
 253 0 243 29 243 50 c 0
347 238 m 1
 347 480 l 1
 197 238 l 1
 347 238 l 1
EndSplineSet
Validated: 3073
EndChar

StartChar: five
Encoding: 53 53 21
Width: 600
Flags: MW
LayerCount: 2
Fore
SplineSet
487 572 m 0
 487 532 458 522 421 522 c 2
 219 522 l 1
 219 407 l 1
 255 418 289 424 318 424 c 0
 439 424 529 330 529 202 c 0
 529 118 491 -15 278 -15 c 0
 158 -15 66 28 66 84 c 0
 66 111 89 133 116 133 c 0
 158 133 146 85 277 85 c 0
 381 85 429 122 429 201 c 0
 429 275 384 324 317 324 c 0
 246 324 194 282 169 282 c 0
 140 282 119 306 119 338 c 2
 119 622 l 1
 421 622 l 2
 459 622 487 613 487 572 c 0
EndSplineSet
Validated: 3073
EndChar

StartChar: six
Encoding: 54 54 22
Width: 600
Flags: MW
LayerCount: 2
Fore
SplineSet
331 -15 m 0
 150 -15 105 158 105 285 c 0
 105 374 131 450 182 514 c 0
 249 596 331 638 423 638 c 0
 493 638 540 612 540 573 c 0
 540 545 517 522 489 522 c 0
 476 522 446 535 429 535 c 0
 323 535 231 447 208 324 c 1
 256 375 294 394 345 394 c 0
 450 394 535 302 535 189 c 0
 535 70 462 -15 331 -15 c 0
218 209 m 1
 233 122 269 85 334 85 c 0
 397 85 435 125 435 190 c 0
 435 248 392 294 338 294 c 0
 295 294 245 258 218 209 c 1
EndSplineSet
Validated: 3073
EndChar

StartChar: seven
Encoding: 55 55 23
Width: 600
Flags: MW
LayerCount: 2
Fore
SplineSet
125 468 m 0
 84 468 75 497 75 534 c 2
 75 622 l 1
 508 622 l 1
 508 523 l 1
 349 48 l 1
 336 12 323 -1 297 -1 c 0
 270 -1 246 21 246 47 c 0
 246 56 247 64 253 81 c 0
 403 522 l 1
 175 522 l 1
 172 486 156 468 125 468 c 0
EndSplineSet
Validated: 3073
EndChar

StartChar: eight
Encoding: 56 56 24
Width: 600
Flags: MW
LayerCount: 2
Fore
SplineSet
420 319 m 1
 484 279 517 227 517 165 c 0
 517 58 429 -15 299 -15 c 0
 171 -15 83 58 83 165 c 0
 83 227 116 279 180 319 c 1
 120 359 92 402 92 455 c 0
 92 557 184 638 300 638 c 0
 415 638 508 557 508 457 c 0
 508 402 480 359 420 319 c 1
300 538 m 0
 236 538 192 502 192 451 c 0
 192 400 237 364 300 364 c 0
 363 364 408 400 408 450 c 0
 408 502 364 538 300 538 c 0
300 263 m 0
 236 263 183 223 183 173 c 0
 183 122 232 85 300 85 c 0
 368 85 417 122 417 172 c 0
 417 223 366 263 300 263 c 0
EndSplineSet
Validated: 3073
EndChar

StartChar: nine
Encoding: 57 57 25
Width: 600
Flags: MW
LayerCount: 2
Fore
SplineSet
315 638 m 0
 496 638 541 466 541 338 c 0
 541 250 515 173 464 109 c 0
 397 27 315 -15 223 -15 c 0
 153 -15 106 11 106 50 c 0
 106 78 129 101 157 101 c 0
 170 101 200 88 217 88 c 0
 323 88 415 176 438 299 c 1
 390 248 352 229 302 229 c 0
 196 229 111 321 111 434 c 0
 111 553 184 638 315 638 c 0
428 414 m 1
 413 501 377 538 312 538 c 0
 249 538 211 498 211 433 c 0
 211 375 254 329 308 329 c 0
 351 329 401 365 428 414 c 1
EndSplineSet
Validated: 3073
EndChar

StartChar: colon
Encoding: 58 58 26
Width: 600
Flags: MW
LayerCount: 2
Fore
SplineSet
309 -15 m 2
 291 -15 l 2
 255 -15 225 15 225 51 c 0
 225 87 255 117 291 117 c 2
 309 117 l 2
 346 117 375 88 375 51 c 0
 375 14 346 -15 309 -15 c 2
309 304 m 2
 291 304 l 2
 255 304 225 334 225 370 c 0
 225 407 255 437 291 437 c 2
 309 437 l 2
 346 437 375 408 375 370 c 0
 375 333 346 304 309 304 c 2
EndSplineSet
Validated: 3073
EndChar

StartChar: semicolon
Encoding: 59 59 27
Width: 600
Flags: MW
LayerCount: 2
Fore
SplineSet
219 134 m 1
 351 134 l 1
 210 -134 l 2
 202 -150 190 -158 178 -158 c 0
 161 -158 147 -145 147 -130 c 0
 147 -124 147 -122 150 -111 c 2
 219 134 l 1
276 437 m 0
 322 437 351 411 351 370 c 0
 351 330 321 304 276 304 c 0
 231 304 201 331 201 371 c 0
 201 410 231 437 276 437 c 0
EndSplineSet
Validated: 3073
EndChar

StartChar: less
Encoding: 60 60 28
Width: 600
Flags: MW
LayerCount: 2
Fore
SplineSet
502 501 m 0
 527 501 544 473 544 455 c 0
 544 436 535 424 512 412 c 2
 251 279 l 1
 512 143 l 2
 535 131 544 119 544 100 c 0
 544 82 527 54 502 54 c 0
 494 54 483 57 472 63 c 2
 42 280 l 1
 472 492 l 2
 484 498 494 501 502 501 c 0
EndSplineSet
Validated: 3073
EndChar

StartChar: equal
Encoding: 61 61 29
Width: 600
Flags: MW
LayerCount: 2
Fore
SplineSet
42 372 m 0
 42 413 69 422 108 422 c 2
 492 422 l 2
 527 422 558 414 558 372 c 0
 558 332 529 322 492 322 c 2
 108 322 l 2
 70 322 42 334 42 372 c 0
42 188 m 0
 42 229 69 238 108 238 c 2
 492 238 l 2
 527 238 558 230 558 188 c 0
 558 148 529 138 492 138 c 2
 108 138 l 2
 70 138 42 150 42 188 c 0
EndSplineSet
Validated: 3073
EndChar

StartChar: greater
Encoding: 62 62 30
Width: 600
Flags: MW
LayerCount: 2
Fore
SplineSet
98 53 m 0
 73 53 56 81 56 100 c 0
 56 118 65 130 88 142 c 2
 349 275 l 1
 88 412 l 2
 65 423 56 435 56 453 c 0
 56 472 73 500 98 500 c 0
 106 500 117 497 128 491 c 2
 558 274 l 1
 128 62 l 2
 116 56 105 53 98 53 c 0
EndSplineSet
Validated: 3073
EndChar

StartChar: question
Encoding: 63 63 31
Width: 600
Flags: MW
LayerCount: 2
Fore
SplineSet
154 394 m 0
 114 394 104 424 104 460 c 2
 104 539 l 1
 200 585 244 598 308 598 c 0
 432 598 517 521 517 409 c 0
 517 328 474 281 353 228 c 1
 349 192 332 174 303 174 c 0
 263 174 253 203 253 240 c 2
 253 296 l 1
 381 345 417 371 417 414 c 0
 417 464 373 498 309 498 c 0
 271 498 237 490 204 474 c 1
 204 460 l 2
 204 424 195 394 154 394 c 0
311 -15 m 2
 294 -15 l 2
 257 -15 227 15 227 51 c 0
 227 87 257 117 294 117 c 2
 311 117 l 2
 348 117 377 88 377 51 c 0
 377 14 348 -15 311 -15 c 2
EndSplineSet
Validated: 3073
EndChar

StartChar: at
Encoding: 64 64 32
Width: 600
Flags: MW
LayerCount: 2
Fore
SplineSet
302 -152 m 0
 121 -152 76 39 76 154 c 2
 76 323 l 2
 76 495 171 620 301 620 c 0
 409 620 486 540 486 429 c 2
 486 148 l 1
 502 141 509 130 509 113 c 0
 509 85 491 72 454 72 c 2
 407 72 l 1
 407 75 l 1
 392 73 383 72 374 72 c 0
 289 72 218 143 218 226 c 0
 218 319 295 389 407 397 c 1
 407 429 l 2
 407 495 364 541 302 541 c 0
 218 541 155 445 155 317 c 2
 155 161 l 2
 155 70 185 -74 305 -74 c 0
 406 -74 408 -25 439 -25 c 0
 461 -25 479 -43 479 -66 c 0
 479 -113 397 -152 302 -152 c 0
407 155 m 1
 407 316 l 1
 341 310 297 274 297 225 c 0
 297 184 333 153 381 153 c 0
 388 153 393 153 407 155 c 1
EndSplineSet
Validated: 3073
EndChar

StartChar: A
Encoding: 65 65 33
Width: 600
Flags: MW
LayerCount: 2
Fore
SplineSet
350 50 m 0
 350 91 377 100 416 100 c 2
 439 100 l 1
 416 158 l 1
 178 158 l 1
 155 100 l 1
 178 100 l 2
 213 100 244 92 244 50 c 0
 244 10 215 0 178 0 c 2
 45 0 l 2
 1 0 -21 17 -21 50 c 0
 -21 93 9 100 46 100 c 1
 201 483 l 1
 138 483 l 2
 102 483 71 491 71 533 c 0
 71 576 101 583 138 583 c 2
 354 583 l 1
 553 100 l 1
 589 100 621 92 621 50 c 0
 621 10 592 0 555 0 c 2
 416 0 l 2
 360 0 350 29 350 50 c 0
375 258 m 1
 297 450 l 1
 218 258 l 1
 375 258 l 1
EndSplineSet
Validated: 3073
EndChar

StartChar: B
Encoding: 66 66 34
Width: 600
Flags: MW
LayerCount: 2
Fore
SplineSet
13 50 m 0
 13 91 42 100 79 100 c 2
 94 100 l 1
 94 483 l 1
 79 483 l 2
 42 483 13 492 13 533 c 0
 13 576 44 583 79 583 c 2
 332 583 l 2
 445 583 528 513 528 418 c 0
 528 372 509 339 465 305 c 1
 537 269 571 223 571 160 c 0
 571 64 492 0 374 0 c 2
 79 0 l 2
 23 0 13 29 13 50 c 0
194 342 m 1
 307 342 l 2
 379 342 428 373 428 419 c 0
 428 459 390 483 327 483 c 2
 194 483 l 1
 194 342 l 1
471 154 m 0
 471 207 414 242 329 242 c 2
 194 242 l 1
 194 100 l 1
 369 100 l 2
 437 100 471 118 471 154 c 0
EndSplineSet
Validated: 3073
EndChar

StartChar: C
Encoding: 67 67 35
Width: 600
Flags: MW
LayerCount: 2
Fore
SplineSet
330 86 m 0
 468 86 471 159 514 159 c 0
 541 159 564 136 564 109 c 0
 564 57 469 -14 327 -14 c 0
 157 -14 33 97 33 249 c 2
 33 315 l 2
 33 475 151 597 305 597 c 0
 357 597 392 589 447 563 c 2
 457 559 l 1
 470 577 482 583 499 583 c 0
 540 583 549 556 549 517 c 2
 549 433 l 2
 549 396 540 367 499 367 c 0
 459 367 454 398 450 420 c 0
 436 485 340 497 309 497 c 0
 207 497 133 420 133 315 c 2
 133 251 l 2
 133 151 210 86 330 86 c 0
EndSplineSet
Validated: 3073
EndChar

StartChar: D
Encoding: 68 68 36
Width: 600
Flags: MW
LayerCount: 2
Fore
SplineSet
80 0 m 2
 44 0 13 11 13 50 c 0
 13 82 36 100 74 100 c 1
 74 483 l 1
 35 483 13 501 13 533 c 0
 13 577 45 583 80 583 c 2
 292 583 l 2
 438 583 550 462 550 305 c 2
 550 258 l 2
 550 103 446 0 284 0 c 2
 80 0 l 2
450 307 m 2
 450 404 387 483 284 483 c 2
 174 483 l 1
 174 100 l 1
 285 100 l 2
 425 100 450 195 450 261 c 2
 450 307 l 2
EndSplineSet
Validated: 3073
EndChar

StartChar: E
Encoding: 69 69 37
Width: 600
Flags: MW
LayerCount: 2
Fore
SplineSet
500 219 m 0
 542 219 550 188 550 152 c 2
 550 0 l 1
 79 0 l 2
 23 0 13 29 13 50 c 0
 13 92 44 100 79 100 c 2
 94 100 l 1
 94 483 l 1
 79 483 l 2
 42 483 13 492 13 533 c 0
 13 574 40 583 79 583 c 2
 528 583 l 1
 528 433 l 2
 528 395 519 366 478 366 c 0
 436 366 428 397 428 433 c 2
 428 483 l 1
 194 483 l 1
 194 342 l 1
 279 342 l 1
 279 349 l 2
 279 385 287 416 328 416 c 0
 366 416 378 388 378 349 c 2
 378 236 l 2
 378 200 369 170 329 170 c 0
 288 170 279 199 279 236 c 2
 279 243 l 1
 194 243 l 1
 194 100 l 1
 450 100 l 1
 450 152 l 2
 450 192 460 219 500 219 c 0
EndSplineSet
Validated: 3073
EndChar

StartChar: F
Encoding: 70 70 38
Width: 600
Flags: MW
LayerCount: 2
Fore
SplineSet
329 169 m 0
 288 169 279 199 279 236 c 2
 279 243 l 1
 194 243 l 1
 194 100 l 1
 294 100 l 2
 333 100 360 90 360 50 c 0
 360 12 333 0 294 0 c 2
 79 0 l 2
 23 0 13 29 13 50 c 0
 13 91 42 100 79 100 c 2
 94 100 l 1
 94 483 l 1
 79 483 l 2
 42 483 13 492 13 533 c 0
 13 574 40 583 79 583 c 2
 550 583 l 1
 550 432 l 2
 550 397 542 366 500 366 c 0
 460 366 450 396 450 432 c 2
 450 483 l 1
 194 483 l 1
 194 342 l 1
 279 342 l 1
 279 349 l 2
 279 386 288 415 329 415 c 0
 368 415 378 388 378 349 c 2
 378 236 l 2
 378 200 370 169 329 169 c 0
EndSplineSet
Validated: 3073
EndChar

StartChar: G
Encoding: 71 71 39
Width: 600
Flags: MW
LayerCount: 2
Fore
SplineSet
525 280 m 2
 564 280 592 270 592 230 c 0
 592 205 578 188 550 180 c 1
 550 48 l 1
 461 1 409 -14 331 -14 c 0
 93 -14 33 134 33 246 c 2
 33 317 l 2
 33 469 147 597 317 597 c 0
 371 597 420 586 462 565 c 1
 474 589 484 597 503 597 c 0
 541 597 550 571 550 531 c 2
 550 453 l 2
 550 415 542 387 500 387 c 0
 460 387 456 422 451 440 c 0
 441 475 391 497 318 497 c 0
 206 497 133 425 133 317 c 2
 133 253 l 2
 133 165 171 86 325 86 c 0
 373 86 412 94 450 111 c 1
 450 180 l 1
 350 180 l 2
 311 180 284 192 284 230 c 0
 284 271 311 280 350 280 c 2
 525 280 l 2
EndSplineSet
Validated: 3073
EndChar

StartChar: H
Encoding: 72 72 40
Width: 600
Flags: MW
LayerCount: 2
Fore
SplineSet
328 50 m 0
 328 91 357 100 394 100 c 2
 409 100 l 1
 409 241 l 1
 195 241 l 1
 195 100 l 1
 210 100 l 2
 245 100 276 92 276 50 c 0
 276 10 247 0 210 0 c 2
 89 0 l 2
 52 0 23 10 23 50 c 0
 23 91 50 100 89 100 c 2
 95 100 l 1
 95 483 l 1
 62 486 43 504 43 533 c 0
 43 574 70 583 109 583 c 2
 210 583 l 2
 245 583 276 575 276 533 c 0
 276 492 247 483 210 483 c 2
 195 483 l 1
 195 341 l 1
 409 341 l 1
 409 483 l 1
 394 483 l 2
 357 483 328 492 328 533 c 0
 328 574 355 583 394 583 c 2
 495 583 l 2
 534 583 561 573 561 533 c 0
 561 504 542 486 509 483 c 1
 509 100 l 1
 515 100 l 2
 550 100 581 92 581 50 c 0
 581 10 552 0 515 0 c 2
 394 0 l 2
 356 0 328 12 328 50 c 0
EndSplineSet
Validated: 3073
EndChar

StartChar: I
Encoding: 73 73 41
Width: 600
Flags: MW
LayerCount: 2
Fore
SplineSet
451 100 m 2
 489 100 517 91 517 50 c 0
 517 17 495 0 451 0 c 2
 149 0 l 2
 93 0 83 30 83 50 c 0
 83 91 110 100 149 100 c 2
 250 100 l 1
 250 483 l 1
 149 483 l 2
 112 483 83 492 83 533 c 0
 83 574 110 583 149 583 c 2
 451 583 l 2
 489 583 517 574 517 533 c 0
 517 492 488 483 451 483 c 2
 350 483 l 1
 350 100 l 1
 451 100 l 2
EndSplineSet
Validated: 3073
EndChar

StartChar: J
Encoding: 74 74 42
Width: 600
Flags: MW
LayerCount: 2
Fore
SplineSet
613 533 m 0
 613 492 584 483 547 483 c 2
 490 483 l 1
 490 187 l 2
 490 65 392 -14 269 -14 c 0
 212 -14 145 6 54 51 c 1
 54 213 l 2
 54 251 63 280 104 280 c 0
 147 280 154 250 154 213 c 2
 154 117 l 1
 203 95 237 86 271 86 c 0
 307 86 343 100 366 122 c 0
 387 143 390 152 390 198 c 2
 390 483 l 1
 271 483 l 2
 234 483 205 492 205 533 c 0
 205 574 232 583 271 583 c 2
 547 583 l 2
 582 583 613 575 613 533 c 0
EndSplineSet
Validated: 3073
EndChar

StartChar: K
Encoding: 75 75 43
Width: 600
Flags: MW
LayerCount: 2
Fore
SplineSet
295 533 m 0
 295 492 266 483 229 483 c 2
 194 483 l 1
 194 334 l 1
 372 487 l 1
 351 495 341 509 341 532 c 0
 341 569 368 583 407 583 c 2
 507 583 l 2
 546 583 573 573 573 533 c 0
 573 500 552 483 511 483 c 1
 335 330 l 1
 396 298 458 215 504 100 c 1
 536 100 l 2
 571 100 602 92 602 50 c 0
 602 12 575 0 536 0 c 2
 426 0 l 1
 379 143 315 240 254 259 c 1
 194 208 l 1
 194 100 l 1
 229 100 l 2
 264 100 295 92 295 50 c 0
 295 12 268 0 229 0 c 2
 79 0 l 2
 23 0 13 29 13 50 c 0
 13 91 42 100 79 100 c 2
 94 100 l 1
 94 483 l 1
 79 483 l 2
 42 483 13 492 13 533 c 0
 13 574 40 583 79 583 c 2
 229 583 l 2
 264 583 295 575 295 533 c 0
EndSplineSet
Validated: 3073
EndChar

StartChar: L
Encoding: 76 76 44
Width: 600
Flags: MW
LayerCount: 2
Fore
SplineSet
521 259 m 0
 562 259 571 231 571 192 c 2
 571 0 l 1
 99 0 l 2
 43 0 33 29 33 50 c 0
 33 91 60 100 99 100 c 2
 156 100 l 1
 156 483 l 1
 99 483 l 2
 62 483 33 492 33 533 c 0
 33 574 60 583 99 583 c 2
 313 583 l 2
 348 583 379 575 379 533 c 0
 379 492 350 483 313 483 c 2
 256 483 l 1
 256 100 l 1
 471 100 l 1
 471 192 l 2
 471 231 481 259 521 259 c 0
EndSplineSet
Validated: 3073
EndChar

StartChar: M
Encoding: 77 77 45
Width: 600
Flags: MW
LayerCount: 2
Fore
SplineSet
361 50 m 0
 361 91 388 100 427 100 c 2
 462 100 l 1
 462 389 l 1
 351 138 l 1
 260 138 l 1
 142 389 l 1
 142 100 l 1
 177 100 l 2
 217 100 243 91 243 50 c 0
 243 12 216 0 177 0 c 2
 48 0 l 2
 9 0 -19 12 -19 50 c 0
 -19 82 3 100 42 100 c 1
 42 483 l 1
 9 486 -10 504 -10 534 c 0
 -10 555 2 584 52 584 c 0
 87 584 128 583 165 583 c 1
 303 286 l 1
 438 583 l 1
 548 583 l 2
 587 583 614 573 614 533 c 0
 614 504 595 486 562 483 c 1
 562 100 l 1
 601 100 623 82 623 50 c 0
 623 12 596 0 557 0 c 2
 427 0 l 2
 371 0 361 29 361 50 c 0
EndSplineSet
Validated: 3073
EndChar

StartChar: N
Encoding: 78 78 46
Width: 600
Flags: MW
LayerCount: 2
Fore
SplineSet
526 583 m 2
 561 583 592 575 592 533 c 0
 592 501 571 483 531 483 c 1
 531 0 l 1
 432 0 l 1
 173 394 l 1
 173 100 l 1
 208 100 l 2
 246 100 274 92 274 50 c 0
 274 12 247 0 208 0 c 2
 79 0 l 2
 40 0 12 12 12 50 c 0
 12 82 34 100 73 100 c 1
 73 483 l 1
 58 483 l 2
 21 483 -8 492 -8 533 c 0
 -8 574 19 583 58 583 c 2
 173 583 l 1
 431 191 l 1
 431 483 l 1
 396 483 l 2
 359 483 330 492 330 533 c 0
 330 574 357 583 396 583 c 2
 526 583 l 2
EndSplineSet
Validated: 3073
EndChar

StartChar: O
Encoding: 79 79 47
Width: 600
Flags: MW
LayerCount: 2
Fore
SplineSet
300 597 m 0
 359 597 579 550 579 287 c 0
 579 123 452 -14 300 -14 c 0
 146 -14 21 123 21 292 c 0
 21 460 146 597 300 597 c 0
300 497 m 0
 202 497 121 404 121 292 c 0
 121 179 202 86 300 86 c 0
 397 86 479 179 479 289 c 0
 479 404 399 497 300 497 c 0
EndSplineSet
Validated: 3073
EndChar

StartChar: P
Encoding: 80 80 48
Width: 600
Flags: MW
LayerCount: 2
Fore
SplineSet
529 394 m 0
 529 312 482 200 292 200 c 2
 194 200 l 1
 194 100 l 1
 293 100 l 2
 328 100 359 92 359 50 c 0
 359 12 332 0 293 0 c 2
 79 0 l 2
 23 0 13 29 13 50 c 0
 13 91 42 100 79 100 c 2
 94 100 l 1
 94 483 l 1
 79 483 l 2
 42 483 13 492 13 533 c 0
 13 574 40 583 79 583 c 2
 312 583 l 2
 439 583 529 505 529 394 c 0
194 483 m 1
 194 300 l 1
 312 300 l 2
 381 300 423 335 423 391 c 0
 423 448 381 483 312 483 c 2
 194 483 l 1
EndSplineSet
Validated: 3073
EndChar

StartChar: Q
Encoding: 81 81 49
Width: 600
Flags: MW
LayerCount: 2
Fore
SplineSet
579 294 m 0
 579 139 468 -7 289 -7 c 0
 287 -7 279 -7 271 -6 c 1
 267 -30 l 1
 291 -26 303 -25 318 -25 c 0
 372 -25 416 -45 443 -45 c 0
 482 -45 495 -13 526 -13 c 0
 555 -13 577 -35 577 -63 c 0
 577 -107 497 -145 444 -145 c 0
 390 -145 374 -117 319 -117 c 0
 257 -117 194 -143 165 -143 c 0
 139 -143 117 -119 117 -91 c 0
 117 -76 121 -68 137 -53 c 2
 199 7 l 1
 148 36 21 105 21 292 c 0
 21 460 146 597 300 597 c 0
 453 597 579 460 579 294 c 0
300 497 m 0
 202 497 121 404 121 291 c 0
 121 179 202 85 300 85 c 0
 397 85 479 178 479 288 c 0
 479 404 399 497 300 497 c 0
EndSplineSet
Validated: 3073
EndChar

StartChar: R
Encoding: 82 82 50
Width: 600
Flags: MW
LayerCount: 2
Fore
SplineSet
619 50 m 0
 619 12 592 0 553 0 c 2
 474 0 l 1
 424 97 332 207 290 222 c 1
 194 222 l 1
 194 100 l 1
 229 100 l 2
 268 100 295 90 295 50 c 0
 295 12 268 0 229 0 c 2
 79 0 l 2
 23 0 13 29 13 50 c 0
 13 91 42 100 79 100 c 2
 94 100 l 1
 94 483 l 1
 79 483 l 2
 42 483 13 492 13 533 c 0
 13 574 40 583 79 583 c 2
 302 583 l 2
 432 583 522 510 522 405 c 0
 522 342 487 294 414 254 c 1
 461 213 498 167 540 100 c 1
 553 100 l 2
 592 100 619 90 619 50 c 0
194 322 m 1
 270 322 l 2
 354 322 416 358 416 408 c 0
 416 451 370 483 306 483 c 2
 194 483 l 1
 194 322 l 1
EndSplineSet
Validated: 3073
EndChar

StartChar: S
Encoding: 83 83 51
Width: 600
Flags: MW
LayerCount: 2
Fore
SplineSet
468 597 m 0
 512 597 517 566 517 531 c 2
 517 443 l 2
 517 407 509 376 468 376 c 0
 424 376 422 411 418 430 c 0
 409 470 361 497 299 497 c 0
 236 497 186 464 186 421 c 0
 186 322 384 361 479 285 c 0
 519 253 538 212 538 160 c 0
 538 56 446 -14 309 -14 c 0
 255 -14 202 -1 153 25 c 1
 136 5 129 1 113 1 c 0
 78 1 62 22 62 67 c 2
 62 133 l 2
 62 173 72 199 112 199 c 0
 156 199 160 161 163 151 c 0
 173 115 236 86 302 86 c 0
 376 86 434 119 434 162 c 0
 434 250 262 226 164 281 c 0
 113 310 82 363 82 420 c 0
 82 521 175 597 299 597 c 0
 350 597 394 586 429 564 c 1
 439 589 448 597 468 597 c 0
EndSplineSet
Validated: 3073
EndChar

StartChar: T
Encoding: 84 84 52
Width: 600
Flags: MW
LayerCount: 2
Fore
SplineSet
481 50 m 0
 481 12 454 0 415 0 c 2
 184 0 l 2
 128 0 118 30 118 50 c 0
 118 91 145 100 184 100 c 2
 249 100 l 1
 249 483 l 1
 142 483 l 1
 142 390 l 2
 142 355 134 324 92 324 c 0
 52 324 42 353 42 390 c 2
 42 583 l 1
 558 583 l 1
 558 390 l 2
 558 352 550 324 508 324 c 0
 467 324 458 355 458 390 c 2
 458 483 l 1
 349 483 l 1
 349 100 l 1
 415 100 l 2
 450 100 481 92 481 50 c 0
EndSplineSet
Validated: 3073
EndChar

StartChar: U
Encoding: 85 85 53
Width: 600
Flags: MW
LayerCount: 2
Fore
SplineSet
529 205 m 2
 529 72 419 -14 300 -14 c 0
 180 -14 71 74 71 205 c 2
 71 483 l 1
 31 484 10 501 10 533 c 0
 10 574 37 583 76 583 c 2
 206 583 l 2
 242 583 272 577 272 533 c 0
 272 492 243 483 206 483 c 2
 171 483 l 1
 171 196 l 2
 171 135 229 86 300 86 c 0
 371 86 429 135 429 196 c 2
 429 483 l 1
 394 483 l 2
 359 483 328 491 328 533 c 0
 328 574 355 583 394 583 c 2
 524 583 l 2
 564 583 590 574 590 533 c 0
 590 501 569 483 529 483 c 1
 529 205 l 2
EndSplineSet
Validated: 3073
EndChar

StartChar: V
Encoding: 86 86 54
Width: 600
Flags: MW
LayerCount: 2
Fore
SplineSet
244 533 m 0
 244 492 215 483 178 483 c 2
 159 483 l 1
 303 144 l 1
 447 483 l 1
 423 483 l 2
 385 483 357 492 357 533 c 0
 357 574 384 583 423 583 c 2
 555 583 l 2
 590 583 621 575 621 533 c 0
 621 491 589 483 553 483 c 1
 348 0 l 1
 249 0 l 1
 47 483 l 1
 11 483 -21 491 -21 533 c 0
 -21 574 6 583 45 583 c 2
 178 583 l 2
 216 583 244 574 244 533 c 0
EndSplineSet
Validated: 3073
EndChar

StartChar: W
Encoding: 87 87 55
Width: 600
Flags: MW
LayerCount: 2
Fore
SplineSet
544 583 m 2
 583 583 610 573 610 533 c 0
 610 506 593 488 563 483 c 1
 503 0 l 1
 393 0 l 1
 300 277 l 1
 209 0 l 1
 98 0 l 1
 36 483 l 1
 6 487 -10 503 -10 531 c 0
 -10 574 17 583 56 583 c 2
 187 583 l 2
 225 583 254 574 254 533 c 0
 254 492 225 483 187 483 c 2
 139 483 l 1
 175 211 l 1
 251 437 l 1
 355 437 l 1
 431 211 l 1
 466 483 l 1
 413 483 l 2
 376 483 347 492 347 533 c 0
 347 574 374 583 413 583 c 2
 544 583 l 2
EndSplineSet
Validated: 3073
EndChar

StartChar: X
Encoding: 88 88 56
Width: 600
Flags: MW
LayerCount: 2
Fore
SplineSet
76 0 m 2
 37 0 10 12 10 50 c 0
 10 81 32 100 69 100 c 1
 235 298 l 1
 77 483 l 1
 40 485 19 503 19 533 c 0
 19 569 48 583 85 583 c 2
 176 583 l 2
 214 583 243 574 243 533 c 0
 243 511 234 498 205 484 c 1
 300 375 l 1
 393 484 l 1
 365 498 355 511 355 533 c 0
 355 554 365 583 422 583 c 2
 512 583 l 2
 550 583 578 574 578 533 c 0
 578 502 556 484 521 483 c 1
 364 297 l 1
 531 100 l 1
 569 99 590 81 590 50 c 0
 590 10 561 0 524 0 c 2
 413 0 l 2
 369 0 347 17 347 50 c 0
 347 80 367 98 402 100 c 1
 301 220 l 1
 199 100 l 1
 233 98 253 80 253 50 c 0
 253 10 224 0 187 0 c 2
 76 0 l 2
EndSplineSet
Validated: 3073
EndChar

StartChar: Y
Encoding: 89 89 57
Width: 600
Flags: MW
LayerCount: 2
Fore
SplineSet
118 50 m 0
 118 94 150 100 185 100 c 2
 250 100 l 1
 250 245 l 1
 85 483 l 1
 44 483 21 501 21 533 c 0
 21 569 49 583 88 583 c 2
 177 583 l 2
 216 583 243 573 243 533 c 0
 243 510 231 495 205 484 c 1
 300 348 l 1
 394 484 l 1
 367 494 354 510 354 533 c 0
 354 576 384 583 421 583 c 2
 513 583 l 2
 551 583 579 574 579 533 c 0
 579 504 555 483 524 483 c 0
 521 483 519 483 516 483 c 2
 514 483 l 1
 350 245 l 1
 350 100 l 1
 415 100 l 2
 453 100 482 91 482 50 c 0
 482 10 452 0 415 0 c 2
 185 0 l 2
 146 0 118 12 118 50 c 0
EndSplineSet
Validated: 3073
EndChar

StartChar: Z
Encoding: 90 90 58
Width: 600
Flags: MW
LayerCount: 2
Fore
SplineSet
146 347 m 0
 106 347 96 376 96 413 c 2
 96 583 l 1
 504 583 l 1
 504 486 l 1
 201 100 l 1
 427 100 l 1
 427 172 l 2
 427 210 436 238 477 238 c 0
 518 238 527 211 527 172 c 2
 527 0 l 1
 73 0 l 1
 73 100 l 1
 375 483 l 1
 196 483 l 1
 196 413 l 2
 196 378 188 347 146 347 c 0
EndSplineSet
Validated: 3073
EndChar

StartChar: bracketleft
Encoding: 91 91 59
Width: 600
Flags: MW
LayerCount: 2
Fore
SplineSet
474 577 m 0
 474 537 445 527 408 527 c 2
 350 527 l 1
 350 -48 l 1
 409 -48 l 2
 444 -48 475 -56 475 -98 c 0
 475 -138 445 -148 409 -148 c 2
 250 -148 l 1
 250 627 l 1
 408 627 l 2
 448 627 474 618 474 577 c 0
EndSplineSet
Validated: 3073
EndChar

StartChar: backslash
Encoding: 92 92 60
Width: 600
Flags: MW
LayerCount: 2
Fore
SplineSet
184 651 m 0
 505 -27 l 2
 514 -45 517 -55 517 -65 c 0
 517 -90 493 -113 467 -113 c 0
 443 -113 431 -103 415 -69 c 2
 95 610 l 1
 85 630 83 636 83 647 c 0
 83 672 106 695 133 695 c 0
 156 695 168 685 184 651 c 0
EndSplineSet
Validated: 3073
EndChar

StartChar: bracketright
Encoding: 93 93 61
Width: 600
Flags: MW
LayerCount: 2
Fore
SplineSet
126 -98 m 0
 126 -58 155 -48 192 -48 c 2
 250 -48 l 1
 250 527 l 1
 191 527 l 2
 156 527 125 535 125 577 c 0
 125 617 155 627 191 627 c 2
 350 627 l 1
 350 -148 l 1
 192 -148 l 2
 152 -148 126 -139 126 -98 c 0
EndSplineSet
Validated: 3073
EndChar

StartChar: asciicircum
Encoding: 94 94 62
Width: 600
Flags: MW
LayerCount: 2
Fore
SplineSet
299 494 m 1
 182 356 l 2
 160 330 153 325 133 325 c 0
 106 325 83 348 83 375 c 0
 83 390 87 398 105 419 c 2
 299 652 l 1
 495 419 l 2
 513 398 517 390 517 375 c 0
 517 348 494 325 467 325 c 0
 448 325 439 330 418 355 c 2
 299 494 l 1
EndSplineSet
Validated: 3073
EndChar

StartChar: underscore
Encoding: 95 95 63
Width: 600
Flags: HMW
LayerCount: 2
Fore
SplineSet
600 -75 m 1
 600 -125 l 1
 0 -125 l 1
 0 -75 l 1
 600 -75 l 1
EndSplineSet
Validated: 3073
EndChar

StartChar: grave
Encoding: 96 96 64
Width: 600
Flags: MW
LayerCount: 2
Fore
SplineSet
232 650 m 2
 327 569 l 2
 342.687 555.625 350 545 350 532 c 0
 350 513 333 496 313 496 c 0
 303 496 295.544 499.446 281 512 c 2
 186 594 l 1
 169 607 163 617 163 630 c 0
 163 650 179 666 200 666 c 0
 211 666 216 663 232 650 c 2
EndSplineSet
Validated: 3073
EndChar

StartChar: a
Encoding: 97 97 65
Width: 600
Flags: MW
AnchorPoint: "above" 300 454 basechar 0
LayerCount: 2
Fore
SplineSet
42 119 m 0
 42 206 134 288 284 288 c 0
 316 288 347 285 388 278 c 1
 388 301 l 2
 388 335 359 350 295 350 c 0
 223 350 171 327 139 327 c 0
 111 327 90 349 90 378 c 0
 90 399 100 413 120 420 c 0
 168 437 242 450 292 450 c 0
 415 450 489 395 489 302 c 2
 489 100 l 1
 505 100 l 2
 544 100 571 90 571 50 c 0
 571 10 542 0 505 0 c 2
 388 0 l 1
 388 23 l 1
 340 -2 281 -16 222 -16 c 0
 123 -16 42 45 42 119 c 0
389 135 m 1
 389 185 l 1
 349 192 312 196 278 196 c 0
 210 196 148 161 148 123 c 0
 148 101 181 84 224 84 c 0
 278 84 334 101 389 135 c 1
EndSplineSet
Validated: 3073
EndChar

StartChar: b
Encoding: 98 98 66
Width: 600
Flags: MW
LayerCount: 2
Fore
SplineSet
-8 574 m 0
 -8 615 21 624 58 624 c 2
 174 624 l 1
 174 401 l 1
 217 435 264 451 324 451 c 0
 478 451 571 347 571 218 c 0
 571 88 475 -14 325 -14 c 0
 266 -14 226 -1 174 35 c 1
 174 0 l 1
 58 0 l 2
 21 0 -8 10 -8 50 c 0
 -8 91 19 100 58 100 c 2
 74 100 l 1
 74 524 l 1
 58 524 l 2
 20 524 -8 533 -8 574 c 0
323 351 m 0
 230 351 174 292 174 220 c 0
 174 141 235 86 323 86 c 0
 410 86 471 142 471 219 c 0
 471 293 412 351 323 351 c 0
EndSplineSet
Validated: 3073
EndChar

StartChar: c
Encoding: 99 99 67
Width: 600
Flags: MW
LayerCount: 2
Fore
SplineSet
540 307 m 2
 540 272 532 241 490 241 c 0
 428 241 452 299 416 325 c 0
 390 341 354 350 310 350 c 0
 215 350 154 292 154 207 c 0
 154 125 213 84 330 84 c 0
 484 84 474 140 515 140 c 0
 542 140 565 117 565 89 c 0
 565 34 473 -16 323 -16 c 0
 108 -16 54 110 54 207 c 0
 54 350 159 450 310 450 c 0
 367 450 415 440 454 420 c 1
 460 441 471 450 492 450 c 0
 525 450 540 430 540 384 c 2
 540 307 l 2
EndSplineSet
Validated: 3073
EndChar

StartChar: d
Encoding: 100 100 68
Width: 600
Flags: MW
LayerCount: 2
Fore
SplineSet
613 50 m 0
 613 9 584 0 547 0 c 2
 431 0 l 1
 431 35 l 1
 378 -1 339 -14 280 -14 c 0
 126 -14 33 91 33 219 c 0
 33 347 126 451 281 451 c 0
 341 451 388 435 431 401 c 1
 431 525 l 1
 415 525 l 2
 377 525 349 534 349 575 c 0
 349 615 376 624 415 624 c 2
 531 624 l 1
 531 100 l 1
 547 100 l 2
 586 100 613 90 613 50 c 0
431 217 m 0
 431 296 372 351 281 351 c 0
 188 351 133 290 133 219 c 0
 133 144 192 86 282 86 c 0
 372 86 431 143 431 217 c 0
EndSplineSet
Validated: 3073
EndChar

StartChar: e
Encoding: 101 101 69
Width: 600
Flags: MW
LayerCount: 2
Fore
SplineSet
550 67 m 0
 550 -4 340 -16 297 -16 c 0
 142 -16 33 80 33 216 c 0
 33 348 145 450 291 450 c 0
 440 450 550 349 550 211 c 2
 550 172 l 1
 142 172 l 1
 165 112 218 84 306 84 c 0
 399 84 463 117 502 117 c 0
 529 117 550 95 550 67 c 0
145 260 m 1
 439 260 l 1
 423 315 365 350 292 350 c 0
 219 350 160 314 145 260 c 1
EndSplineSet
Validated: 3073
EndChar

StartChar: f
Encoding: 102 102 70
Width: 600
Flags: MW
LayerCount: 2
Fore
SplineSet
392 623 m 0
 526 623 571 599 571 560 c 0
 571 531 550 509 524 509 c 0
 503 509 446 523 383 523 c 0
 326 523 299 507 299 474 c 2
 299 437 l 1
 450 437 l 2
 485 437 516 429 516 387 c 0
 516 347 486 337 450 337 c 2
 299 337 l 1
 299 100 l 1
 438 100 l 2
 477 100 504 90 504 50 c 0
 504 12 477 0 438 0 c 2
 141 0 l 2
 103 0 75 12 75 50 c 0
 75 91 102 100 141 100 c 2
 199 100 l 1
 199 337 l 1
 152 337 l 2
 114 337 86 349 86 387 c 0
 86 431 118 437 153 437 c 2
 199 437 l 1
 199 474 l 2
 199 566 273 623 392 623 c 0
EndSplineSet
Validated: 3073
EndChar

StartChar: g
Encoding: 103 103 71
Width: 600
Flags: MW
LayerCount: 2
Fore
SplineSet
141 -150 m 0
 141 -109 168 -100 207 -100 c 2
 316 -100 l 2
 373 -100 410 -72 410 -20 c 2
 410 35 l 1
 364 1 321 -14 269 -14 c 0
 135 -14 33 86 33 218 c 0
 33 351 135 451 269 451 c 0
 323 451 371 434 410 401 c 1
 410 437 l 1
 526 437 l 2
 565 437 592 427 592 387 c 0
 592 346 563 337 526 337 c 2
 510 337 l 1
 510 -20 l 2
 510 -126 428 -200 319 -200 c 2
 207 -200 l 2
 168 -200 141 -188 141 -150 c 0
271 351 m 0
 195 351 133 292 133 219 c 0
 133 145 195 86 271 86 c 0
 347 86 410 145 410 217 c 0
 410 292 349 351 271 351 c 0
EndSplineSet
Validated: 3073
EndChar

StartChar: h
Encoding: 104 104 72
Width: 600
Flags: MW
LayerCount: 2
Fore
SplineSet
13 574 m 0
 13 615 42 624 79 624 c 2
 195 624 l 1
 195 389 l 1
 235 430 280 450 332 450 c 0
 438 450 509 384 509 284 c 2
 509 100 l 1
 515 100 l 2
 554 100 581 90 581 50 c 0
 581 10 552 0 515 0 c 2
 403 0 l 2
 367 0 336 10 336 50 c 0
 336 92 367 100 403 100 c 2
 409 100 l 1
 409 271 l 2
 409 314 399 350 321 350 c 0
 274 350 252 338 195 283 c 1
 195 100 l 1
 201 100 l 2
 239 100 268 91 268 50 c 0
 268 9 238 0 201 0 c 2
 89 0 l 2
 51 0 23 12 23 50 c 0
 23 91 53 100 89 100 c 2
 95 100 l 1
 95 524 l 1
 79 524 l 2
 41 524 13 533 13 574 c 0
EndSplineSet
Validated: 3073
EndChar

StartChar: i
Encoding: 105 105 73
Width: 600
Flags: MW
LayerCount: 2
Fore
SplineSet
538 50 m 0
 538 12 511 0 472 0 c 2
 128 0 l 2
 72 0 62 29 62 50 c 0
 62 91 89 100 128 100 c 2
 250 100 l 1
 250 337 l 1
 172 337 l 2
 135 337 105 347 105 387 c 0
 105 430 135 437 172 437 c 2
 350 437 l 1
 350 100 l 1
 472 100 l 2
 507 100 538 92 538 50 c 0
336 623 m 1
 336 518 l 1
 218 518 l 1
 218 623 l 1
 336 623 l 1
EndSplineSet
Validated: 3073
EndChar

StartChar: j
Encoding: 106 106 74
Width: 600
Flags: MW
LayerCount: 2
Fore
SplineSet
117 -150 m 0
 117 -107 148 -100 183 -100 c 2
 294 -100 l 2
 351 -100 388 -72 388 -20 c 2
 388 337 l 1
 186 337 l 2
 148 337 120 349 120 387 c 0
 120 428 147 437 186 437 c 2
 488 437 l 1
 488 -20 l 2
 488 -125 406 -200 297 -200 c 2
 183 -200 l 2
 145 -200 117 -188 117 -150 c 0
430 623 m 1
 430 518 l 1
 311 518 l 1
 311 623 l 1
 430 623 l 1
EndSplineSet
Validated: 3073
EndChar

StartChar: k
Encoding: 107 107 75
Width: 600
Flags: MW
LayerCount: 2
Fore
SplineSet
571 50 m 0
 571 9 540 0 504 0 c 2
 386 0 l 2
 342 0 320 17 320 50 c 0
 320 64 324 74 336 87 c 1
 233 178 l 1
 215 164 l 1
 215 0 l 1
 99 0 l 2
 55 0 33 17 33 50 c 0
 33 91 60 100 99 100 c 2
 115 100 l 1
 115 524 l 1
 99 524 l 2
 61 524 33 533 33 574 c 0
 33 615 62 624 99 624 c 2
 215 624 l 1
 215 287 l 1
 294 350 l 1
 282 364 278 373 278 387 c 0
 278 429 309 437 345 437 c 2
 457 437 l 2
 497 437 523 427 523 387 c 0
 523 347 493 337 457 337 c 2
 429 337 l 1
 311 241 l 1
 471 100 l 1
 504 100 l 2
 542 100 571 91 571 50 c 0
EndSplineSet
Validated: 3073
EndChar

StartChar: l
Encoding: 108 108 76
Width: 600
Flags: MW
LayerCount: 2
Fore
SplineSet
105 574 m 0
 105 616 133 624 172 624 c 2
 350 624 l 1
 350 100 l 1
 472 100 l 2
 507 100 538 92 538 50 c 0
 538 12 511 0 472 0 c 2
 128 0 l 2
 72 0 62 29 62 50 c 0
 62 91 89 100 128 100 c 2
 250 100 l 1
 250 524 l 1
 172 524 l 2
 135 524 105 533 105 574 c 0
EndSplineSet
Validated: 3073
EndChar

StartChar: m
Encoding: 109 109 77
Width: 600
Flags: MW
LayerCount: 2
Fore
SplineSet
48 0 m 2
 12 0 -19 11 -19 50 c 0
 -19 82 3 100 41 100 c 1
 41 337 l 1
 3 338 -19 356 -19 387 c 0
 -19 422 8 437 48 437 c 2
 141 437 l 1
 141 413 l 1
 176 441 196 450 226 450 c 0
 265 450 298 434 328 401 c 1
 359 435 391 450 432 450 c 0
 507 450 563 394 563 319 c 2
 563 100 l 1
 601 100 623 82 623 50 c 0
 623 17 601 0 557 0 c 2
 463 0 l 1
 463 311 l 2
 463 340 454 350 428 350 c 0
 402 350 386 341 352 305 c 1
 352 100 l 1
 390 100 412 81 412 50 c 0
 412 9 381 0 346 0 c 2
 252 0 l 1
 252 311 l 2
 252 339 242 350 217 350 c 0
 190 350 171 339 141 305 c 1
 141 100 l 1
 180 100 202 82 202 50 c 0
 202 9 171 0 136 0 c 2
 48 0 l 2
EndSplineSet
Validated: 3073
EndChar

StartChar: n
Encoding: 110 110 78
Width: 600
Flags: MW
LayerCount: 2
Fore
SplineSet
23 50 m 0
 23 91 53 100 89 100 c 2
 95 100 l 1
 95 337 l 1
 56 338 34 355 34 387 c 0
 34 423 62 437 101 437 c 2
 195 437 l 1
 195 389 l 1
 243 435 277 450 332 450 c 0
 432 450 510 392 510 282 c 2
 510 100 l 1
 549 100 571 82 571 50 c 0
 571 10 542 0 505 0 c 2
 416 0 l 2
 371 0 349 17 349 50 c 0
 349 82 371 100 410 100 c 1
 410 278 l 2
 410 327 382 350 320 350 c 0
 274 350 242 333 195 282 c 1
 195 100 l 1
 201 100 l 2
 236 100 267 92 267 50 c 0
 267 9 236 0 201 0 c 2
 89 0 l 2
 50 0 23 12 23 50 c 0
EndSplineSet
Validated: 3073
EndChar

StartChar: o
Encoding: 111 111 79
Width: 600
Flags: MW
LayerCount: 2
Fore
SplineSet
303 450 m 0
 444 450 558 346 558 217 c 0
 558 87 444 -16 300 -16 c 0
 156 -16 42 87 42 217 c 0
 42 349 155 450 303 450 c 0
302 350 m 0
 211 350 142 293 142 217 c 0
 142 142 211 84 300 84 c 0
 389 84 458 142 458 217 c 0
 458 291 389 350 302 350 c 0
EndSplineSet
Validated: 3073
EndChar

StartChar: p
Encoding: 112 112 80
Width: 600
Flags: MW
LayerCount: 2
Fore
SplineSet
-8 387 m 0
 -8 428 21 437 58 437 c 2
 174 437 l 1
 174 392 l 1
 223 434 265 450 327 450 c 0
 467 450 571 353 571 224 c 0
 571 101 468 10 329 10 c 0
 270 10 226 26 174 66 c 1
 174 -100 l 1
 232 -100 l 2
 272 -100 298 -109 298 -150 c 0
 298 -190 268 -200 232 -200 c 2
 58 -200 l 2
 21 -200 -8 -191 -8 -150 c 0
 -8 -109 21 -100 58 -100 c 2
 74 -100 l 1
 74 337 l 1
 58 337 l 2
 20 337 -8 346 -8 387 c 0
471 230 m 0
 471 298 412 350 323 350 c 0
 232 350 174 297 174 231 c 0
 174 160 235 110 323 110 c 0
 409 110 471 160 471 230 c 0
EndSplineSet
Validated: 3073
EndChar

StartChar: q
Encoding: 113 113 81
Width: 600
Flags: MW
LayerCount: 2
Fore
SplineSet
307 -150 m 0
 307 -109 337 -100 373 -100 c 2
 431 -100 l 1
 431 66 l 1
 379 26 334 10 275 10 c 0
 136 10 33 101 33 224 c 0
 33 354 137 450 277 450 c 0
 340 450 382 434 431 392 c 1
 431 437 l 1
 547 437 l 2
 586 437 613 427 613 387 c 0
 613 346 584 337 547 337 c 2
 531 337 l 1
 531 -100 l 1
 547 -100 l 2
 586 -100 613 -110 613 -150 c 0
 613 -190 583 -200 547 -200 c 2
 373 -200 l 2
 337 -200 307 -192 307 -150 c 0
282 110 m 0
 371 110 431 162 431 229 c 0
 431 300 370 350 281 350 c 0
 192 350 133 296 133 230 c 0
 133 162 193 110 282 110 c 0
EndSplineSet
Validated: 3073
EndChar

StartChar: r
Encoding: 114 114 82
Width: 600
Flags: MW
LayerCount: 2
Fore
SplineSet
445 449 m 0
 497 449 571 410 571 364 c 0
 571 336 548 313 521 313 c 0
 488 313 476 349 443 349 c 0
 411 349 373 325 278 247 c 1
 278 100 l 1
 417 100 l 2
 455 100 484 91 484 50 c 0
 484 10 454 0 417 0 c 2
 120 0 l 2
 82 0 54 12 54 50 c 0
 54 91 81 100 120 100 c 2
 178 100 l 1
 178 337 l 1
 143 337 l 2
 104 337 77 349 77 387 c 0
 77 418 99 437 143 437 c 2
 278 437 l 1
 278 372 l 1
 358 432 396 449 445 449 c 0
EndSplineSet
Validated: 3073
EndChar

StartChar: s
Encoding: 115 115 83
Width: 600
Flags: MW
LayerCount: 2
Fore
SplineSet
506 347 m 2
 506 309 497 281 456 281 c 0
 399 281 433 350 301 350 c 0
 250 350 202 333 202 315 c 0
 202 269 372 286 457 238 c 0
 501 214 527 171 527 125 c 0
 527 43 433 -16 304 -16 c 0
 247 -16 196 -6 156 13 c 1
 145 4 137 1 124 1 c 0
 81 1 73 32 73 67 c 2
 73 100 l 2
 73 137 82 167 124 167 c 0
 150 167 166 153 175 123 c 1
 204 97 246 84 300 84 c 0
 364 84 417 104 417 127 c 0
 417 169 321 176 291 179 c 0
 151 194 92 234 92 313 c 0
 92 393 178 450 298 450 c 0
 347 450 388 442 427 424 c 1
 435 443 444 450 459 450 c 0
 491 450 506 430 506 384 c 2
 506 347 l 2
EndSplineSet
Validated: 3073
EndChar

StartChar: t
Encoding: 116 116 84
Width: 600
Flags: MW
LayerCount: 2
Fore
SplineSet
214 141 m 2
 214 103 226 84 300 84 c 0
 414 84 446 129 481 129 c 0
 508 129 529 106 529 78 c 0
 529 18 375 -16 299 -16 c 0
 185 -16 114 37 114 122 c 2
 114 337 l 1
 79 337 l 2
 42 337 13 347 13 387 c 0
 13 428 40 437 79 437 c 2
 114 437 l 1
 114 525 l 2
 114 560 122 591 164 591 c 0
 205 591 214 564 214 525 c 2
 214 437 l 1
 395 437 l 2
 433 437 461 428 461 387 c 0
 461 347 432 337 395 337 c 2
 214 337 l 1
 214 141 l 2
EndSplineSet
Validated: 3073
EndChar

StartChar: u
Encoding: 117 117 85
Width: 600
Flags: MW
LayerCount: 2
Fore
SplineSet
365 337 m 0
 320 337 309 368 309 387 c 0
 309 428 338 437 375 437 c 2
 510 437 l 1
 510 100 l 1
 549 100 571 82 571 50 c 0
 571 9 540 0 505 0 c 2
 410 0 l 1
 410 48 l 1
 360 1 328 -13 273 -13 c 0
 172 -13 95 46 95 156 c 2
 95 337 l 1
 68 337 l 2
 35 337 13 358 13 387 c 0
 13 428 40 437 79 437 c 2
 195 437 l 1
 195 159 l 2
 195 110 223 87 283 87 c 0
 333 87 358 100 410 155 c 1
 410 337 l 1
 375 337 l 2
 371 337 368 337 365 337 c 0
EndSplineSet
Validated: 3073
EndChar

StartChar: v
Encoding: 118 118 86
Width: 600
Flags: MW
LayerCount: 2
Fore
SplineSet
264 387 m 0
 264 346 235 337 198 337 c 2
 193 337 l 1
 302 122 l 1
 409 337 l 1
 399 337 l 2
 362 337 333 346 333 387 c 0
 333 428 362 437 399 437 c 2
 534 437 l 2
 572 437 600 428 600 387 c 0
 600 346 571 337 534 337 c 2
 518 337 l 1
 351 0 l 1
 247 0 l 1
 80 337 l 1
 66 337 l 2
 29 337 0 346 0 387 c 0
 0 428 29 437 66 437 c 2
 198 437 l 2
 236 437 264 428 264 387 c 0
EndSplineSet
Validated: 3073
EndChar

StartChar: w
Encoding: 119 119 87
Width: 600
Flags: MW
LayerCount: 2
Fore
SplineSet
441 338 m 2
 405 338 375 346 375 387 c 0
 375 417 396 437 441 437 c 2
 534 437 l 2
 569 437 600 429 600 387 c 0
 600 358 581 340 548 338 c 1
 464 0 l 1
 372 0 l 1
 301 181 l 1
 233 0 l 1
 139 0 l 1
 54 338 l 1
 20 340 0 358 0 387 c 0
 0 423 28 437 66 437 c 2
 158 437 l 2
 196 437 224 428 224 387 c 0
 224 346 194 338 160 338 c 1
 199 185 l 1
 259 343 l 1
 347 343 l 1
 408 185 l 1
 448 338 l 1
 441 338 l 2
EndSplineSet
Validated: 3073
EndChar

StartChar: x
Encoding: 120 120 88
Width: 600
Flags: MW
LayerCount: 2
Fore
SplineSet
198 437 m 2
 235 437 264 428 264 388 c 0
 264 370 255 353 238 342 c 1
 299 293 l 1
 360 343 l 1
 341 356 334 369 334 386 c 0
 334 423 362 437 400 437 c 2
 491 437 l 2
 527 437 558 429 558 387 c 0
 558 358 539 340 505 337 c 1
 373 227 l 1
 525 100 l 1
 559 98 579 80 579 50 c 0
 579 10 549 0 513 0 c 2
 401 0 l 2
 363 0 334 10 334 51 c 0
 334 74 349 93 374 100 c 1
 299 161 l 1
 226 100 l 1
 254 88 264 75 264 51 c 0
 264 17 242 0 198 0 c 2
 87 0 l 2
 43 0 21 17 21 50 c 0
 21 80 41 98 75 100 c 1
 220 228 l 1
 92 337 l 1
 59 340 40 358 40 387 c 0
 40 423 68 437 106 437 c 2
 198 437 l 2
EndSplineSet
Validated: 3073
EndChar

StartChar: y
Encoding: 121 121 89
Width: 600
Flags: MW
LayerCount: 2
Fore
SplineSet
77 -200 m 0
 32 -200 21 -169 21 -150 c 0
 21 -109 50 -100 87 -100 c 2
 187 -100 l 1
 242 3 l 1
 70 337 l 1
 39 341 21 359 21 387 c 0
 21 422 50 437 87 437 c 2
 177 437 l 2
 215 437 243 428 243 387 c 0
 243 356 222 338 184 337 c 1
 298 114 l 1
 418 337 l 1
 377 337 354 355 354 387 c 0
 354 423 382 437 421 437 c 2
 513 437 l 2
 551 437 579 428 579 387 c 0
 579 358 560 340 527 337 c 1
 297 -100 l 1
 302 -100 l 2
 340 -100 368 -109 368 -150 c 0
 368 -190 338 -200 302 -200 c 2
 87 -200 l 2
 83 -200 80 -200 77 -200 c 0
EndSplineSet
Validated: 3073
EndChar

StartChar: z
Encoding: 122 122 90
Width: 600
Flags: MW
LayerCount: 2
Fore
SplineSet
147 262 m 0
 107 262 97 291 97 328 c 2
 97 437 l 1
 506 437 l 1
 506 356 l 1
 244 100 l 1
 419 100 l 1
 421 135 439 154 469 154 c 0
 510 154 519 127 519 88 c 2
 519 0 l 1
 85 0 l 1
 85 83 l 1
 346 337 l 1
 197 337 l 1
 197 328 l 2
 197 293 189 262 147 262 c 0
EndSplineSet
Validated: 3073
EndChar

StartChar: braceleft
Encoding: 123 123 91
Width: 600
Flags: MW
LayerCount: 2
Fore
SplineSet
348 485 m 2
 348 328 l 2
 348 285 342 268 319 240 c 1
 343 211 348 194 348 142 c 2
 348 -15 l 2
 348 -42 356 -50 384 -52 c 0
 413 -54 433 -75 433 -103 c 0
 433 -133 411 -153 378 -153 c 0
 308 -153 248 -93 248 -22 c 2
 248 151 l 2
 248 179 242 186 216 189 c 0
 184 193 167 210 167 240 c 0
 167 269 184 287 216 290 c 0
 242 293 248 301 248 328 c 2
 248 492 l 2
 248 563 308 623 377 623 c 0
 411 623 433 603 433 573 c 0
 433 545 413 524 384 522 c 0
 356 521 348 512 348 485 c 2
EndSplineSet
Validated: 3073
EndChar

StartChar: bar
Encoding: 124 124 92
Width: 600
Flags: MW
LayerCount: 2
Fore
SplineSet
300 622 m 0
 341 622 350 593 350 556 c 2
 350 -87 l 2
 350 -124 340 -153 300 -153 c 0
 260 -153 250 -123 250 -87 c 2
 250 556 l 2
 250 594 259 622 300 622 c 0
EndSplineSet
Validated: 3073
EndChar

StartChar: braceright
Encoding: 125 125 93
Width: 600
Flags: MW
LayerCount: 2
Fore
SplineSet
252 -15 m 2
 252 142 l 2
 252 185 258 202 281 230 c 1
 257 259 252 276 252 328 c 2
 252 485 l 2
 252 512 244 520 216 522 c 0
 187 524 167 545 167 573 c 0
 167 603 189 623 222 623 c 0
 292 623 352 563 352 492 c 2
 352 319 l 2
 352 291 358 284 384 281 c 0
 416 277 433 260 433 230 c 0
 433 201 416 183 384 180 c 0
 358 177 352 169 352 142 c 2
 352 -22 l 2
 352 -93 292 -153 223 -153 c 0
 189 -153 167 -133 167 -103 c 0
 167 -75 187 -54 216 -52 c 0
 244 -51 252 -42 252 -15 c 2
EndSplineSet
Validated: 3073
EndChar

StartChar: asciitilde
Encoding: 126 126 94
Width: 600
Flags: MW
LayerCount: 2
Fore
SplineSet
62 252 m 0
 62 282 129 385 213 385 c 0
 301 385 352 284 389 284 c 0
 424 284 436 364 488 364 c 0
 515 364 538 341 538 314 c 0
 538 287 468 179 391 179 c 0
 310 179 243 281 212 281 c 0
 184 281 154 201 113 201 c 0
 86 201 62 225 62 252 c 0
EndSplineSet
Validated: 3073
EndChar

StartChar: cent
Encoding: 162 162 97
Width: 600
Flags: MW
LayerCount: 2
Fore
SplineSet
310 197 m 0
 388 197 416 245 449 245 c 0
 475 245 499 221 499 194 c 0
 499 152 439 114 351 99 c 1
 351 22 l 2
 351 -13 343 -44 301 -44 c 0
 261 -44 251 -14 251 22 c 2
 251 103 l 1
 148 128 83 209 83 312 c 0
 83 409 152 493 251 517 c 1
 251 594 l 2
 251 631 260 661 301 661 c 0
 344 661 351 631 351 594 c 2
 351 527 l 1
 382 522 404 515 424 503 c 1
 433 506 438 507 444 507 c 0
 485 507 495 480 495 441 c 2
 495 399 l 2
 495 364 487 333 445 333 c 0
 368 333 433 427 320 427 c 0
 241 427 183 377 183 310 c 0
 183 247 238 197 310 197 c 0
EndSplineSet
Validated: 3073
EndChar

StartChar: sterling
Encoding: 163 163 98
Width: 600
Flags: MW
LayerCount: 2
Fore
SplineSet
381 293 m 0
 381 251 350 243 314 243 c 2
 269 243 l 1
 270 231 270 221 270 216 c 0
 270 172 264 142 247 100 c 1
 450 100 l 1
 454 130 471 146 499 146 c 0
 530 146 550 124 550 90 c 0
 550 32 512 0 442 0 c 2
 121 0 l 2
 65 0 55 29 55 51 c 0
 55 109 129 89 150 132 c 0
 163 157 169 188 169 224 c 0
 169 227 169 235 168 243 c 1
 99 243 l 2
 62 243 33 252 33 293 c 0
 33 334 60 343 99 343 c 2
 143 343 l 1
 131 379 126 403 126 432 c 0
 126 529 198 598 299 598 c 0
 377 598 457 546 457 495 c 0
 457 467 435 444 408 444 c 0
 361 444 369 498 298 498 c 0
 257 498 226 472 226 437 c 0
 226 416 226 414 246 343 c 1
 314 343 l 2
 350 343 381 335 381 293 c 0
EndSplineSet
Validated: 3073
EndChar

StartChar: currency
Encoding: 164 164 99
Width: 600
Flags: MW
LayerCount: 2
Fore
SplineSet
131 388 m 1
 111 408 73 438 73 469 c 0
 73 496 96 519 124 519 c 0
 141 519 148 515 171 493 c 2
 203 462 l 1
 240 482 264 488 300 488 c 0
 336 488 360 481 397 461 c 1
 428 491 l 2
 450 513 458 517 475 517 c 0
 503 517 526 494 526 466 c 0
 526 449 522 442 500 420 c 2
 469 388 l 1
 488 351 494 327 494 292 c 0
 494 257 488 233 468 196 c 1
 501 162 l 2
 522 141 527 132 527 116 c 0
 527 88 503 64 475 64 c 0
 458 64 451 68 429 90 c 2
 395 122 l 1
 359 103 335 97 300 97 c 0
 264 97 241 103 204 123 c 1
 171 91 l 2
 148 68 141 64 124 64 c 0
 96 64 73 87 73 115 c 0
 73 132 77 139 99 162 c 2
 131 196 l 1
 112 233 106 257 106 292 c 0
 106 328 112 352 131 388 c 1
300 388 m 0
 248 388 206 346 206 293 c 0
 206 241 249 197 300 197 c 0
 351 197 394 241 394 292 c 0
 394 346 353 388 300 388 c 0
EndSplineSet
Validated: 3073
EndChar

StartChar: yen
Encoding: 165 165 100
Width: 600
Flags: MW
LayerCount: 2
Fore
SplineSet
179 580 m 2
 218 580 246 571 246 530 c 0
 246 506 230 486 207 482 c 1
 301 348 l 1
 396 481 l 1
 370 488 355 506 355 530 c 0
 355 573 385 580 422 580 c 2
 513 580 l 2
 548 580 579 572 579 530 c 0
 579 510 569 480 514 480 c 1
 375 281 l 1
 447 281 l 2
 467 281 478 271 478 253 c 0
 478 235 467 225 447 225 c 2
 350 225 l 1
 350 191 l 1
 447 191 l 2
 467 191 478 181 478 163 c 0
 478 145 467 135 447 135 c 2
 350 135 l 1
 350 100 l 1
 397 100 l 2
 435 100 463 91 463 50 c 0
 463 17 441 0 397 0 c 2
 203 0 l 2
 147 0 137 29 137 50 c 0
 137 93 167 100 204 100 c 2
 250 100 l 1
 250 135 l 1
 153 135 l 2
 133 135 122 145 122 163 c 0
 122 181 133 191 153 191 c 2
 250 191 l 1
 250 225 l 1
 153 225 l 2
 133 225 122 235 122 253 c 0
 122 271 132 281 153 281 c 2
 225 281 l 1
 87 481 l 1
 85 480 83 480 82 480 c 0
 76 480 l 0
 45 480 21 501 21 530 c 0
 21 571 48 580 87 580 c 2
 179 580 l 2
EndSplineSet
Validated: 3073
EndChar

StartChar: brokenbar
Encoding: 166 166 101
Width: 600
Flags: MW
LayerCount: 2
Fore
SplineSet
300 622 m 0
 338 622 350 596 350 556 c 2
 350 353 l 2
 350 318 342 287 300 287 c 0
 259 287 250 316 250 353 c 2
 250 556 l 2
 250 593 259 622 300 622 c 0
300 182 m 0
 341 182 350 153 350 116 c 2
 350 -87 l 2
 350 -124 340 -153 300 -153 c 0
 260 -153 250 -123 250 -87 c 2
 250 116 l 2
 250 154 259 182 300 182 c 0
EndSplineSet
Validated: 3073
EndChar

StartChar: section
Encoding: 167 167 102
Width: 600
Flags: MW
LayerCount: 2
Fore
SplineSet
475 401 m 0
 440 401 431 426 431 456 c 2
 431 493 l 1
 287 493 l 2
 248 493 217 469 217 440 c 0
 217 415 252 383 324 342 c 2
 416 291 l 2
 533 226 564 191 564 129 c 0
 564 68 527 25 462 10 c 1
 466 -7 467 -16 467 -28 c 0
 467 -107 406 -170 312 -170 c 2
 81 -170 l 1
 81 -43 l 2
 81 -6 95 12 125 12 c 0
 162 12 169 -14 169 -43 c 2
 169 -82 l 1
 314 -82 l 2
 350 -82 381 -57 381 -29 c 0
 381 -3 347 29 276 69 c 2
 170 130 l 2
 71 187 36 226 36 283 c 0
 36 342 72 384 137 402 c 1
 133 414 132 420 132 432 c 0
 132 514 195 583 294 583 c 2
 519 583 l 1
 519 456 l 2
 519 426 512 401 475 401 c 0
371 214 m 2
 272 271 l 2
 238 290 228 297 192 326 c 1
 153 326 132 314 132 292 c 0
 132 266 159 239 218 205 c 2
 321 147 l 1
 374 114 390 103 407 88 c 1
 424 88 l 1
 449 89 468 102 468 121 c 0
 468 144 433 178 371 214 c 2
EndSplineSet
Validated: 3073
EndChar

StartChar: dieresis
Encoding: 168 168 103
Width: 600
Flags: MW
LayerCount: 2
Fore
SplineSet
196 654 m 0
 230 654 256 627 256 593 c 0
 256 561 229 534 196 534 c 0
 163 534 136 561 136 594 c 0
 136 627 163 654 196 654 c 0
404 654 m 0
 438 654 464 627 464 593 c 0
 464 561 437 534 404 534 c 0
 371 534 344 561 344 594 c 0
 344 627 371 654 404 654 c 0
EndSplineSet
Validated: 3073
EndChar

StartChar: copyright
Encoding: 169 169 104
Width: 600
Flags: MW
LayerCount: 2
Fore
SplineSet
303 189 m 0
 383 189 366 229 403 229 c 0
 422 229 439 212 439 193 c 0
 439 154 373 118 302 118 c 0
 206 118 135 182 135 269 c 2
 135 305 l 2
 135 397 202 466 291 466 c 0
 319 466 342 461 370 447 c 1
 375 459 384 466 398 466 c 0
 418 466 431 451 431 428 c 0
 431 368 l 1
 431 340 418 324 396 324 c 0
 349 324 380 395 293 395 c 0
 242 395 206 357 206 304 c 2
 206 270 l 2
 206 221 244 189 303 189 c 0
299 598 m 0
 469 598 606 461 606 292 c 0
 606 121 469 -15 296 -15 c 0
 131 -15 -7 124 -7 292 c 0
 -7 461 130 598 299 598 c 0
300 525 m 0
 170 525 66 421 66 292 c 0
 66 164 171 58 297 58 c 0
 429 58 533 161 533 292 c 0
 533 421 428 525 300 525 c 0
EndSplineSet
Validated: 3073
EndChar

StartChar: ordfeminine
Encoding: 170 170 105
Width: 600
Flags: MW
LayerCount: 2
Fore
SplineSet
151 541 m 0
 151 585 241 595 292 595 c 0
 381 595 432 557 432 490 c 2
 432 362 l 1
 438 362 l 2
 473 362 489 350 489 323 c 0
 489 298 472 284 439 284 c 2
 354 284 l 1
 354 295 l 1
 314 279 285 273 246 273 c 0
 175 273 118 316 118 369 c 0
 118 435 188 487 292 487 c 0
 312 487 325 486 354 482 c 1
 354 490 l 2
 354 509 337 517 296 517 c 0
 242 517 209 501 189 501 c 0
 168 501 151 519 151 541 c 0
354 383 m 1
 354 410 l 1
 322 416 307 417 288 417 c 0
 246 417 209 397 209 374 c 0
 209 361 227 352 252 352 c 0
 284 352 328 365 354 383 c 1
432 182 m 2
 176 182 l 2
 132 182 124 189 124 227 c 0
 124 252 135 259 176 259 c 2
 431 259 l 2
 467 259 483 247 483 221 c 0
 483 195 466 182 432 182 c 2
EndSplineSet
Validated: 3073
EndChar

StartChar: guillemotleft
Encoding: 171 171 106
Width: 600
Flags: MW
LayerCount: 2
Fore
SplineSet
175 218 m 1
 326 77 l 2
 337 67 342 59 342 50 c 0
 342 34 327 20 309 20 c 0
 300 20 295 22 281 33 c 2
 33 218 l 1
 281 402 l 2
 295 413 300 415 310 415 c 0
 327 415 342 401 342 385 c 0
 342 376 337 369 326 358 c 0
 175 218 l 1
404 218 m 1
 555 77 l 2
 566 67 571 59 571 50 c 0
 571 34 556 20 538 20 c 0
 529 20 524 22 510 33 c 2
 262 218 l 1
 510 402 l 2
 524 413 529 415 539 415 c 0
 556 415 571 401 571 385 c 0
 571 376 566 369 555 358 c 0
 404 218 l 1
EndSplineSet
Validated: 3073
EndChar

StartChar: logicalnot
Encoding: 172 172 107
Width: 600
Flags: MW
LayerCount: 2
Fore
SplineSet
42 395 m 0
 42 436 69 445 108 445 c 2
 465 445 l 1
 465 181 l 2
 465 146 457 115 415 115 c 0
 375 115 365 144 365 181 c 2
 365 345 l 1
 108 345 l 2
 70 345 42 358 42 395 c 0
EndSplineSet
Validated: 3073
EndChar

StartChar: registered
Encoding: 174 174 109
Width: 600
Flags: MW
LayerCount: 2
Fore
SplineSet
269 246 m 1
 269 197 l 1
 295 197 311 184 311 162 c 0
 311 139 295 126 267 126 c 2
 199 126 l 2
 170 126 154 139 154 162 c 0
 154 184 169 197 197 197 c 1
 197 387 l 1
 169 388 154 401 154 423 c 0
 154 446 170 458 199 458 c 2
 292 458 l 2
 367 458 419 415 419 354 c 0
 419 317 395 283 358 266 c 1
 382 244 389 235 411 197 c 1
 434 195 447 182 447 162 c 0
 447 139 431 126 403 126 c 2
 363 126 l 1
 351 175 312 233 284 246 c 1
 269 246 l 1
269 316 m 1
 294 316 l 2
 325 316 348 333 348 355 c 0
 348 374 327 387 294 387 c 2
 269 387 l 1
 269 316 l 1
300 598 m 0
 468 598 606 461 606 292 c 0
 606 121 469 -15 296 -15 c 0
 131 -15 -7 124 -7 292 c 0
 -7 460 131 598 300 598 c 0
300 525 m 0
 171 525 66 420 66 292 c 0
 66 164 171 58 297 58 c 0
 429 58 533 161 533 292 c 0
 533 420 428 525 300 525 c 0
EndSplineSet
Validated: 3073
EndChar

StartChar: macron
Encoding: 175 175 110
Width: 600
Flags: MW
LayerCount: 2
Fore
SplineSet
178 546 m 2
 148 546 125 553 125 586 c 0
 125 611 144 626 178 626 c 2
 422 626 l 2
 452 626 475 619 475 586 c 0
 475 561 455 546 422 546 c 2
 178 546 l 2
EndSplineSet
Validated: 3073
EndChar

StartChar: degree
Encoding: 176 176 111
Width: 600
Flags: MW
LayerCount: 2
Fore
SplineSet
300 596 m 0
 397 596 475 517 475 420 c 0
 475 321 397 243 298 243 c 0
 204 243 125 323 125 420 c 0
 125 517 203 596 300 596 c 0
300 535 m 0
 237 535 186 483 186 420 c 0
 186 357 238 304 299 304 c 0
 363 304 414 356 414 420 c 0
 414 483 363 535 300 535 c 0
EndSplineSet
Validated: 3073
EndChar

StartChar: plusminus
Encoding: 177 177 112
Width: 600
Flags: MW
LayerCount: 2
Fore
SplineSet
558 380 m 0
 558 339 529 330 491 330 c 2
 350 330 l 1
 350 230 l 2
 350 195 342 164 300 164 c 0
 259 164 250 195 250 230 c 2
 250 330 l 1
 108 330 l 2
 70 330 42 342 42 380 c 0
 42 422 73 430 108 430 c 2
 250 430 l 1
 250 558 l 2
 250 594 260 624 300 624 c 0
 341 624 350 597 350 558 c 2
 350 430 l 1
 491 430 l 2
 529 430 558 421 558 380 c 0
42 50 m 0
 42 92 73 100 108 100 c 2
 492 100 l 2
 527 100 558 92 558 50 c 0
 558 10 529 0 492 0 c 2
 108 0 l 2
 70 0 42 12 42 50 c 0
EndSplineSet
Validated: 3073
EndChar

StartChar: twosuperior
Encoding: 178 178 113
Width: 600
Flags: MW
LayerCount: 2
Fore
SplineSet
161 533 m 0
 161 575 214 637 294 637 c 0
 369 637 425 586 425 517 c 0
 425 466 402 439 253 314 c 1
 362 314 l 1
 365 335 376 346 395 346 c 0
 418 346 429 332 429 303 c 2
 429 247 l 1
 149 247 l 1
 149 315 l 1
 335 469 358 492 358 520 c 0
 358 548 330 570 293 570 c 0
 214 570 240 500 195 500 c 0
 176 500 161 515 161 533 c 0
EndSplineSet
Validated: 3073
EndChar

StartChar: threesuperior
Encoding: 179 179 114
Width: 600
Flags: MW
LayerCount: 2
Fore
SplineSet
190 326 m 0
 212 326 206 305 283 305 c 0
 343 305 375 323 375 357 c 0
 375 439 252 394 252 451 c 0
 252 470 267 484 286 484 c 2
 311 484 l 2
 338 484 362 505 362 528 c 0
 362 554 337 570 299 570 c 0
 230 570 242 533 208 533 c 0
 190 533 175 549 175 567 c 0
 175 604 236 637 302 637 c 0
 375 637 429 591 429 529 c 0
 429 477 390 460 378 448 c 1
 419 427 442 393 442 355 c 0
 442 307 411 238 285 238 c 0
 207 238 157 259 157 292 c 0
 157 311 172 326 190 326 c 0
EndSplineSet
Validated: 3073
EndChar

StartChar: acute
Encoding: 180 180 115
Width: 600
Flags: MW
LayerCount: 2
Fore
SplineSet
404 588 m 0
 319 512 l 2
 304.67 499.188 297 496 287 496 c 0
 267 496 250 513 250 532 c 0
 250 545 257.548 555.365 273 569 c 2
 358 644 l 2
 374 657 379 660 390 660 c 0
 411 660 427 644 427 623 c 0
 427 611 420 602 404 588 c 0
EndSplineSet
Validated: 3073
EndChar

StartChar: micro
Encoding: 181 181 116
Width: 600
Flags: MW
LayerCount: 2
Fore
SplineSet
571 50 m 0
 571 9 540 0 505 0 c 2
 410 0 l 1
 410 22 l 1
 356 -4 305 -16 253 -16 c 0
 232 -16 215 -13 195 -7 c 1
 195 -87 l 2
 195 -124 186 -153 145 -153 c 0
 105 -153 95 -123 95 -87 c 2
 95 337 l 1
 79 337 l 2
 42 337 13 347 13 387 c 0
 13 428 40 437 79 437 c 2
 195 437 l 1
 195 144 l 2
 195 101 214 84 260 84 c 0
 304 84 346 99 410 138 c 1
 410 337 l 1
 375 337 l 2
 337 337 309 349 309 387 c 0
 309 428 338 437 375 437 c 2
 510 437 l 1
 510 100 l 1
 549 100 571 82 571 50 c 0
EndSplineSet
Validated: 3073
EndChar

StartChar: paragraph
Encoding: 182 182 117
Width: 600
Flags: MW
LayerCount: 2
Fore
SplineSet
138 -135 m 0
 138 -103 161 -96 191 -96 c 2
 270 -96 l 1
 270 185 l 1
 141 198 49 272 49 361 c 2
 49 407 l 2
 49 504 163 583 305 583 c 2
 502 583 l 2
 538 583 556 570 556 544 c 0
 556 518 539 505 502 505 c 2
 468 505 l 1
 468 -96 l 1
 504 -96 l 2
 541 -96 558 -109 558 -135 c 0
 558 -161 540 -174 504 -174 c 2
 411 -174 l 2
 390 -174 380 -165 371 -140 c 1
 360 -168 352 -174 328 -174 c 2
 191 -174 l 2
 156 -174 138 -161 138 -135 c 0
270 266 m 1
 270 500 l 1
 203 486 162 450 162 405 c 2
 162 361 l 2
 162 316 203 280 270 266 c 1
392 505 m 1
 348 505 l 1
 348 -96 l 1
 361 -102 366 -108 371 -124 c 1
 375 -109 381 -102 392 -96 c 1
 392 505 l 1
EndSplineSet
Validated: 3073
EndChar

StartChar: middot
Encoding: 183 183 118
Width: 600
Flags: HMW
LayerCount: 2
Fore
SplineSet
300 292 m 0
 334 292 360 265 360 231 c 0
 360 199 333 172 300 172 c 0
 267 172 240 199 240 232 c 0
 240 265 267 292 300 292 c 0
EndSplineSet
Validated: 3073
EndChar

StartChar: cedilla
Encoding: 184 184 119
Width: 600
Flags: MW
LayerCount: 2
Fore
SplineSet
215 -101 m 0
 234 -101 261 -129 301 -129 c 0
 324 -129 337 -120 337 -104 c 0
 337 -83 318 -70 284 -70 c 0
 279 -70 275 -70 262 -72 c 1
 262 1 l 1
 332 1 l 1
 332 -11 l 1
 383 -22 407 -51 407 -102 c 0
 407 -159 362 -199 300 -199 c 0
 262 -199 180 -179 180 -136 c 0
 180 -117 196 -101 215 -101 c 0
EndSplineSet
Validated: 3073
EndChar

StartChar: onesuperior
Encoding: 185 185 120
Width: 600
Flags: MW
LayerCount: 2
Fore
SplineSet
334 638 m 1
 334 314 l 1
 391 314 l 2
 420 314 434 303 434 281 c 0
 434 259 419 247 391 247 c 2
 210 247 l 2
 182 247 166 259 166 281 c 0
 166 303 180 314 210 314 c 2
 267 314 l 1
 267 551 l 1
 219 539 l 2
 208 536 205 535 199 535 c 0
 182 535 168 551 168 570 c 0
 168 589 177 597 202 604 c 2
 334 638 l 1
EndSplineSet
Validated: 3073
EndChar

StartChar: ordmasculine
Encoding: 186 186 121
Width: 600
Flags: MW
LayerCount: 2
Fore
SplineSet
301 595 m 0
 396 595 471 521 471 428 c 0
 471 343 394 273 301 273 c 0
 207 273 131 343 131 430 c 0
 131 520 208 595 301 595 c 0
301 517 m 0
 252 517 210 477 210 430 c 0
 210 388 253 351 301 351 c 0
 349 351 392 388 392 430 c 0
 392 477 350 517 301 517 c 0
122 221 m 0
 122 252 145 259 174 259 c 2
 428 259 l 2
 464 259 480 247 480 221 c 0
 480 195 463 182 428 182 c 2
 174 182 l 2
 139 182 122 195 122 221 c 0
EndSplineSet
Validated: 3073
EndChar

StartChar: guillemotright
Encoding: 187 187 122
Width: 600
Flags: MW
LayerCount: 2
Fore
SplineSet
430 217 m 1
 279 358 l 2
 268 368 263 376 263 385 c 0
 263 401 278 415 296 415 c 0
 305 415 310 413 324 402 c 2
 571 217 l 1
 324 33 l 2
 310 22 305 20 295 20 c 0
 278 20 263 34 263 50 c 0
 263 59 268 66 279 77 c 0
 430 217 l 1
200 217 m 1
 49 358 l 2
 38 368 33 376 33 385 c 0
 33 401 48 415 66 415 c 0
 75 415 80 413 94 402 c 2
 341 217 l 1
 94 33 l 2
 80 22 75 20 65 20 c 0
 48 20 33 34 33 50 c 0
 33 59 38 66 49 77 c 0
 200 217 l 1
EndSplineSet
Validated: 3073
EndChar

StartChar: onequarter
Encoding: 188 188 123
Width: 600
Flags: MW
LayerCount: 2
Fore
SplineSet
134 638 m 1
 134 314 l 1
 191 314 l 2
 220 314 234 303 234 281 c 0
 234 259 219 247 191 247 c 2
 10 247 l 2
 -18 247 -34 259 -34 281 c 0
 -34 303 -20 314 10 314 c 2
 67 314 l 1
 67 551 l 1
 19 539 l 2
 8 536 5 535 -1 535 c 0
 -18 535 -32 551 -32 570 c 0
 -32 589 -23 597 2 604 c 2
 134 638 l 1
473 528 m 2
 213 77 l 2
 202 58 193 51 179 51 c 0
 161 51 145 67 145 84 c 0
 145 90 148 99 155 110 c 0
 415 561 l 2
 427 581 435 587 450 587 c 0
 467 587 484 571 484 555 c 0
 484 548 481 541 473 528 c 2
592 380 m 1
 592 150 l 1
 615 149 629 137 629 117 c 0
 629 97 616 84 592 83 c 1
 592 67 l 1
 615 66 629 54 629 34 c 0
 629 12 613 0 585 0 c 2
 506 0 l 2
 478 0 463 12 463 34 c 0
 463 56 477 67 506 67 c 2
 525 67 l 1
 525 83 l 1
 362 83 l 1
 362 138 l 1
 508 380 l 1
 592 380 l 1
525 150 m 1
 525 279 l 1
 446 150 l 1
 525 150 l 1
EndSplineSet
Validated: 3073
EndChar

StartChar: onehalf
Encoding: 189 189 124
Width: 600
Flags: MW
LayerCount: 2
Fore
SplineSet
134 638 m 1
 134 314 l 1
 191 314 l 2
 220 314 234 303 234 281 c 0
 234 259 219 247 191 247 c 2
 10 247 l 2
 -18 247 -34 259 -34 281 c 0
 -34 303 -20 314 10 314 c 2
 67 314 l 1
 67 551 l 1
 19 539 l 2
 8 536 5 535 -1 535 c 0
 -18 535 -32 551 -32 570 c 0
 -32 589 -23 597 2 604 c 2
 134 638 l 1
473 528 m 2
 213 77 l 2
 202 58 193 51 179 51 c 0
 161 51 145 67 145 84 c 0
 145 90 148 99 155 110 c 0
 415 561 l 2
 427 581 435 587 450 587 c 0
 467 587 484 571 484 555 c 0
 484 548 481 541 473 528 c 2
361 286 m 0
 361 328 414 390 494 390 c 0
 569 390 625 339 625 270 c 0
 625 219 602 192 453 67 c 1
 562 67 l 1
 565 88 576 99 595 99 c 0
 618 99 629 85 629 56 c 2
 629 0 l 1
 349 0 l 1
 349 68 l 1
 535 222 558 245 558 273 c 0
 558 301 530 323 493 323 c 0
 414 323 440 253 395 253 c 0
 376 253 361 268 361 286 c 0
EndSplineSet
Validated: 3073
EndChar

StartChar: threequarters
Encoding: 190 190 125
Width: 600
Flags: MW
LayerCount: 2
Fore
SplineSet
-10 326 m 0
 12 326 6 305 83 305 c 0
 143 305 175 323 175 357 c 0
 175 439 52 394 52 451 c 0
 52 470 67 484 86 484 c 2
 111 484 l 2
 138 484 162 505 162 528 c 0
 162 554 137 570 99 570 c 0
 30 570 42 533 8 533 c 0
 -10 533 -25 549 -25 567 c 0
 -25 604 36 637 102 637 c 0
 175 637 229 591 229 529 c 0
 229 477 190 460 178 448 c 1
 219 427 242 393 242 355 c 0
 242 307 211 238 85 238 c 0
 7 238 -43 259 -43 292 c 0
 -43 311 -28 326 -10 326 c 0
474 528 m 2
 213 77 l 2
 202 58 193 51 179 51 c 0
 161 51 145 66 145 84 c 0
 145 91 147 97 155 110 c 2
 416 561 l 2
 427 581 435 587 450 587 c 0
 467 587 484 571 484 555 c 0
 484 549 480 539 474 528 c 2
593 380 m 1
 593 150 l 1
 616 149 630 137 630 117 c 0
 630 97 617 84 593 83 c 1
 593 67 l 1
 616 66 630 54 630 34 c 0
 630 12 614 0 586 0 c 2
 507 0 l 2
 479 0 463 12 463 34 c 0
 463 56 477 67 507 67 c 2
 526 67 l 1
 526 83 l 1
 362 83 l 1
 362 138 l 1
 509 380 l 1
 593 380 l 1
526 150 m 1
 526 279 l 1
 446 150 l 1
 526 150 l 1
EndSplineSet
Validated: 3073
EndChar

StartChar: AE
Encoding: 198 198 133
Width: 600
Flags: MW
LayerCount: 2
Fore
SplineSet
-20 50 m 0
 -20 91 9 100 46 100 c 2
 53 100 l 1
 168 483 l 1
 154 483 l 2
 117 483 88 492 88 533 c 0
 88 574 115 583 154 583 c 2
 593 583 l 1
 593 418 l 2
 593 383 585 352 543 352 c 0
 503 352 493 382 493 418 c 2
 493 483 l 1
 367 483 l 1
 367 342 l 1
 386 342 l 1
 388 377 406 397 436 397 c 0
 477 397 486 370 486 331 c 2
 486 253 l 2
 486 218 478 187 436 187 c 0
 406 187 387 208 386 243 c 1
 367 243 l 1
 367 100 l 1
 514 100 l 1
 514 123 l 2
 514 160 524 189 564 189 c 0
 605 189 614 162 614 123 c 2
 614 0 l 1
 265 0 l 2
 231 0 209 20 209 52 c 0
 209 79 231 100 259 100 c 2
 267 100 l 1
 267 158 l 1
 174 158 l 1
 157 100 l 1
 183 96 198 79 198 53 c 0
 198 19 177 0 141 0 c 2
 46 0 l 2
 2 0 -20 17 -20 50 c 0
267 259 m 1
 267 471 l 1
 203 259 l 1
 267 259 l 1
EndSplineSet
Validated: 3073
EndChar

StartChar: Ccedilla
Encoding: 199 199 134
Width: 600
Flags: MW
LayerCount: 2
Fore
SplineSet
564 108 m 0
 564 82 524 -1.4375 337 -12.4375 c 1
 388 -22.4375 412 -52 412 -103 c 0
 412 -159 367 -200 307 -200 c 0
 267 -200 185 -182 185 -137 c 0
 185 -118 201 -102 220 -102 c 0
 238 -102 265 -130 306 -130 c 0
 329 -130 342 -121 342 -105 c 0
 342 -84 323 -71 292 -71 c 0
 288 -71 284 -71 267 -73 c 1
 267 -9 l 1
 47 36 33 202 33 249 c 2
 33 315 l 2
 33 475 150 597 305 597 c 0
 357 597 392 589 447 563 c 2
 457 559 l 1
 470 577 482 583 499 583 c 0
 540 583 549 556 549 517 c 2
 549 433 l 2
 549 396 540 367 499 367 c 0
 429 367 476 435 406 473 c 0
 379 488 343 497 309 497 c 0
 207 497 133 421 133 315 c 2
 133 251 l 2
 133 151 210 86 329 86 c 0
 470 86 470 159 514 159 c 0
 541 159 564 136 564 108 c 0
EndSplineSet
Validated: 3073
EndChar

StartChar: Eth
Encoding: 208 208 143
Width: 600
Flags: MW
LayerCount: 2
Fore
SplineSet
79 0 m 2
 23 0 13 30 13 50 c 0
 13 82 36 100 74 100 c 1
 74 243 l 1
 66 243 l 2
 10 243 0 272 0 293 c 0
 0 337 32 343 67 343 c 2
 74 343 l 1
 74 483 l 1
 35 483 13 501 13 533 c 0
 13 577 45 583 80 583 c 2
 292 583 l 2
 438 583 550 462 550 305 c 2
 550 258 l 2
 550 103 446 0 284 0 c 2
 79 0 l 2
248 343 m 2
 286 343 314 334 314 293 c 0
 314 260 292 243 248 243 c 2
 174 243 l 1
 174 100 l 1
 285 100 l 2
 425 100 450 195 450 261 c 2
 450 307 l 2
 450 404 387 483 284 483 c 2
 174 483 l 1
 174 343 l 1
 248 343 l 2
EndSplineSet
Validated: 3073
EndChar

StartChar: multiply
Encoding: 215 215 150
Width: 600
Flags: MW
LayerCount: 2
Fore
SplineSet
300 209 m 1
 197 106 l 2
 176 86 166 80 150 80 c 0
 123 80 100 103 100 131 c 0
 100 147 105 156 126 177 c 2
 229 280 l 1
 126 383 l 2
 105 405 100 413 100 430 c 0
 100 457 123 480 150 480 c 0
 166 480 176 474 197 454 c 2
 300 351 l 1
 403 454 l 2
 425 475 433 480 450 480 c 0
 477 480 500 457 500 430 c 0
 500 414 494 404 474 383 c 2
 371 280 l 1
 474 177 l 2
 494 157 500 146 500 130 c 0
 500 103 477 80 450 80 c 0
 433 80 424 85 403 106 c 2
 300 209 l 1
EndSplineSet
Validated: 3073
EndChar

StartChar: Oslash
Encoding: 216 216 151
Width: 600
Flags: MW
LayerCount: 2
Fore
SplineSet
159 28 m 1
 105 -40 l 2
 85 -65 77 -70 58 -70 c 0
 31 -70 9 -49 9 -23 c 0
 9 -10 13 -2 30 19 c 2
 87 92 l 1
 42 151 20 214 20 292 c 0
 20 460 145 597 300 597 c 0
 352 597 401 581 449 549 c 1
 495 607 l 2
 514 632 523 638 542 638 c 0
 568 638 590 616 590 590 c 0
 590 577 586 569 570 548 c 2
 518 483 l 1
 559 429 579 364 579 291 c 0
 579 123 454 -14 300 -14 c 0
 251 -14 202 1 159 28 c 1
452 400 m 1
 221 107 l 1
 246 93 273 86 300 86 c 0
 397 86 479 179 479 290 c 0
 479 328 469 369 452 400 c 1
152 174 m 1
 387 471 l 1
 358 488 330 497 299 497 c 0
 201 497 120 404 120 292 c 0
 120 248 130 211 152 174 c 1
EndSplineSet
Validated: 3073
EndChar

StartChar: Thorn
Encoding: 222 222 157
Width: 600
Flags: MW
LayerCount: 2
Fore
SplineSet
523 292 m 0
 523 227 488 140 293 140 c 2
 195 140 l 1
 195 100 l 1
 294 100 l 2
 329 100 360 92 360 50 c 0
 360 12 333 0 294 0 c 2
 80 0 l 2
 24 0 14 29 14 50 c 0
 14 91 43 100 80 100 c 2
 95 100 l 1
 95 483 l 1
 80 483 l 2
 45 483 14 491 14 533 c 0
 14 573 43 583 80 583 c 2
 294 583 l 2
 333 583 360 571 360 533 c 0
 360 492 331 483 294 483 c 2
 195 483 l 1
 195 443 l 1
 293 443 l 2
 488 443 523 356 523 292 c 0
195 240 m 1
 326 240 l 2
 392 240 421 255 421 291 c 0
 421 328 393 343 326 343 c 2
 195 343 l 1
 195 240 l 1
EndSplineSet
Validated: 3073
EndChar

StartChar: germandbls
Encoding: 223 223 158
Width: 600
Flags: MW
LayerCount: 2
Fore
SplineSet
13 50 m 0
 13 92 44 100 79 100 c 2
 95 100 l 1
 95 478 l 2
 95 563 167 623 268 623 c 0
 369 623 446 551 446 456 c 0
 446 419 438 397 411 365 c 1
 488 320 529 249 529 165 c 0
 529 57 467 -16 374 -16 c 0
 305 -16 255 31 255 97 c 0
 255 134 274 156 305 156 c 0
 370 156 334 84 382 84 c 0
 410 84 429 116 429 164 c 0
 429 282 309 299 278 303 c 0
 241 307 223 323 223 353 c 0
 223 433 346 372 346 459 c 0
 346 496 314 523 268 523 c 0
 221 523 195 502 195 461 c 2
 195 100 l 1
 223 95 238 78 238 51 c 0
 238 16 217 0 172 0 c 2
 79 0 l 2
 42 0 13 10 13 50 c 0
EndSplineSet
Validated: 3073
EndChar

StartChar: ae
Encoding: 230 230 165
Width: 600
Flags: MW
LayerCount: 2
Fore
SplineSet
435 450 m 0
 531 450 611 359 611 218 c 2
 611 172 l 1
 360 172 l 1
 377 109 400 84 441 84 c 0
 488 84 537 118 566 118 c 0
 592 118 612 96 612 66 c 0
 612 0 479 -16 442 -16 c 0
 402 -16 379 -9 342 16 c 1
 333 5 321 -1 305 -1 c 0
 290 -1 279 5 269 16 c 1
 232 -7 202 -16 159 -16 c 0
 55 -16 -13 48 -13 145 c 0
 -13 258 146 286 195 286 c 0
 210 286 229 284 255 281 c 1
 255 301 l 2
 255 329 235 350 207 350 c 0
 170 350 119 325 94 325 c 0
 68 325 46 348 46 376 c 0
 46 440 181 450 207 450 c 0
 253 450 288 433 323 394 c 1
 359 433 393 450 435 450 c 0
199 197 m 0
 135 197 88 176 88 142 c 0
 88 107 116 84 158 84 c 0
 189 84 215 96 255 130 c 1
 255 189 l 1
 232 195 216 197 199 197 c 0
502 258 m 1
 499 278 488 350 432 350 c 0
 376 350 365 277 362 258 c 1
 502 258 l 1
EndSplineSet
Validated: 3073
EndChar

StartChar: ccedilla
Encoding: 231 231 166
Width: 600
Flags: MW
LayerCount: 2
Fore
SplineSet
565 89 m 0
 565 6 391 -14 342 -16 c 1
 393 -26 417 -52 417 -104 c 0
 417 -159 372 -200 312 -200 c 0
 273 -200 190 -182 190 -137 c 0
 190 -118 206 -102 225 -102 c 0
 244 -102 271 -130 311 -130 c 0
 334 -130 347 -121 347 -105 c 0
 347 -83 327 -71 291 -71 c 0
 286 -71 281 -72 272 -73 c 1
 272 -14 l 1
 226 -9 54 19 54 206 c 0
 54 350 159 450 311 450 c 0
 367 450 415 440 454 420 c 1
 460 441 471 450 491 450 c 0
 536 450 540 420 540 384 c 2
 540 307 l 2
 540 272 532 241 490 241 c 0
 428 241 453 298 417 325 c 0
 391 341 354 350 311 350 c 0
 216 350 154 293 154 207 c 0
 154 125 213 84 330 84 c 0
 483 84 477 140 515 140 c 0
 542 140 565 117 565 89 c 0
EndSplineSet
Validated: 3073
EndChar

StartChar: eth
Encoding: 240 240 175
Width: 600
Flags: MW
LayerCount: 2
Fore
SplineSet
558 233 m 0
 558 34 394 -16 300 -16 c 0
 157 -16 42 85 42 211 c 0
 42 339 151 443 286 443 c 0
 336 443 367 433 430 396 c 1
 391 445 341 490 293 518 c 1
 201 468 l 2
 182 457 178 456 169 456 c 0
 152 456 139 472 139 493 c 0
 139 507 142 510 163 522 c 2
 213 551 l 1
 198 558 182 564 174 568 c 2
 158 573 l 2
 141 579 132 590 132 604 c 0
 132 623 151 640 172 640 c 0
 195 640 225 631 271 609 c 2
 299 596 l 1
 376 637 l 2
 388 643 399 646 409 646 c 0
 426 646 440 632 440 613 c 0
 440 601 431 591 417 583 c 0
 372 558 l 1
 501 468 558 368 558 233 c 0
300 350 m 0
 213 350 144 289 144 212 c 0
 144 141 214 84 300 84 c 0
 385 84 456 141 456 210 c 0
 456 289 388 350 300 350 c 0
EndSplineSet
Validated: 3073
EndChar

StartChar: divide
Encoding: 247 247 182
Width: 600
Flags: MW
LayerCount: 2
Fore
SplineSet
42 280 m 0
 42 322 73 330 108 330 c 2
 492 330 l 2
 527 330 558 322 558 280 c 0
 558 240 529 230 492 230 c 2
 108 230 l 2
 70 230 42 242 42 280 c 0
300 160 m 0
 346 160 375 134 375 93 c 0
 375 54 345 28 300 28 c 0
 255 28 225 55 225 94 c 0
 225 133 255 160 300 160 c 0
300 532 m 0
 346 532 375 506 375 465 c 0
 375 426 345 400 300 400 c 0
 255 400 225 427 225 466 c 0
 225 505 255 532 300 532 c 0
EndSplineSet
Validated: 3073
EndChar

StartChar: oslash
Encoding: 248 248 183
Width: 600
Flags: MW
LayerCount: 2
Fore
SplineSet
548 402 m 0
 506 359 l 1
 540 316 558 267 558 217 c 0
 558 87 444 -16 300 -16 c 0
 255 -16 213 -6 172 14 c 1
 116 -44 l 2
 95 -65 87 -70 71 -70 c 0
 44 -70 23 -49 23 -22 c 0
 23 -7 28 2 48 22 c 2
 96 72 l 1
 62 114 42 167 42 217 c 0
 42 347 156 450 298 450 c 0
 342 450 398 437 432 419 c 1
 480 468 l 2
 501 489 509 494 526 494 c 0
 552 494 573 473 573 447 c 0
 573 430 568 423 548 402 c 0
436 286 m 1
 247 91 l 1
 265 86 279 84 299 84 c 0
 389 84 458 142 458 217 c 0
 458 241 450 264 436 286 c 1
167 145 m 1
 357 342 l 1
 336 347 319 350 300 350 c 0
 211 350 142 292 142 217 c 0
 142 192 150 168 167 145 c 1
EndSplineSet
Validated: 3073
EndChar

StartChar: thorn
Encoding: 254 254 189
Width: 600
Flags: MW
LayerCount: 2
Fore
SplineSet
-8 574 m 0
 -8 615 21 624 58 624 c 2
 174 624 l 1
 174 392 l 1
 223 434 265 450 328 450 c 0
 467 450 571 354 571 224 c 0
 571 101 468 10 329 10 c 0
 270 10 226 26 174 66 c 1
 174 -100 l 1
 232 -100 l 2
 272 -100 298 -109 298 -150 c 0
 298 -190 268 -200 232 -200 c 2
 58 -200 l 2
 21 -200 -8 -191 -8 -150 c 0
 -8 -109 21 -100 58 -100 c 2
 74 -100 l 1
 74 524 l 1
 58 524 l 2
 20 524 -8 533 -8 574 c 0
471 230 m 0
 471 298 412 350 323 350 c 0
 232 350 174 297 174 231 c 0
 174 160 235 110 323 110 c 0
 409 110 471 160 471 230 c 0
EndSplineSet
Validated: 3073
EndChar

StartChar: Aogonek
Encoding: 260 260 195
Width: 600
Flags: MW
LayerCount: 2
Fore
SplineSet
506 -124 m 0
 534 -124 556 -100 579 -100 c 0
 601 -100 618 -117 618 -138 c 0
 618 -182 541 -200 499 -200 c 0
 441 -200 405 -166 405 -111 c 0
 405 -61 426 -38 484 0 c 1
 416 0 l 2
 360 0 350 29 350 50 c 0
 350 91 377 100 416 100 c 2
 439 100 l 1
 416 158 l 1
 178 158 l 1
 155 100 l 1
 178 100 l 2
 213 100 244 92 244 50 c 0
 244 10 215 0 178 0 c 2
 45 0 l 2
 1 0 -21 17 -21 50 c 0
 -21 93 9 100 46 100 c 1
 201 483 l 1
 138 483 l 2
 102 483 71 491 71 533 c 0
 71 576 101 583 138 583 c 2
 354 583 l 1
 553 100 l 1
 593 100 621 91 621 50 c 0
 621 -8 482 -24 482 -104 c 0
 482 -117 491 -124 506 -124 c 0
375 258 m 1
 297 450 l 1
 218 258 l 1
 375 258 l 1
EndSplineSet
Validated: 3073
EndChar

StartChar: aogonek
Encoding: 261 261 196
Width: 600
Flags: MW
LayerCount: 2
Fore
SplineSet
468 -125 m 0
 496 -125 518 -101 541 -101 c 0
 563 -101 580 -118 580 -139 c 0
 580 -183 503 -200 461 -200 c 0
 403 -200 367 -167 367 -112 c 0
 367 -62 388 -38 446 0 c 1
 388 0 l 1
 388 23 l 1
 340 -2 281 -16 222 -16 c 0
 123 -16 42 45 42 119 c 0
 42 206 134 288 284 288 c 0
 316 288 347 285 388 278 c 1
 388 301 l 2
 388 335 359 350 295 350 c 0
 223 350 171 327 139 327 c 0
 111 327 90 349 90 378 c 0
 90 399 100 413 120 420 c 0
 168 437 242 450 292 450 c 0
 415 450 489 395 489 302 c 2
 489 100 l 1
 505 100 l 2
 543 100 571 92 571 50 c 0
 571 -11 444 -31 444 -105 c 0
 444 -118 453 -125 468 -125 c 0
389 135 m 1
 389 185 l 1
 349 192 312 196 278 196 c 0
 210 196 148 161 148 123 c 0
 148 101 181 84 224 84 c 0
 278 84 334 101 389 135 c 1
EndSplineSet
Validated: 3073
EndChar

StartChar: dcaron
Encoding: 271 271 206
Width: 600
Flags: MW
LayerCount: 2
Fore
SplineSet
349 575 m 0
 349 615 376 624 415 624 c 2
 531 624 l 1
 531 495 l 1
 607 611 l 2
 620 631 629 637 645 637 c 0
 665 637 681 621 681 600 c 0
 681 594 677 584 668 570 c 2
 586 445 l 2
 573 426 564 419 549 419 c 0
 544 419 539 420 531 423 c 1
 531 100 l 1
 547 100 l 2
 586 100 613 90 613 50 c 0
 613 9 584 0 547 0 c 2
 431 0 l 1
 431 35 l 1
 378 -1 339 -14 280 -14 c 0
 126 -14 33 91 33 219 c 0
 33 347 126 451 281 451 c 0
 341 451 388 435 431 401 c 1
 431 525 l 1
 415 525 l 2
 377 525 349 534 349 575 c 0
431 217 m 0
 431 296 372 351 281 351 c 0
 188 351 133 290 133 219 c 0
 133 144 192 86 282 86 c 0
 372 86 431 143 431 217 c 0
EndSplineSet
Validated: 3073
EndChar

StartChar: Dcroat
Encoding: 272 272 207
Width: 600
Flags: MW
LayerCount: 2
Fore
SplineSet
79 0 m 2
 23 0 13 30 13 50 c 0
 13 82 36 100 74 100 c 1
 74 243 l 1
 66 243 l 2
 10 243 0 272 0 293 c 0
 0 337 32 343 67 343 c 2
 74 343 l 1
 74 483 l 1
 35 483 13 501 13 533 c 0
 13 577 45 583 80 583 c 2
 292 583 l 2
 438 583 550 462 550 305 c 2
 550 258 l 2
 550 103 446 0 284 0 c 2
 79 0 l 2
248 343 m 2
 286 343 314 334 314 293 c 0
 314 260 292 243 248 243 c 2
 174 243 l 1
 174 100 l 1
 285 100 l 2
 425 100 450 195 450 261 c 2
 450 307 l 2
 450 404 387 483 284 483 c 2
 174 483 l 1
 174 343 l 1
 248 343 l 2
EndSplineSet
Validated: 3073
EndChar

StartChar: dcroat
Encoding: 273 273 208
Width: 600
Flags: MW
LayerCount: 2
Fore
SplineSet
349 575 m 0
 349 615 376 624 415 624 c 2
 531 624 l 1
 531 507 l 1
 547 507 l 2
 587 507 613 498 613 457 c 0
 613 424 591 407 547 407 c 2
 531 407 l 1
 531 100 l 1
 547 100 l 2
 586 100 613 90 613 50 c 0
 613 9 584 0 547 0 c 2
 431 0 l 1
 431 24 l 1
 385 -3 337 -16 283 -16 c 0
 135 -16 33 76 33 209 c 0
 33 345 141 450 281 450 c 0
 337 450 381 437 431 404 c 1
 431 525 l 1
 415 525 l 2
 380 525 349 533 349 575 c 0
282 350 m 0
 198 350 133 288 133 207 c 0
 133 132 191 84 282 84 c 0
 373 84 431 132 431 206 c 0
 431 288 367 350 282 350 c 0
EndSplineSet
Validated: 3073
EndChar

StartChar: Eogonek
Encoding: 280 280 215
Width: 600
Flags: MW
LayerCount: 2
Fore
SplineSet
474 -124 m 0
 505 -124 524 -100 548 -100 c 0
 570 -100 587 -117 587 -138 c 0
 587 -182 509 -200 467 -200 c 0
 409 -200 373 -166 373 -111 c 0
 373 -61 394 -38 452 0 c 1
 79 0 l 2
 23 0 13 29 13 50 c 0
 13 92 44 100 79 100 c 2
 94 100 l 1
 94 483 l 1
 79 483 l 2
 42 483 13 492 13 533 c 0
 13 574 40 583 79 583 c 2
 528 583 l 1
 528 433 l 2
 528 395 519 366 478 366 c 0
 436 366 428 397 428 433 c 2
 428 483 l 1
 194 483 l 1
 194 342 l 1
 279 342 l 1
 279 349 l 2
 279 385 287 416 328 416 c 0
 366 416 378 388 378 349 c 2
 378 236 l 2
 378 200 369 170 329 170 c 0
 288 170 279 199 279 236 c 2
 279 243 l 1
 194 243 l 1
 194 100 l 1
 450 100 l 1
 450 152 l 2
 450 192 460 219 500 219 c 0
 542 219 550 188 550 152 c 2
 550 0 l 1
 477 -49 450 -72 450 -104 c 0
 450 -117 459 -124 474 -124 c 0
EndSplineSet
Validated: 3073
EndChar

StartChar: eogonek
Encoding: 281 281 216
Width: 600
Flags: MW
LayerCount: 2
Fore
SplineSet
384 -124 m 0
 412 -124 434 -100 457 -100 c 0
 479 -100 496 -117 496 -138 c 0
 496 -182 419 -200 377 -200 c 0
 319 -200 283 -166 283 -111 c 0
 283 -69 302 -43 341 -14 c 1
 321 -16 311 -16 299 -16 c 0
 142 -16 33 79 33 216 c 0
 33 348 145 450 291 450 c 0
 440 450 550 349 550 211 c 2
 550 172 l 1
 142 172 l 1
 165 112 218 84 306 84 c 0
 399 84 463 117 502 117 c 0
 529 117 550 95 550 67 c 0
 550 45 538 32 508 19 c 0
 418 -17 360 -60 360 -104 c 0
 360 -117 369 -124 384 -124 c 0
145 260 m 1
 439 260 l 1
 423 315 365 350 292 350 c 0
 219 350 160 314 145 260 c 1
EndSplineSet
Validated: 3073
EndChar

StartChar: Hbar
Encoding: 294 294 229
Width: 600
Flags: MW
LayerCount: 2
Fore
SplineSet
576 390 m 0
 576 350 546 340 509 340 c 1
 509 100 l 1
 515 100 l 2
 550 100 581 92 581 50 c 0
 581 10 552 0 515 0 c 2
 394 0 l 2
 356 0 328 12 328 50 c 0
 328 91 357 100 394 100 c 2
 409 100 l 1
 409 241 l 1
 195 241 l 1
 195 100 l 1
 210 100 l 2
 245 100 276 92 276 50 c 0
 276 10 247 0 210 0 c 2
 89 0 l 2
 52 0 23 10 23 50 c 0
 23 91 50 100 89 100 c 2
 95 100 l 1
 95 340 l 1
 59 340 30 351 30 390 c 0
 30 432 61 440 95 440 c 1
 95 483 l 1
 62 486 43 504 43 533 c 0
 43 574 70 583 109 583 c 2
 210 583 l 2
 245 583 276 575 276 533 c 0
 276 492 247 483 210 483 c 2
 195 483 l 1
 195 341 l 1
 409 341 l 1
 409 483 l 1
 394 483 l 2
 357 483 328 492 328 533 c 0
 328 574 355 583 394 583 c 2
 495 583 l 2
 534 583 561 573 561 533 c 0
 561 504 542 486 509 483 c 1
 509 440 l 1
 545 440 576 434 576 390 c 0
EndSplineSet
Validated: 3073
EndChar

StartChar: hbar
Encoding: 295 295 230
Width: 600
Flags: MW
LayerCount: 2
Fore
SplineSet
13 574 m 0
 13 615 42 624 79 624 c 2
 307 624 l 2
 344 624 373 615 373 574 c 0
 373 533 344 524 307 524 c 2
 195 524 l 1
 195 389 l 1
 235 430 280 450 332 450 c 0
 438 450 509 384 509 284 c 2
 509 100 l 1
 515 100 l 2
 554 100 581 90 581 50 c 0
 581 10 552 0 515 0 c 2
 403 0 l 2
 367 0 336 10 336 50 c 0
 336 92 367 100 403 100 c 2
 409 100 l 1
 409 271 l 2
 409 314 399 350 321 350 c 0
 274 350 252 338 195 283 c 1
 195 100 l 1
 201 100 l 2
 239 100 268 91 268 50 c 0
 268 9 238 0 201 0 c 2
 89 0 l 2
 51 0 23 12 23 50 c 0
 23 91 53 100 89 100 c 2
 95 100 l 1
 95 524 l 1
 79 524 l 2
 41 524 13 533 13 574 c 0
EndSplineSet
Validated: 3073
EndChar

StartChar: Iogonek
Encoding: 302 302 237
Width: 600
Flags: MW
LayerCount: 2
Fore
SplineSet
404 -124 m 0
 432 -124 454 -100 477 -100 c 0
 499 -100 516 -117 516 -138 c 0
 516 -182 439 -200 397 -200 c 0
 339 -200 303 -166 303 -111 c 0
 303 -61 323 -38 382 0 c 1
 149 0 l 2
 93 0 83 30 83 50 c 0
 83 91 110 100 149 100 c 2
 250 100 l 1
 250 483 l 1
 149 483 l 2
 112 483 83 492 83 533 c 0
 83 574 110 583 149 583 c 2
 451 583 l 2
 489 583 517 574 517 533 c 0
 517 492 488 483 451 483 c 2
 350 483 l 1
 350 100 l 1
 451 100 l 2
 489 100 517 91 517 50 c 0
 517 -8 380 -26 380 -104 c 0
 380 -117 389 -124 404 -124 c 0
EndSplineSet
Validated: 3073
EndChar

StartChar: iogonek
Encoding: 303 303 238
Width: 600
Flags: MW
LayerCount: 2
Fore
SplineSet
428 -124 m 0
 456 -124 478 -100 501 -100 c 0
 523 -100 540 -117 540 -138 c 0
 540 -182 463 -200 421 -200 c 0
 363 -200 327 -166 327 -111 c 0
 327 -61 348 -38 406 0 c 1
 128 0 l 2
 72 0 62 29 62 50 c 0
 62 91 89 100 128 100 c 2
 250 100 l 1
 250 337 l 1
 172 337 l 2
 135 337 105 347 105 387 c 0
 105 430 135 437 172 437 c 2
 350 437 l 1
 350 100 l 1
 472 100 l 2
 507 100 538 92 538 50 c 0
 538 -8 404 -24 404 -104 c 0
 404 -117 413 -124 428 -124 c 0
336 623 m 1
 336 518 l 1
 218 518 l 1
 218 623 l 1
 336 623 l 1
EndSplineSet
Validated: 3073
EndChar

StartChar: dotlessi
Encoding: 305 305 240
Width: 600
Flags: MW
LayerCount: 2
Fore
SplineSet
105 387 m 0
 105 430 135 437 172 437 c 2
 350 437 l 1
 350 100 l 1
 472 100 l 2
 507 100 538 92 538 50 c 0
 538 12 511 0 472 0 c 2
 128 0 l 2
 72 0 62 29 62 50 c 0
 62 91 89 100 128 100 c 2
 250 100 l 1
 250 337 l 1
 172 337 l 2
 135 337 105 347 105 387 c 0
EndSplineSet
Validated: 3073
EndChar

StartChar: IJ
Encoding: 306 306 241
Width: 600
Flags: MW
LayerCount: 2
Fore
SplineSet
237 533 m 0
 237 492 208 483 171 483 c 2
 160 483 l 1
 160 100 l 1
 171 100 l 2
 183 100 194 99 204 96 c 1
 204 213 l 2
 204 251 213 280 254 280 c 0
 297 280 304 250 304 213 c 2
 304 117 l 1
 330 90 347 86 381 86 c 0
 430 86 460 124 460 198 c 2
 460 483 l 1
 391 483 l 2
 354 483 325 492 325 533 c 0
 325 574 352 583 391 583 c 2
 567 583 l 2
 602 583 633 575 633 533 c 0
 633 492 604 483 567 483 c 2
 560 483 l 1
 560 187 l 2
 560 65 484 -14 379 -14 c 0
 330 -14 293 -4 234 32 c 1
 227 11 206 0 171 0 c 2
 49 0 l 2
 -7 0 -17 30 -17 50 c 0
 -17 91 10 100 49 100 c 2
 60 100 l 1
 60 483 l 1
 49 483 l 2
 12 483 -17 492 -17 533 c 0
 -17 574 10 583 49 583 c 2
 171 583 l 2
 209 583 237 574 237 533 c 0
EndSplineSet
Validated: 3073
EndChar

StartChar: ij
Encoding: 307 307 242
Width: 600
Flags: MW
LayerCount: 2
Fore
SplineSet
408 50 m 0
 408 12 381 0 342 0 c 2
 78 0 l 2
 22 0 12 29 12 50 c 0
 12 91 39 100 78 100 c 2
 160 100 l 1
 160 337 l 1
 102 337 l 2
 65 337 35 347 35 387 c 0
 35 430 65 437 102 437 c 2
 260 437 l 1
 260 100 l 1
 342 100 l 2
 377 100 408 92 408 50 c 0
246 623 m 1
 246 518 l 1
 128 518 l 1
 128 623 l 1
 246 623 l 1
197 -150 m 0
 197 -107 228 -100 263 -100 c 2
 374 -100 l 2
 431 -100 468 -72 468 -20 c 2
 468 337 l 1
 376 337 l 2
 338 337 310 349 310 387 c 0
 310 428 337 437 376 437 c 2
 568 437 l 1
 568 -20 l 2
 568 -125 486 -200 377 -200 c 2
 263 -200 l 2
 225 -200 197 -188 197 -150 c 0
510 623 m 1
 510 518 l 1
 391 518 l 1
 391 623 l 1
 510 623 l 1
EndSplineSet
Validated: 3073
EndChar

StartChar: kgreenlandic
Encoding: 312 312 247
Width: 600
Flags: MW
LayerCount: 2
Fore
SplineSet
548 50 m 0
 548 9 517 0 480 0 c 2
 362 0 l 2
 318 0 296 17 296 50 c 0
 296 64 300 74 312 87 c 1
 234 164 l 1
 234 0 l 1
 118 0 l 2
 74 0 52 17 52 50 c 0
 52 92 83 100 118 100 c 2
 134 100 l 1
 134 337 l 1
 118 337 l 2
 80 337 52 346 52 387 c 0
 52 429 83 437 118 437 c 2
 234 437 l 1
 234 287 l 1
 314 350 l 1
 302 364 298 373 298 387 c 0
 298 429 329 437 364 437 c 2
 476 437 l 2
 514 437 542 429 542 387 c 0
 542 345 511 337 476 337 c 2
 448 337 l 1
 312 227 l 1
 448 100 l 1
 480 100 l 2
 516 100 548 92 548 50 c 0
EndSplineSet
Validated: 3073
EndChar

StartChar: Lslash
Encoding: 321 321 256
Width: 600
Flags: MW
LayerCount: 2
Fore
SplineSet
379 533 m 0
 379 493 350 483 313 483 c 2
 256 483 l 1
 256 359 l 1
 344 411 l 2
 363 422 373 426 385 426 c 0
 410 426 432 402 432 376 c 0
 432 353 424 343 393 325 c 2
 256 244 l 1
 256 100 l 1
 471 100 l 1
 471 191 l 2
 471 230 480 258 521 258 c 0
 562 258 571 229 571 191 c 2
 571 0 l 1
 99 0 l 2
 55 0 33 17 33 50 c 0
 33 91 60 100 99 100 c 2
 156 100 l 1
 156 203 l 1
 102 171 l 2
 86 161 71 156 60 156 c 0
 35 156 12 180 12 207 c 0
 12 229 20 240 52 258 c 2
 156 318 l 1
 156 483 l 1
 99 483 l 2
 61 483 33 492 33 533 c 0
 33 574 60 583 99 583 c 2
 313 583 l 2
 348 583 379 575 379 533 c 0
EndSplineSet
Validated: 3073
EndChar

StartChar: lslash
Encoding: 322 322 257
Width: 600
Flags: MW
LayerCount: 2
Fore
SplineSet
108 574 m 0
 108 617 138 624 175 624 c 2
 350 624 l 1
 350 399 l 1
 368 410 406 435 425 435 c 0
 451 435 474 411 474 383 c 0
 474 361 464 348 435 332 c 2
 350 283 l 1
 350 100 l 1
 472 100 l 2
 510 100 538 91 538 50 c 0
 538 12 511 0 472 0 c 2
 128 0 l 2
 72 0 62 29 62 50 c 0
 62 91 91 100 128 100 c 2
 250 100 l 1
 250 243 l 1
 231 232 197 209 176 209 c 0
 150 209 127 233 127 260 c 0
 127 282 136 294 167 312 c 2
 250 359 l 1
 250 524 l 1
 175 524 l 2
 138 524 108 534 108 574 c 0
EndSplineSet
Validated: 3073
EndChar

StartChar: Eng
Encoding: 330 330 265
Width: 600
Flags: MW
LayerCount: 2
Fore
SplineSet
282 -86 m 0
 296 -86 316 -100 353 -100 c 0
 399 -100 431 -67 431 -14 c 2
 431 2 l 1
 173 394 l 1
 173 100 l 1
 208 100 l 2
 246 100 274 92 274 50 c 0
 274 12 247 0 208 0 c 2
 79 0 l 2
 40 0 12 12 12 50 c 0
 12 82 34 100 73 100 c 1
 73 483 l 1
 58 483 l 2
 21 483 -8 492 -8 533 c 0
 -8 574 19 583 58 583 c 2
 173 583 l 1
 431 191 l 1
 431 483 l 1
 396 483 l 2
 359 483 330 492 330 533 c 0
 330 574 357 583 396 583 c 2
 526 583 l 2
 561 583 592 575 592 533 c 0
 592 501 571 483 531 483 c 1
 531 -14 l 2
 531 -121 455 -200 356 -200 c 0
 279 -200 234 -176 234 -136 c 0
 234 -109 257 -86 282 -86 c 0
EndSplineSet
Validated: 3073
EndChar

StartChar: eng
Encoding: 331 331 266
Width: 600
Flags: MW
LayerCount: 2
Fore
SplineSet
23 50 m 0
 23 91 53 100 89 100 c 2
 95 100 l 1
 95 337 l 1
 56 338 34 355 34 387 c 0
 34 423 62 437 101 437 c 2
 195 437 l 1
 195 389 l 1
 243 435 277 450 332 450 c 0
 432 450 510 392 510 282 c 2
 510 -14 l 2
 510 -121 434 -200 335 -200 c 0
 258 -200 213 -176 213 -136 c 0
 213 -109 236 -86 261 -86 c 0
 275 -86 295 -100 332 -100 c 0
 378 -100 410 -67 410 -14 c 2
 410 278 l 2
 410 327 382 350 320 350 c 0
 274 350 242 333 195 282 c 1
 195 100 l 1
 201 100 l 2
 236 100 267 92 267 50 c 0
 267 9 236 0 201 0 c 2
 89 0 l 2
 50 0 23 12 23 50 c 0
EndSplineSet
Validated: 3073
EndChar

StartChar: OE
Encoding: 338 338 273
Width: 600
Flags: MW
LayerCount: 2
Fore
SplineSet
484 253 m 2
 484 218 476 187 434 187 c 0
 405 187 386 208 385 243 c 1
 366 243 l 1
 366 100 l 1
 513 100 l 1
 513 122 l 2
 513 161 523 188 563 188 c 0
 604 188 612 160 612 122 c 2
 612 0 l 1
 259 0 l 2
 97 0 -20 122 -20 292 c 0
 -20 461 96 583 259 583 c 2
 593 583 l 1
 593 418 l 2
 593 379 583 352 543 352 c 0
 503 352 493 382 493 418 c 2
 493 483 l 1
 366 483 l 1
 366 342 l 1
 385 342 l 1
 387 378 404 397 434 397 c 0
 475 397 484 370 484 331 c 2
 484 253 l 2
266 483 m 1
 114 480 80 361 80 291 c 0
 80 215 124 100 266 100 c 1
 266 483 l 1
EndSplineSet
Validated: 3073
EndChar

StartChar: oe
Encoding: 339 339 274
Width: 600
Flags: MW
LayerCount: 2
Fore
SplineSet
436 450 m 0
 532 450 612 359 612 216 c 2
 612 171 l 1
 360 171 l 1
 373 113 401 84 444 84 c 0
 496 84 538 117 564 117 c 0
 591 117 613 94 613 65 c 0
 613 -4 469 -16 438 -16 c 0
 381 -16 338 8 303 58 c 1
 268 10 221 -16 171 -16 c 0
 70 -16 -11 86 -11 212 c 0
 -11 345 69 450 170 450 c 0
 222 450 265 424 303 370 c 1
 338 423 383 450 436 450 c 0
172 349 m 0
 127 349 89 289 89 216 c 0
 89 144 127 84 172 84 c 0
 218 84 256 143 256 215 c 0
 256 290 219 349 172 349 c 0
363 257 m 1
 504 257 l 1
 494 308 474 349 434 349 c 0
 388 349 373 298 363 257 c 1
EndSplineSet
Validated: 3073
EndChar

StartChar: Scedilla
Encoding: 350 350 285
Width: 600
Flags: MW
LayerCount: 2
Fore
SplineSet
517 443 m 2
 517 405 508 376 467 376 c 0
 424 376 421 412 417 430 c 0
 409 470 361 497 298 497 c 0
 235 497 185 464 185 421 c 0
 185 326 386 358 479 285 c 0
 519 253 538 212 538 160 c 0
 538 62 460 -4 332 -13 c 1
 383 -23 407 -52 407 -103 c 0
 407 -160 362 -200 299 -200 c 0
 262 -200 180 -180 180 -137 c 0
 180 -118 196 -102 215 -102 c 0
 234 -102 262 -130 301 -130 c 0
 324 -130 337 -121 337 -105 c 0
 337 -84 317 -71 284 -71 c 0
 279 -71 274 -71 262 -73 c 1
 262 -11 l 1
 230 -7 185 8 153 25 c 1
 136 5 129 1 112 1 c 0
 78 1 62 22 62 67 c 2
 62 133 l 2
 62 173 72 199 112 199 c 0
 153 199 157 170 162 151 c 0
 173 115 235 86 301 86 c 0
 376 86 434 119 434 162 c 0
 434 250 262 226 164 281 c 0
 113 310 82 363 82 420 c 0
 82 521 175 597 298 597 c 0
 349 597 394 586 429 564 c 1
 439 589 448 597 468 597 c 0
 512 597 517 566 517 531 c 2
 517 443 l 2
EndSplineSet
Validated: 3073
EndChar

StartChar: scedilla
Encoding: 351 351 286
Width: 600
Flags: MW
LayerCount: 2
Fore
SplineSet
506 347 m 2
 506 309 497 281 456 281 c 0
 432 281 422 289 404 321 c 1
 376 341 343 350 301 350 c 0
 250 350 202 333 202 315 c 0
 202 270 372 286 457 238 c 0
 501 213 527 171 527 125 c 0
 527 50 450.909 -4.09082 331.909 -14.0898 c 1
 382.909 -24.0898 407 -52 407 -103 c 0
 407 -160 362 -200 300 -200 c 0
 262 -200 180 -180 180 -137 c 0
 180 -118 196 -102 215 -102 c 0
 234 -102 262 -130 301 -130 c 0
 324 -130 337 -121 337 -105 c 0
 337 -84 317 -71 284 -71 c 0
 279 -71 274 -71 262 -73 c 1
 262 -14 l 1
 219 -10 184 -1 156 13 c 1
 144 4 137 1 124 1 c 0
 81 1 73 32 73 67 c 2
 73 100 l 2
 73 137 82 167 123 167 c 0
 150 167 166 153 174 123 c 1
 204 97 246 84 300 84 c 0
 364 84 417 104 417 127 c 0
 417 169 321 176 290 179 c 0
 151 194 92 234 92 313 c 0
 92 393 178 450 298 450 c 0
 346 450 387 442 426 424 c 1
 435 443 443 450 459 450 c 0
 491 450 506 430 506 384 c 2
 506 347 l 2
EndSplineSet
Validated: 3073
EndChar

StartChar: uni0162
Encoding: 354 354 289
Width: 600
Flags: MW
LayerCount: 2
Fore
SplineSet
221 -102 m 0
 240 -102 267 -130 307 -130 c 0
 330 -130 343 -121 343 -105 c 0
 343 -84 324 -71 290 -71 c 0
 285 -71 281 -71 268 -73 c 1
 268 0 l 1
 184 0 l 2
 128 0 118 30 118 50 c 0
 118 91 145 100 184 100 c 2
 249 100 l 1
 249 483 l 1
 142 483 l 1
 142 390 l 2
 142 355 134 324 92 324 c 0
 52 324 42 353 42 390 c 2
 42 583 l 1
 558 583 l 1
 558 390 l 2
 558 352 550 324 508 324 c 0
 467 324 458 355 458 390 c 2
 458 483 l 1
 349 483 l 1
 349 100 l 1
 415 100 l 2
 450 100 481 92 481 50 c 0
 481 12 454 0 415 0 c 2
 338 0 l 1
 338 -12 l 1
 389 -23 413 -52 413 -103 c 0
 413 -160 368 -200 306 -200 c 0
 268 -200 186 -180 186 -137 c 0
 186 -118 202 -102 221 -102 c 0
EndSplineSet
Validated: 3073
EndChar

StartChar: uni0163
Encoding: 355 355 290
Width: 600
Flags: MW
LayerCount: 2
Fore
SplineSet
193 -102 m 0
 212 -102 239 -130 279 -130 c 0
 302 -130 315 -121 315 -105 c 0
 315 -84 296 -71 262 -71 c 0
 257 -71 253 -71 240 -73 c 1
 240 -10.6283 l 1
 161.032 4.83565 114 52.8191 114 122 c 2
 114 337 l 1
 79 337 l 2
 42 337 13 347 13 387 c 0
 13 428 40 437 79 437 c 2
 114 437 l 1
 114 525 l 2
 114 560 122 591 164 591 c 0
 205 591 214 564 214 525 c 2
 214 437 l 1
 395 437 l 2
 433 437 461 428 461 387 c 0
 461 347 432 337 395 337 c 2
 214 337 l 1
 214 141 l 2
 214 103 226 84 300 84 c 0
 414 84 446 129 481 129 c 0
 508 129 529 106 529 78 c 0
 529 20.7695 388.889 -11.335 310 -14.3125 c 1
 361 -25.3125 385 -52 385 -103 c 0
 385 -160 340 -200 278 -200 c 0
 240 -200 158 -180 158 -137 c 0
 158 -118 174 -102 193 -102 c 0
EndSplineSet
Validated: 3073
EndChar

StartChar: Tbar
Encoding: 358 358 293
Width: 600
Flags: MW
LayerCount: 2
Fore
SplineSet
508 324 m 0
 467 324 458 355 458 390 c 2
 458 483 l 1
 349 483 l 1
 349 277 l 1
 415 277 l 2
 453 277 481 268 481 227 c 0
 481 187 452 177 415 177 c 2
 349 177 l 1
 349 100 l 1
 415 100 l 2
 450 100 481 92 481 50 c 0
 481 12 454 0 415 0 c 2
 184 0 l 2
 128 0 118 30 118 50 c 0
 118 91 145 100 184 100 c 2
 249 100 l 1
 249 177 l 1
 184 177 l 2
 147 177 118 187 118 227 c 0
 118 268 145 277 184 277 c 2
 249 277 l 1
 249 483 l 1
 142 483 l 1
 142 390 l 2
 142 355 134 324 92 324 c 0
 52 324 42 353 42 390 c 2
 42 583 l 1
 558 583 l 1
 558 390 l 2
 558 352 550 324 508 324 c 0
EndSplineSet
Validated: 3073
EndChar

StartChar: tbar
Encoding: 359 359 294
Width: 600
Flags: MW
LayerCount: 2
Fore
SplineSet
461 387 m 0
 461 347 432 337 395 337 c 2
 214 337 l 1
 214 277 l 1
 250 277 l 2
 288 277 316 268 316 227 c 0
 316 187 287 177 250 177 c 2
 214 177 l 1
 214 141 l 2
 214 103 226 84 300 84 c 0
 414 84 446 129 481 129 c 0
 508 129 529 106 529 78 c 0
 529 18 375 -16 299 -16 c 0
 185 -16 114 37 114 122 c 2
 114 177 l 1
 79 177 l 2
 42 177 13 187 13 227 c 0
 13 268 40 277 79 277 c 2
 114 277 l 1
 114 337 l 1
 79 337 l 2
 42 337 13 347 13 387 c 0
 13 428 40 437 79 437 c 2
 114 437 l 1
 114 525 l 2
 114 560 122 591 164 591 c 0
 205 591 214 564 214 525 c 2
 214 437 l 1
 395 437 l 2
 433 437 461 428 461 387 c 0
EndSplineSet
Validated: 3073
EndChar

StartChar: Uogonek
Encoding: 370 370 305
Width: 600
Flags: MW
LayerCount: 2
Fore
SplineSet
379 -124 m 0
 408 -124 429 -100 452 -100 c 0
 473 -100 490 -117 490 -138 c 0
 490 -184 405 -200 371 -200 c 0
 313 -200 277 -166 277 -111 c 0
 277 -68 291 -51 338 -11 c 1
 321 -14 308 -15 300 -15 c 0
 251 -15 71 21 71 205 c 2
 71 483 l 1
 31 484 10 501 10 533 c 0
 10 574 37 583 76 583 c 2
 206 583 l 2
 242 583 272 577 272 533 c 0
 272 492 243 483 206 483 c 2
 171 483 l 1
 171 196 l 2
 171 135 229 85 300 85 c 0
 371 85 429 135 429 196 c 2
 429 483 l 1
 394 483 l 2
 359 483 328 491 328 533 c 0
 328 574 355 583 394 583 c 2
 524 583 l 2
 564 583 590 574 590 533 c 0
 590 501 569 483 529 483 c 1
 529 205 l 2
 529 29 355 12 355 -105 c 0
 355 -117 363 -124 379 -124 c 0
EndSplineSet
Validated: 3073
EndChar

StartChar: uogonek
Encoding: 371 371 306
Width: 600
Flags: MW
LayerCount: 2
Fore
SplineSet
458 -124 m 0
 486 -124 508 -100 531 -100 c 0
 553 -100 570 -117 570 -138 c 0
 570 -182 493 -200 451 -200 c 0
 393 -200 357 -166 357 -111 c 0
 357 -61 378 -38 436 0 c 1
 410 0 l 1
 410 48 l 1
 360 1 328 -13 273 -13 c 0
 172 -13 95 46 95 156 c 2
 95 338 l 1
 79 338 l 1
 68 337 l 2
 67 337 66 337 64 337 c 0
 36 337 13 359 13 387 c 0
 13 428 40 437 79 437 c 2
 195 437 l 1
 195 159 l 2
 195 110 223 87 283 87 c 0
 333 87 358 100 410 155 c 1
 410 337 l 1
 375 337 l 2
 337 337 309 349 309 387 c 0
 309 428 338 437 375 437 c 2
 510 437 l 1
 510 100 l 1
 549 100 571 82 571 50 c 0
 571 28 563 17 534 1 c 0
 480 -29 434 -73 434 -104 c 0
 434 -117 443 -124 458 -124 c 0
EndSplineSet
Validated: 3073
EndChar

StartChar: longs
Encoding: 383 383 318
Width: 600
Flags: MW
LayerCount: 2
Fore
SplineSet
524 509 m 0
 503 509 446 523 383 523 c 0
 326 523 299 507 299 474 c 2
 299 100 l 1
 438 100 l 2
 477 100 504 90 504 50 c 0
 504 12 477 0 438 0 c 2
 141 0 l 2
 103 0 75 12 75 50 c 0
 75 91 102 100 141 100 c 2
 199 100 l 1
 199 337 l 1
 152 337 l 2
 114 337 86 349 86 387 c 0
 86 431 118 437 153 437 c 2
 199 437 l 1
 199 474 l 2
 199 566 273 623 392 623 c 0
 526 623 571 599 571 560 c 0
 571 531 550 509 524 509 c 0
EndSplineSet
Validated: 3073
EndChar

StartChar: uni0180
Encoding: 384 384 319
Width: 600
Flags: MW
LayerCount: 2
Fore
SplineSet
323 351 m 0
 230 351 174 292 174 220 c 0
 174 141 235 86 323 86 c 0
 410 86 471 142 471 219 c 0
 471 293 412 351 323 351 c 0
-8 574 m 0
 -8 615 21 624 58 624 c 2
 273 624 l 2
 313 624 339 615 339 574 c 0
 339 534 310 524 273 524 c 2
 174 524 l 1
 174 401 l 1
 217 435 264 451 324 451 c 0
 478 451 571 347 571 218 c 0
 571 88 475 -14 325 -14 c 0
 266 -14 226 -1 174 35 c 1
 174 0 l 1
 58 0 l 2
 21 0 -8 10 -8 50 c 0
 -8 91 19 100 58 100 c 2
 74 100 l 1
 74 524 l 1
 58 524 l 2
 20 524 -8 533 -8 574 c 0
EndSplineSet
Validated: 3073
EndChar

StartChar: uni0181
Encoding: 385 385 320
Width: 600
Flags: MW
LayerCount: 2
Fore
SplineSet
194 342 m 1
 307 342 l 2
 379 342 428 373 428 419 c 0
 428 459 390 483 327 483 c 2
 194 483 l 1
 194 342 l 1
471 154 m 0
 471 207 414 242 329 242 c 2
 194 242 l 1
 194 100 l 1
 369 100 l 2
 437 100 471 118 471 154 c 0
13 50 m 0
 13 91 42 100 79 100 c 2
 94 100 l 1
 94 483 l 1
 79 483 l 2
 40 483 34 479 34 474 c 8
 34 460 63 454 63 420 c 0
 63 390 38 369 11 369 c 0
 -20 369 -66 415 -66 474 c 0
 -66 559 10 583 79 583 c 2
 332 583 l 1
 445 583 528 513 528 418 c 0
 528 372 509 339 465 305 c 1
 537 269 571 223 571 160 c 0
 571 64 492 0 374 0 c 2
 79 0 l 2
 23 0 13 29 13 50 c 0
EndSplineSet
Validated: 3073
EndChar

StartChar: uni0183
Encoding: 387 387 322
Width: 600
Flags: MW
LayerCount: 2
Fore
SplineSet
323 351 m 0
 230 351 174 292 174 220 c 0
 174 141 235 86 323 86 c 0
 410 86 471 142 471 219 c 0
 471 293 412 351 323 351 c 0
-8 574 m 0
 -8 615 21 624 58 624 c 2
 473 624 l 2
 513 624 539 615 539 574 c 0
 539 534 510 524 473 524 c 2
 174 524 l 1
 174 401 l 1
 217 435 264 451 324 451 c 0
 478 451 571 347 571 218 c 0
 571 88 475 -14 325 -14 c 0
 266 -14 226 -1 174 35 c 1
 174 0 l 1
 58 0 l 2
 21 0 -8 10 -8 50 c 0
 -8 91 19 100 58 100 c 2
 74 100 l 1
 74 524 l 1
 58 524 l 2
 20 524 -8 533 -8 574 c 0
EndSplineSet
Validated: 3073
EndChar

StartChar: uni0187
Encoding: 391 391 324
Width: 600
Flags: MW
LayerCount: 2
Fore
SplineSet
564 109 m 0
 564 57 469 -14 327 -14 c 0
 157 -14 33 97 33 249 c 2
 33 315 l 2
 33 475 151 597 305 597 c 0
 355 597 398 588 449 562 c 1
 454 617 486 679 558 679 c 0
 619 679 663 633 663 602 c 0
 663 575 642 550 612 550 c 0
 579 550 571 579 558 579 c 16
 553 579 549 573 549 534 c 2
 549 433 l 2
 549 396 540 367 499 367 c 0
 428 367 480 432 406 473 c 0
 379 488 343 497 309 497 c 0
 207 497 133 420 133 315 c 2
 133 251 l 2
 133 151 210 86 330 86 c 0
 469 86 471 159 514 159 c 0
 541 159 564 136 564 109 c 0
EndSplineSet
Validated: 3073
EndChar

StartChar: uni0188
Encoding: 392 392 325
Width: 600
Flags: MW
LayerCount: 2
Fore
SplineSet
540 307 m 2
 540 272 532 241 490 241 c 0
 428 241 453 299 416 325 c 0
 390 341 354 350 310 350 c 0
 215 350 154 292 154 207 c 0
 154 125 213 84 330 84 c 0
 483 84 477 140 515 140 c 0
 542 140 565 117 565 89 c 0
 565 34 473 -16 323 -16 c 0
 108 -16 54 110 54 207 c 0
 54 350 159 450 310 450 c 0
 360 450 404 442 440 427 c 1
 444 482 476 546 549 546 c 0
 610 546 654 500 654 469 c 0
 654 442 633 417 603 417 c 0
 570 417 562 446 549 446 c 16
 544 446 540 440 540 401 c 2
 540 307 l 2
EndSplineSet
Validated: 3073
EndChar

StartChar: uni018A
Encoding: 394 394 327
Width: 600
Flags: MW
LayerCount: 2
Fore
SplineSet
450 307 m 2
 450 404 387 483 284 483 c 2
 174 483 l 1
 174 100 l 1
 285 100 l 2
 425 100 450 195 450 261 c 2
 450 307 l 2
-11 369 m 0
 -42 369 -88 415 -88 474 c 0
 -88 559 0 583 57 583 c 2
 292 583 l 2
 438 583 550 462 550 305 c 2
 550 258 l 2
 550 103 446 0 284 0 c 2
 80 0 l 2
 44 0 13 11 13 50 c 0
 13 82 36 100 74 100 c 1
 74 483 l 1
 57 483 l 0
 18 483 12 479 12 474 c 8
 12 460 41 454 41 420 c 0
 41 390 16 369 -11 369 c 0
EndSplineSet
Validated: 3073
EndChar

StartChar: uni018B
Encoding: 395 395 328
Width: 600
Flags: MW
LayerCount: 2
Fore
SplineSet
92 366 m 0
 50 366 42 397 42 432 c 2
 42 583 l 1
 513 583 l 2
 548 583 579 576 579 533 c 0
 579 492 550 483 513 483 c 2
 498 483 l 1
 498 100 l 1
 513 100 l 2
 550 100 579 91 579 50 c 0
 579 29 569 0 513 0 c 2
 218 0 l 2
 74 0 21 66 21 176 c 0
 21 264 78 342 219 342 c 2
 398 342 l 1
 398 483 l 1
 142 483 l 1
 142 432 l 2
 142 396 132 366 92 366 c 0
125 171 m 0
 125 122 160 100 227 100 c 2
 398 100 l 1
 398 242 l 1
 229 242 l 2
 148 242 125 211 125 171 c 0
EndSplineSet
Validated: 3073
EndChar

StartChar: uni018C
Encoding: 396 396 329
Width: 600
Flags: MW
LayerCount: 2
Fore
SplineSet
431 217 m 0
 431 296 372 351 281 351 c 0
 188 351 133 290 133 219 c 0
 133 144 192 86 282 86 c 0
 372 86 431 143 431 217 c 0
33 219 m 0
 33 347 126 451 281 451 c 0
 341 451 388 435 431 401 c 1
 431 524 l 1
 131 524 l 2
 94 524 65 533 65 574 c 0
 65 615 94 624 131 624 c 2
 531 624 l 1
 531 100 l 1
 547 100 l 2
 586 100 613 90 613 50 c 0
 613 9 584 0 547 0 c 2
 431 0 l 1
 431 35 l 1
 378 -1 339 -14 280 -14 c 0
 126 -14 33 91 33 219 c 0
EndSplineSet
Validated: 3073
EndChar

StartChar: uni0190
Encoding: 400 400 332
Width: 600
Flags: MW
LayerCount: 2
Fore
SplineSet
187 421 m 0
 187 378 235 341 324 341 c 2
 366 341 l 2
 401 341 432 332 432 290 c 0
 432 250 402 240 366 240 c 2
 307 240 l 2
 222 240 166 207 166 162 c 0
 166 119 224 86 298 86 c 0
 364 86 427 115 437 151 c 0
 440 162 445 199 488 199 c 0
 529 199 538 172 538 133 c 2
 538 67 l 2
 538 22 522 1 487 1 c 0
 471 1 464 5 447 25 c 1
 398 -1 345 -14 291 -14 c 0
 154 -14 62 56 62 160 c 0
 62 243 111 280 139 298 c 1
 106 317 83 363 83 420 c 0
 83 521 176 597 300 597 c 0
 351 597 395 586 430 564 c 1
 440 589 449 597 469 597 c 0
 513 597 518 566 518 531 c 2
 518 443 l 2
 518 407 510 376 469 376 c 0
 425 376 423 411 419 430 c 0
 410 470 362 497 300 497 c 0
 237 497 187 464 187 421 c 0
EndSplineSet
Validated: 3073
EndChar

StartChar: uni0191
Encoding: 401 401 333
Width: 600
Flags: MW
LayerCount: 2
Fore
SplineSet
329 169 m 0
 288 169 279 199 279 236 c 2
 279 243 l 1
 194 243 l 1
 194 66 l 2
 194 -41 118 -123 19 -123 c 0
 -58 -123 -103 -99 -103 -59 c 0
 -103 -32 -80 -9 -55 -9 c 0
 -41 -9 -21 -23 16 -23 c 0
 62 -23 94 13 94 66 c 2
 94 483 l 1
 79 483 l 2
 42 483 13 492 13 533 c 0
 13 574 40 583 79 583 c 2
 550 583 l 1
 550 432 l 2
 550 397 542 366 500 366 c 0
 460 366 450 396 450 432 c 2
 450 483 l 1
 194 483 l 1
 194 342 l 1
 279 342 l 1
 279 349 l 2
 279 386 288 415 329 415 c 0
 368 415 378 388 378 349 c 2
 378 236 l 2
 378 200 370 169 329 169 c 0
EndSplineSet
Validated: 3073
EndChar

StartChar: florin
Encoding: 402 402 334
Width: 600
Flags: MW
LayerCount: 2
Fore
SplineSet
500 524 m 0
 475 524 470 538 427 538 c 0
 387 538 354 501 354 456 c 2
 354 404 l 1
 411 404 l 2
 447 404 478 398 478 354 c 0
 478 313 449 304 411 304 c 2
 354 304 l 1
 354 66 l 2
 354 -41 278 -123 179 -123 c 0
 102 -123 57 -99 57 -59 c 0
 57 -32 80 -9 105 -9 c 0
 119 -9 139 -23 176 -23 c 0
 222 -23 254 13 254 66 c 2
 254 304 l 1
 197 304 l 2
 159 304 130 313 130 354 c 0
 130 398 162 404 197 404 c 2
 254 404 l 1
 254 459 l 2
 254 558 332 638 428 638 c 0
 503 638 548 615 548 577 c 0
 548 547 527 524 500 524 c 0
EndSplineSet
Validated: 3073
EndChar

StartChar: uni0193
Encoding: 403 403 335
Width: 600
Flags: MW
LayerCount: 2
Fore
SplineSet
33 317 m 2
 33 469 147 597 317 597 c 0
 367 597 412 588 452 570 c 1
 460 621 492 676 559 676 c 0
 620 676 664 630 664 599 c 0
 664 572 643 547 613 547 c 0
 580 547 572 576 559 576 c 16
 554 576 550 570 550 531 c 2
 550 453 l 2
 550 415 542 387 500 387 c 0
 460 387 456 422 451 440 c 0
 441 475 391 497 318 497 c 0
 206 497 133 425 133 317 c 2
 133 253 l 2
 133 165 171 86 325 86 c 0
 373 86 412 94 450 111 c 1
 450 180 l 1
 350 180 l 2
 311 180 284 192 284 230 c 0
 284 271 311 280 350 280 c 2
 525 280 l 2
 564 280 592 270 592 230 c 0
 592 205 578 188 550 180 c 1
 550 48 l 1
 461 1 409 -14 331 -14 c 0
 93 -14 33 134 33 246 c 2
 33 317 l 2
EndSplineSet
Validated: 3073
EndChar

StartChar: uni0195
Encoding: 405 405 336
Width: 600
Flags: MW
LayerCount: 2
Fore
SplineSet
-27 574 m 0
 -27 615 2 624 39 624 c 2
 155 624 l 1
 155 421 l 1
 170 438 195 450 228 450 c 0
 334 450 389 384 389 284 c 2
 389 159 l 2
 389 110 413 87 451 87 c 24
 489 87 513 110 513 159 c 2
 513 337 l 1
 486 337 l 2
 453 337 431 358 431 387 c 0
 431 428 458 437 497 437 c 2
 613 437 l 1
 613 156 l 2
 613 12 516 -13 451 -13 c 0
 386 -13 289 12 289 156 c 2
 289 271 l 2
 289 318 279 350 217 350 c 0
 187 350 166 332 155 315 c 1
 155 100 l 1
 161 100 l 2
 199 100 228 91 228 50 c 0
 228 9 198 0 161 0 c 2
 49 0 l 2
 11 0 -17 12 -17 50 c 0
 -17 91 13 100 49 100 c 2
 55 100 l 1
 55 524 l 1
 39 524 l 2
 1 524 -27 533 -27 574 c 0
EndSplineSet
Validated: 3073
EndChar

StartChar: uni0196
Encoding: 406 406 337
Width: 600
Flags: MW
LayerCount: 2
Fore
SplineSet
105 533 m 0
 105 576 135 583 172 583 c 2
 350 583 l 1
 350 173 l 2
 350 120 382 84 428 84 c 0
 466 84 485 98 499 98 c 0
 524 98 547 75 547 48 c 0
 547 8 502 -16 425 -16 c 0
 326 -16 250 66 250 173 c 2
 250 483 l 1
 172 483 l 2
 135 483 105 493 105 533 c 0
EndSplineSet
Validated: 3073
EndChar

StartChar: uni0197
Encoding: 407 407 338
Width: 600
Flags: MW
LayerCount: 2
Fore
SplineSet
83 284 m 0
 83 325 112 334 149 334 c 2
 250 334 l 1
 250 483 l 1
 149 483 l 2
 112 483 83 492 83 533 c 0
 83 574 110 583 149 583 c 2
 451 583 l 2
 489 583 517 574 517 533 c 0
 517 492 488 483 451 483 c 2
 350 483 l 1
 350 334 l 1
 451 334 l 2
 491 334 517 325 517 284 c 0
 517 244 488 234 451 234 c 2
 350 234 l 1
 350 100 l 1
 451 100 l 2
 489 100 517 91 517 50 c 0
 517 17 495 0 451 0 c 2
 149 0 l 2
 93 0 83 30 83 50 c 0
 83 91 110 100 149 100 c 2
 250 100 l 1
 250 234 l 1
 149 234 l 2
 112 234 83 243 83 284 c 0
EndSplineSet
Validated: 3073
EndChar

StartChar: uni0199
Encoding: 409 409 339
Width: 600
Flags: MW
LayerCount: 2
Fore
SplineSet
33 50 m 0
 33 91 60 100 99 100 c 2
 115 100 l 1
 115 459 l 2
 115 558 193 638 289 638 c 0
 364 638 409 615 409 577 c 0
 409 547 388 524 361 524 c 0
 336 524 331 538 288 538 c 0
 248 538 215 501 215 456 c 2
 215 287 l 1
 294 350 l 1
 282 364 278 373 278 387 c 0
 278 429 309 437 345 437 c 2
 457 437 l 2
 497 437 523 427 523 387 c 0
 523 347 493 337 457 337 c 2
 429 337 l 1
 311 241 l 1
 471 100 l 1
 504 100 l 2
 542 100 571 91 571 50 c 0
 571 9 540 0 504 0 c 2
 386 0 l 2
 342 0 320 17 320 50 c 0
 320 64 324 74 336 87 c 1
 233 178 l 1
 215 164 l 1
 215 0 l 1
 99 0 l 2
 55 0 33 17 33 50 c 0
EndSplineSet
Validated: 3073
EndChar

StartChar: uni019A
Encoding: 410 410 340
Width: 600
Flags: MW
LayerCount: 2
Fore
SplineSet
83 284 m 0
 83 325 112 334 149 334 c 2
 250 334 l 1
 250 524 l 1
 172 524 l 2
 135 524 105 533 105 574 c 0
 105 616 133 624 172 624 c 2
 350 624 l 1
 350 334 l 1
 451 334 l 2
 491 334 517 325 517 284 c 0
 517 244 488 234 451 234 c 2
 350 234 l 1
 350 100 l 1
 472 100 l 2
 507 100 538 92 538 50 c 0
 538 12 511 0 472 0 c 2
 128 0 l 2
 72 0 62 29 62 50 c 0
 62 91 89 100 128 100 c 2
 250 100 l 1
 250 234 l 1
 149 234 l 2
 112 234 83 243 83 284 c 0
EndSplineSet
Validated: 3073
EndChar

StartChar: uni019B
Encoding: 411 411 341
Width: 600
Flags: MW
LayerCount: 2
Fore
SplineSet
243 50 m 0
 243 9 214 0 177 0 c 2
 87 0 l 2
 49 0 21 15 21 50 c 0
 21 78 39 96 70 100 c 1
 241 432 l 1
 156 387 l 2
 148 384 140 382 132 382 c 0
 107 382 82 403 82 432 c 0
 82 450 92 467 109 476 c 2
 197 522 l 1
 196 524 l 1
 96 524 l 2
 59 524 30 533 30 574 c 0
 30 593 43 624 86 624 c 0
 89 624 92 624 96 624 c 2
 193 624 l 2
 246 624 269 598 285 568 c 1
 367 610 l 2
 374 614 382 616 390 616 c 0
 415 616 440 595 440 566 c 0
 440 548 430 531 413 522 c 2
 330 478 l 1
 527 100 l 1
 560 97 579 79 579 50 c 0
 579 9 550 0 513 0 c 2
 421 0 l 2
 383 0 354 15 354 50 c 0
 354 82 377 100 418 100 c 1
 298 323 l 1
 184 100 l 1
 222 99 243 81 243 50 c 0
EndSplineSet
Validated: 3073
EndChar

StartChar: uni019C
Encoding: 412 412 342
Width: 600
Flags: MW
LayerCount: 2
Fore
SplineSet
556 583 m 2
 592 583 623 572 623 533 c 0
 623 501 601 483 563 483 c 1
 563 100 l 1
 601 99 623 81 623 50 c 0
 623 15 596 0 556 0 c 2
 463 0 l 1
 463 24 l 1
 428 -4 408 -13 378 -13 c 0
 339 -13 306 3 276 36 c 1
 245 2 213 -13 172 -13 c 0
 97 -13 41 43 41 118 c 2
 41 483 l 1
 3 483 -19 501 -19 533 c 0
 -19 566 3 583 47 583 c 2
 141 583 l 1
 141 126 l 2
 141 97 150 87 176 87 c 0
 202 87 218 96 252 132 c 1
 252 483 l 1
 214 483 192 502 192 533 c 0
 192 574 223 583 258 583 c 2
 352 583 l 1
 352 126 l 2
 352 98 362 87 387 87 c 0
 414 87 433 98 463 132 c 1
 463 483 l 1
 424 483 402 501 402 533 c 0
 402 574 433 583 468 583 c 2
 556 583 l 2
EndSplineSet
Validated: 3073
EndChar

StartChar: uni019D
Encoding: 413 413 343
Width: 600
Flags: MW
LayerCount: 2
Fore
SplineSet
526 583 m 2
 561 583 592 575 592 533 c 0
 592 501 571 483 531 483 c 1
 531 0 l 1
 432 0 l 1
 173 394 l 1
 173 66 l 2
 173 -41 97 -123 -2 -123 c 0
 -79 -123 -124 -99 -124 -59 c 0
 -124 -32 -101 -9 -76 -9 c 0
 -62 -9 -42 -23 -5 -23 c 0
 41 -23 73 13 73 66 c 2
 73 483 l 1
 58 483 l 2
 21 483 -8 492 -8 533 c 0
 -8 574 19 583 58 583 c 2
 173 583 l 1
 431 191 l 1
 431 483 l 1
 396 483 l 2
 359 483 330 492 330 533 c 0
 330 574 357 583 396 583 c 2
 526 583 l 2
EndSplineSet
Validated: 3073
EndChar

StartChar: uni019E
Encoding: 414 414 344
Width: 600
Flags: MW
LayerCount: 2
Fore
SplineSet
23 50 m 0
 23 91 53 100 89 100 c 2
 95 100 l 1
 95 337 l 1
 56 338 34 355 34 387 c 0
 34 423 62 437 101 437 c 2
 195 437 l 1
 195 389 l 1
 243 435 277 450 332 450 c 0
 432 450 510 392 510 282 c 2
 510 -100 l 1
 549 -100 571 -118 571 -150 c 0
 571 -190 542 -200 505 -200 c 2
 416 -200 l 2
 371 -200 349 -183 349 -150 c 0
 349 -118 371 -100 410 -100 c 1
 410 278 l 2
 410 327 382 350 320 350 c 0
 274 350 242 333 195 282 c 1
 195 100 l 1
 201 100 l 2
 236 100 267 92 267 50 c 0
 267 9 236 0 201 0 c 2
 89 0 l 2
 50 0 23 12 23 50 c 0
EndSplineSet
Validated: 3073
EndChar

StartChar: uni019F
Encoding: 415 415 345
Width: 600
Flags: MW
LayerCount: 2
Fore
SplineSet
300 597 m 0
 359 597 579 550 579 287 c 0
 579 123 452 -14 300 -14 c 0
 146 -14 21 123 21 292 c 0
 21 460 146 597 300 597 c 0
476 329 m 1
 460 425 387 497 300 497 c 0
 213 497 139 424 124 329 c 1
 476 329 l 1
471 229 m 1
 130 229 l 1
 153 146 221 86 300 86 c 0
 379 86 447 147 471 229 c 1
EndSplineSet
Validated: 3073
EndChar

StartChar: Ohorn
Encoding: 416 416 346
Width: 600
Flags: MW
LayerCount: 2
Fore
SplineSet
300 497 m 0
 202 497 121 404 121 292 c 0
 121 179 202 86 300 86 c 0
 397 86 479 179 479 289 c 0
 479 404 399 497 300 497 c 0
524 664 m 0
 555 664 601 618 601 559 c 0
 601 508 570 477 533 462 c 1
 564 413 579 354 579 287 c 0
 579 123 452 -14 300 -14 c 0
 146 -14 21 123 21 292 c 0
 21 460 146 597 300 597 c 0
 352 597 403 581 448 550 c 1
 456 550 l 2
 495 550 501 554 501 559 c 8
 501 573 472 579 472 613 c 0
 472 643 497 664 524 664 c 0
EndSplineSet
Validated: 3073
EndChar

StartChar: ohorn
Encoding: 417 417 347
Width: 600
Flags: MW
LayerCount: 2
Fore
SplineSet
302 350 m 0
 211 350 142 293 142 217 c 0
 142 142 211 84 300 84 c 0
 389 84 458 142 458 217 c 0
 458 291 389 350 302 350 c 0
526 520 m 0
 557 520 603 474 603 415 c 0
 603 364 571 333 533 317 c 1
 549 287 558 253 558 217 c 0
 558 87 444 -16 300 -16 c 0
 156 -16 42 87 42 217 c 0
 42 349 155 450 303 450 c 0
 359 450 410 434 452 406 c 1
 458 406 l 2
 497 406 503 410 503 415 c 8
 503 429 474 435 474 469 c 0
 474 499 499 520 526 520 c 0
EndSplineSet
Validated: 3073
EndChar

StartChar: uni01A2
Encoding: 418 418 348
Width: 600
Flags: MW
LayerCount: 2
Fore
SplineSet
103 325 m 2
 103 257 l 2
 103 153 149 85 220 85 c 0
 291 85 337 153 337 257 c 2
 337 325 l 2
 337 429 291 497 220 497 c 0
 149 497 103 429 103 325 c 2
407 50 m 0
 407 91 437 100 473 100 c 2
 480 100 l 1
 480 458 l 2
 480 524 461 528 450 528 c 0
 424 528 406 513 391 500 c 1
 421 451 437 387 437 318 c 2
 437 264 l 2
 437 120 369 -15 220 -15 c 0
 70 -15 3 121 3 264 c 2
 3 318 l 2
 3 462 71 597 220 597 c 0
 258 597 292 588 321 572 c 1
 349 596 393 628 458 628 c 0
 544 628 580 548 580 458 c 2
 580 100 l 1
 585 100 l 2
 620 100 651 92 651 50 c 0
 651 9 620 0 585 0 c 2
 473 0 l 2
 434 0 407 12 407 50 c 0
EndSplineSet
Validated: 3073
EndChar

StartChar: uni01A3
Encoding: 419 419 349
Width: 600
Flags: MW
LayerCount: 2
Fore
SplineSet
206 350 m 0
 114 348 70 296 67 217 c 0
 69 139 116 86 204 84 c 0
 292 86 339 139 341 217 c 0
 339 294 291 349 206 350 c 0
407 50 m 0
 407 91 437 100 473 100 c 2
 479 100 l 1
 479 358 l 2
 479 384 472 386 458 386 c 0
 446 386 l 0
 422 386 402 382 388 366 c 1
 422 325 441 273 441 217 c 0
 441 216 441 215 441 213 c 0
 441 89 342 -16 208 -16 c 0
 207 -16 205 -16 204 -16 c 0
 203 -16 201 -16 200 -16 c 0
 66 -16 -33 89 -33 213 c 0
 -33 215 -33 216 -33 217 c 0
 -33 218 -33 219 -33 221 c 0
 -33 345 65 450 200 450 c 0
 206 450 l 0
 244 450 279 442 310 428 c 1
 336 454 360 486 446 486 c 0
 522 486 579 431 579 358 c 2
 579 100 l 1
 585 100 l 2
 620 100 651 92 651 50 c 0
 651 9 620 0 585 0 c 2
 473 0 l 2
 434 0 407 12 407 50 c 0
EndSplineSet
Validated: 3073
EndChar

StartChar: uni01A4
Encoding: 420 420 350
Width: 600
Flags: MW
LayerCount: 2
Fore
SplineSet
194 483 m 1
 194 300 l 1
 312 300 l 2
 381 300 423 335 423 391 c 0
 423 448 381 483 312 483 c 2
 194 483 l 1
13 50 m 0
 13 91 42 100 79 100 c 2
 94 100 l 1
 94 483 l 1
 62 483 l 2
 23 483 17 479 17 474 c 8
 17 460 46 454 46 420 c 0
 46 390 21 369 -6 369 c 0
 -37 369 -83 415 -83 474 c 0
 -83 559 4 583 62 583 c 2
 312 583 l 2
 439 583 529 505 529 394 c 0
 529 312 482 200 292 200 c 2
 194 200 l 1
 194 100 l 1
 293 100 l 2
 328 100 359 92 359 50 c 0
 359 12 332 0 293 0 c 2
 79 0 l 2
 23 0 13 29 13 50 c 0
EndSplineSet
Validated: 3073
EndChar

StartChar: uni01A5
Encoding: 421 421 351
Width: 600
Flags: MW
LayerCount: 2
Fore
SplineSet
174 231 m 0
 174 160 235 110 323 110 c 0
 409 110 471 160 471 230 c 0
 471 263 452 300 423 321 c 0
 397 341 364 350 323 350 c 0
 281 350 248 341 222 321 c 0
 193 300 174 263 174 231 c 0
320 524 m 0
 295 524 290 538 247 538 c 0
 207 538 174 501 174 456 c 2
 174 392 l 1
 223 434 265 450 327 450 c 0
 467 450 571 353 571 224 c 0
 571 101 468 10 329 10 c 0
 270 10 226 26 174 66 c 1
 174 -100 l 1
 232 -100 l 2
 272 -100 298 -109 298 -150 c 0
 298 -190 268 -200 232 -200 c 2
 58 -200 l 2
 21 -200 -8 -191 -8 -150 c 0
 -8 -109 21 -100 58 -100 c 2
 74 -100 l 1
 74 459 l 2
 74 558 152 638 248 638 c 0
 323 638 368 615 368 577 c 0
 368 547 347 524 320 524 c 0
EndSplineSet
Validated: 3073
EndChar

StartChar: uni01A6
Encoding: 422 422 352
Width: 600
Flags: MW
LayerCount: 2
Fore
SplineSet
207 337 m 1
 207 251 l 1
 289 251 l 2
 373 251 390 258 390 294 c 0
 390 316 389 337 325 337 c 2
 207 337 l 1
284 50 m 0
 284 10 254 0 218 0 c 2
 91 0 l 2
 54 0 25 9 25 50 c 0
 25 91 54 100 91 100 c 2
 107 100 l 1
 107 483 l 1
 89 483 l 2
 52 483 23 492 23 533 c 0
 23 574 50 583 89 583 c 2
 213 583 l 2
 251 583 279 574 279 533 c 0
 279 492 250 483 213 483 c 2
 207 483 l 1
 207 437 l 1
 321 437 l 2
 451 437 496 362 496 291 c 0
 494 240 474 202 426 183 c 1
 470 100 486 -23 496 -100 c 1
 508 -100 l 2
 547 -100 574 -110 574 -150 c 0
 574 -187 547 -200 508 -200 c 2
 421 -200 l 1
 404 -91 380 94 329 151 c 1
 207 151 l 1
 207 100 l 17
 218 100 l 2
 258 100 284 91 284 50 c 0
EndSplineSet
Validated: 3073
EndChar

StartChar: uni01A8
Encoding: 424 424 353
Width: 600
Flags: MW
LayerCount: 2
Fore
SplineSet
94 347 m 2
 94 384 l 2
 94 430 109 450 141 450 c 0
 156 450 165 443 173 424 c 1
 212 442 253 450 302 450 c 0
 422 450 508 393 508 313 c 0
 508 234 449 194 309 179 c 0
 279 176 183 169 183 127 c 0
 183 104 236 84 300 84 c 0
 354 84 396 97 425 123 c 1
 434 153 450 167 476 167 c 0
 518 167 527 137 527 100 c 2
 527 67 l 2
 527 32 519 1 476 1 c 0
 463 1 455 4 444 13 c 1
 404 -6 353 -16 296 -16 c 0
 167 -16 73 43 73 125 c 0
 73 171 99 214 143 238 c 0
 228 286 398 269 398 315 c 0
 398 333 350 350 299 350 c 0
 167 350 201 281 144 281 c 0
 103 281 94 309 94 347 c 2
EndSplineSet
Validated: 3073
EndChar

StartChar: uni01A9
Encoding: 425 425 354
Width: 600
Flags: MW
LayerCount: 2
Fore
SplineSet
477 238 m 0
 518 238 527 211 527 172 c 2
 527 0 l 1
 73 0 l 1
 73 100 l 1
 225 293 l 1
 73 486 l 1
 73 583 l 1
 527 583 l 1
 527 413 l 2
 527 376 517 347 477 347 c 0
 435 347 427 378 427 413 c 2
 427 483 l 1
 202 483 l 1
 352 293 l 1
 201 100 l 1
 427 100 l 1
 427 172 l 2
 427 210 436 238 477 238 c 0
EndSplineSet
Validated: 3073
EndChar

StartChar: uni01AB
Encoding: 427 427 355
Width: 600
Flags: MW
LayerCount: 2
Fore
SplineSet
280 -86 m 0
 294 -86 314 -100 351 -100 c 0
 397 -100 429 -67 429 -14 c 2
 429 5 l 1
 386 -8 336 -16 299 -16 c 0
 185 -16 114 37 114 122 c 2
 114 337 l 1
 79 337 l 2
 42 337 13 347 13 387 c 0
 13 428 40 437 79 437 c 2
 114 437 l 1
 114 525 l 2
 114 560 122 591 164 591 c 0
 205 591 214 564 214 525 c 2
 214 437 l 1
 395 437 l 2
 402 437 408 437 412 437 c 0
 442 437 461 415 461 387 c 0
 461 347 432 337 395 337 c 2
 214 337 l 1
 214 141 l 2
 214 103 226 84 300 84 c 0
 414 84 446 129 481 129 c 0
 508 129 529 106 529 78 c 2
 529 -14 l 2
 529 -121 453 -200 354 -200 c 0
 277 -200 232 -176 232 -136 c 0
 232 -109 255 -86 280 -86 c 0
EndSplineSet
Validated: 3073
EndChar

StartChar: uni01AC
Encoding: 428 428 356
Width: 600
Flags: MW
LayerCount: 2
Fore
SplineSet
118 50 m 0
 118 91 145 100 184 100 c 2
 249 100 l 1
 249 483 l 1
 142 483 l 2
 104 483 97 479 97 474 c 8
 97 459 126 454 126 420 c 0
 126 390 101 369 74 369 c 0
 45 369 -3 413 -3 474 c 0
 -3 559 82 583 142 583 c 2
 558 583 l 1
 558 390 l 2
 558 352 550 324 508 324 c 0
 467 324 458 355 458 390 c 2
 458 483 l 1
 349 483 l 1
 349 100 l 1
 415 100 l 2
 450 100 481 92 481 50 c 0
 481 12 454 0 415 0 c 2
 184 0 l 2
 128 0 118 30 118 50 c 0
EndSplineSet
Validated: 3073
EndChar

StartChar: uni01AD
Encoding: 429 429 357
Width: 600
Flags: MW
LayerCount: 2
Fore
SplineSet
13 387 m 0
 13 428 40 437 79 437 c 2
 114 437 l 1
 114 459 l 2
 114 558 192 638 288 638 c 0
 363 638 408 615 408 577 c 0
 408 547 387 524 360 524 c 0
 335 524 330 538 287 538 c 0
 247 538 214 501 214 456 c 2
 214 437 l 1
 395 437 l 2
 402 437 408 437 412 437 c 0
 442 437 461 415 461 387 c 0
 461 347 432 337 395 337 c 2
 214 337 l 1
 214 141 l 2
 214 103 226 84 300 84 c 0
 414 84 446 129 481 129 c 0
 508 129 529 106 529 78 c 0
 529 18 375 -16 299 -16 c 0
 185 -16 114 37 114 122 c 2
 114 337 l 1
 79 337 l 2
 42 337 13 347 13 387 c 0
EndSplineSet
Validated: 3073
EndChar

StartChar: uni01AE
Encoding: 430 430 358
Width: 600
Flags: MW
LayerCount: 2
Fore
SplineSet
508 324 m 0
 467 324 458 355 458 390 c 2
 458 483 l 1
 349 483 l 1
 349 66 l 2
 349 13 381 -23 427 -23 c 0
 465 -23 484 -9 498 -9 c 0
 523 -9 546 -32 546 -59 c 0
 546 -99 501 -123 424 -123 c 0
 325 -123 249 -41 249 66 c 2
 249 483 l 1
 142 483 l 1
 142 390 l 2
 142 355 134 324 92 324 c 0
 52 324 42 353 42 390 c 2
 42 583 l 1
 558 583 l 1
 558 390 l 2
 558 352 550 324 508 324 c 0
EndSplineSet
Validated: 3073
EndChar

StartChar: Uhorn
Encoding: 431 431 359
Width: 600
Flags: MW
LayerCount: 2
Fore
SplineSet
592 697 m 0
 623 697 669 651 669 592 c 0
 669 513 594 483 537 483 c 0
 534 483 532 483 529 483 c 1
 529 205 l 2
 529 72 419 -14 300 -14 c 0
 180 -14 71 74 71 205 c 2
 71 483 l 1
 31 484 10 501 10 533 c 0
 10 574 37 583 76 583 c 2
 206 583 l 2
 242 583 272 577 272 533 c 0
 272 492 243 483 206 483 c 2
 171 483 l 1
 171 196 l 2
 171 135 229 86 300 86 c 0
 371 86 429 135 429 196 c 2
 429 483 l 1
 394 483 l 2
 359 483 328 491 328 533 c 0
 328 574 355 583 394 583 c 2
 524 583 l 2
 563 583 569 587 569 592 c 8
 569 606 540 612 540 646 c 0
 540 676 565 697 592 697 c 0
EndSplineSet
Validated: 3073
EndChar

StartChar: uhorn
Encoding: 432 432 360
Width: 600
Flags: MW
LayerCount: 2
Fore
SplineSet
571 50 m 0
 571 9 540 0 505 0 c 2
 410 0 l 1
 410 48 l 1
 360 1 328 -13 273 -13 c 0
 172 -13 95 46 95 156 c 2
 95 337 l 1
 68 337 l 2
 35 337 13 358 13 387 c 0
 13 428 40 437 79 437 c 2
 195 437 l 1
 195 159 l 2
 195 110 223 87 283 87 c 0
 333 87 358 100 410 155 c 1
 410 337 l 1
 375 337 l 2
 371 337 368 337 365 337 c 0
 320 337 309 368 309 387 c 0
 309 428 338 437 375 437 c 2
 510 437 l 2
 549 437 555 441 555 446 c 8
 555 460 526 466 526 500 c 0
 526 530 551 551 578 551 c 0
 609 551 655 505 655 446 c 0
 655 361 568 337 510 337 c 1
 510 100 l 1
 549 100 571 82 571 50 c 0
EndSplineSet
Validated: 3073
EndChar

StartChar: uni01B3
Encoding: 435 435 361
Width: 600
Flags: MW
LayerCount: 2
Fore
SplineSet
17 369 m 0
 -14 369 -60 415 -60 474 c 0
 -60 559 27 583 85 583 c 2
 177 583 l 2
 216 583 243 573 243 533 c 0
 243 510 231 495 205 484 c 1
 300 348 l 1
 394 484 l 1
 367 494 354 510 354 533 c 0
 354 576 384 583 421 583 c 2
 513 583 l 2
 551 583 579 574 579 533 c 0
 579 504 555 483 524 483 c 0
 521 483 519 483 516 483 c 2
 514 483 l 1
 350 245 l 1
 350 100 l 1
 415 100 l 2
 453 100 482 91 482 50 c 0
 482 10 452 0 415 0 c 2
 185 0 l 2
 146 0 118 12 118 50 c 0
 118 94 150 100 185 100 c 2
 250 100 l 1
 250 245 l 1
 85 483 l 1
 46 483 40 479 40 474 c 8
 40 460 69 454 69 420 c 0
 69 390 44 369 17 369 c 0
EndSplineSet
Validated: 3073
EndChar

StartChar: uni01B4
Encoding: 436 436 362
Width: 600
Flags: MW
LayerCount: 2
Fore
SplineSet
177 437 m 2
 215 437 243 428 243 387 c 0
 243 356 222 338 184 337 c 1
 298 114 l 1
 418 337 l 1
 377 337 354 355 354 387 c 0
 354 423 382 437 421 437 c 2
 527 437 l 2
 566 437 572 441 572 446 c 8
 572 469.905 543 466 543 500 c 0
 543 530 568 551 595 551 c 0
 626 551 672 505 672 446 c 0
 672 367 597 336 540 336 c 0
 535 336 531 337 527 337 c 1
 297 -100 l 1
 302 -100 l 2
 340 -100 368 -109 368 -150 c 0
 368 -190 338 -200 302 -200 c 2
 87 -200 l 2
 83 -200 80 -200 77 -200 c 0
 32 -200 21 -169 21 -150 c 0
 21 -109 50 -100 87 -100 c 2
 187 -100 l 1
 242 3 l 1
 70 337 l 1
 39 341 21 359 21 387 c 0
 21 422 50 437 87 437 c 2
 177 437 l 2
EndSplineSet
Validated: 3073
EndChar

StartChar: uni01B5
Encoding: 437 437 363
Width: 600
Flags: MW
LayerCount: 2
Fore
SplineSet
481 284 m 0
 481 244 452 234 415 234 c 2
 306 234 l 1
 201 100 l 1
 427 100 l 1
 427 124 l 2
 427 162 436 190 477 190 c 0
 518 190 527 163 527 124 c 2
 527 0 l 1
 73 0 l 1
 73 100 l 1
 179 234 l 1
 145 234 l 2
 108 234 79 243 79 284 c 0
 79 325 108 334 145 334 c 2
 258 334 l 1
 375 483 l 1
 196 483 l 1
 196 461 l 2
 196 426 188 395 146 395 c 0
 106 395 96 424 96 461 c 2
 96 583 l 1
 504 583 l 1
 504 486 l 1
 385 334 l 1
 415 334 l 2
 455 334 481 325 481 284 c 0
EndSplineSet
Validated: 3073
EndChar

StartChar: uni01B6
Encoding: 438 438 364
Width: 600
Flags: MW
LayerCount: 2
Fore
SplineSet
453 204 m 0
 453 164 424 154 387 154 c 2
 299 154 l 1
 244 100 l 1
 419 100 l 1
 421 135 439 154 469 154 c 0
 510 154 519 127 519 88 c 2
 519 0 l 1
 85 0 l 1
 85 83 l 1
 159 155 l 1
 135 159 119 181 119 204 c 0
 119 245 148 254 185 254 c 2
 261 254 l 1
 346 337 l 1
 197 337 l 1
 197 328 l 2
 197 293 189 262 147 262 c 0
 107 262 97 291 97 328 c 2
 97 437 l 1
 506 437 l 1
 506 356 l 1
 401 254 l 1
 438 252 453 231 453 204 c 0
EndSplineSet
Validated: 3073
EndChar

StartChar: uni01B7
Encoding: 439 439 365
Width: 600
Flags: MW
LayerCount: 2
Fore
SplineSet
146 395 m 0
 106 395 96 424 96 461 c 2
 96 583 l 1
 504 583 l 1
 504 486 l 1
 385 334 l 1
 387 334 390 334 392 334 c 0
 494 334 563 248 563 154 c 0
 563 7 423 -50 314 -50 c 0
 199 -50 100 10 54 68 c 0
 47 77 44 87 44 98 c 0
 44 108 52 148 94 148 c 0
 135 148 184 50 314 50 c 0
 401 50 463 84 463 154 c 0
 463 208 440 234 384 234 c 2
 258 234 l 2
 230 234 208 256 208 284 c 0
 208 312 230 334 258 334 c 1
 375 483 l 1
 196 483 l 1
 196 461 l 2
 196 426 188 395 146 395 c 0
EndSplineSet
Validated: 3073
EndChar

StartChar: uni01B8
Encoding: 440 440 366
Width: 600
Flags: MW
LayerCount: 2
Fore
SplineSet
461 395 m 0
 419 395 411 426 411 461 c 2
 411 483 l 1
 232 483 l 1
 349 334 l 1
 377 334 399 312 399 284 c 0
 399 256 377 234 349 234 c 2
 223 234 l 2
 167 234 144 208 144 154 c 0
 144 84 206 50 293 50 c 0
 423 50 472 148 513 148 c 0
 555 148 563 108 563 98 c 0
 563 87 560 77 553 68 c 0
 507 10 408 -50 293 -50 c 0
 184 -50 44 7 44 154 c 0
 44 248 113 334 215 334 c 0
 217 334 220 334 222 334 c 1
 103 486 l 1
 103 583 l 1
 511 583 l 1
 511 461 l 2
 511 424 501 395 461 395 c 0
EndSplineSet
Validated: 3073
EndChar

StartChar: uni01BB
Encoding: 443 443 367
Width: 600
Flags: MW
LayerCount: 2
Fore
SplineSet
74 430 m 0
 74 500 160 598 290 598 c 0
 412 598 503 515 503 404 c 0
 503 372 499 348 490 327 c 1
 505 318 513 301 513 284 c 0
 513 244 484 234 447 234 c 2
 403 234 l 1
 343 187 277 145 215 100 c 1
 424 100 l 1
 427 136 443 154 474 154 c 0
 515 154 524 125 524 88 c 2
 524 0 l 1
 54 0 l 1
 54 105 l 1
 234 234 l 1
 177 234 l 2
 140 234 111 243 111 284 c 0
 111 325 140 334 177 334 c 2
 364 334 l 1
 393 360 403 378 403 408 c 0
 403 458 353 498 288 498 c 0
 153 498 195 382 124 382 c 0
 97 382 74 404 74 430 c 0
EndSplineSet
Validated: 3073
EndChar

StartChar: uni01C1
Encoding: 449 449 369
Width: 600
Flags: MW
LayerCount: 2
Fore
SplineSet
396 622 m 0
 437 622 446 593 446 556 c 2
 446 -87 l 2
 446 -124 436 -153 396 -153 c 0
 356 -153 346 -123 346 -87 c 2
 346 556 l 2
 346 594 355 622 396 622 c 0
204 622 m 0
 245 622 254 593 254 556 c 2
 254 -87 l 2
 254 -124 244 -153 204 -153 c 0
 164 -153 154 -123 154 -87 c 2
 154 556 l 2
 154 594 163 622 204 622 c 0
EndSplineSet
Validated: 3073
EndChar

StartChar: uni01C7
Encoding: 455 455 371
Width: 600
Flags: MW
LayerCount: 2
Fore
SplineSet
598 533 m 0
 598 505 578 483 546 483 c 9
 546 187 l 2
 546 121 531 74 505 42 c 0
 486 19 441 -14 396 -14 c 0
 370 -14 352 -9 323 0 c 1
 68 0 l 2
 12 0 2 29 2 50 c 0
 2 69 11 100 61 100 c 1
 61 483 l 17
 13 483 2 512 2 533 c 0
 2 574 29 583 68 583 c 2
 167 583 l 2
 202 583 233 575 233 533 c 0
 233 492 204 483 167 483 c 2
 161 483 l 1
 161 100 l 1
 235 100 l 1
 235 203 l 2
 235 241 244 270 285 270 c 0
 328 270 335 240 335 203 c 2
 335 117 l 1
 349 92 369 86 389 86 c 0
 412 86 427 100 436 112 c 0
 445 124 446 144 446 178 c 0
 446 184 446 191 446 198 c 2
 446 483 l 1
 427 483 l 2
 390 483 361 492 361 533 c 0
 361 574 388 583 427 583 c 2
 532 583 l 2
 567 583 598 575 598 533 c 0
EndSplineSet
Validated: 3073
EndChar

StartChar: uni01C9
Encoding: 457 457 372
Width: 600
Flags: MW
LayerCount: 2
Fore
SplineSet
452 337 m 1
 360 337 l 2
 335 337 324 339 315 347 c 1
 302 356 294 372 294 387 c 0
 294 404 303 421 318 430 c 0
 327 436 334 437 360 437 c 2
 552 437 l 1
 552 -15 l 2
 552 -120 470 -200 361 -200 c 2
 247 -200 l 2
 222 -200 211 -198 202 -190 c 1
 189 -181 181 -165 181 -150 c 0
 181 -133 191 -116 205 -107 c 0
 214 -101 222 -100 247 -100 c 2
 358 -100 l 2
 415 -100 452 -67 452 -15 c 2
 452 337 l 1
499 623 m 1
 499 518 l 1
 380 518 l 1
 380 623 l 1
 499 623 l 1
254 624 m 1
 254 100 l 1
 316 100 l 2
 343 100 351 98 361 91 c 0
 374 81 382 66 382 50 c 0
 382 33 373 17 358 7 c 0
 351 3 336 0 316 0 c 2
 92 0 l 2
 69 0 55 3 47 10 c 0
 34 19 26 35 26 50 c 0
 26 67 35 84 50 93 c 0
 59 99 66 100 92 100 c 2
 154 100 l 1
 154 524 l 1
 108 524 l 2
 83 524 71 526 62 534 c 1
 48 543 41 558 41 574 c 0
 41 592 50 608 65 617 c 0
 74 623 83 624 108 624 c 2
 254 624 l 1
EndSplineSet
Validated: 3073
EndChar

StartChar: uni01CB
Encoding: 459 459 373
Width: 600
Flags: MW
LayerCount: 2
Fore
SplineSet
575 623 m 1
 575 518 l 1
 467 518 l 1
 467 623 l 1
 575 623 l 1
212 -150 m 0
 212 -107 243 -100 278 -100 c 2
 389 -100 l 2
 446 -100 483 -67 483 -15 c 2
 483 337 l 17
 447 337 426 360 426 387 c 0
 426 428 453 437 492 437 c 2
 583 437 l 1
 583 -15 l 2
 583 -120 501 -200 392 -200 c 2
 278 -200 l 2
 240 -200 212 -188 212 -150 c 0
363 583 m 2
 398 583 429 575 429 533 c 0
 429 501 410 484 380 483 c 1
 380 0 l 1
 281 0 l 1
 166 314 l 1
 166 100 l 17
 215 100 224 70 224 50 c 0
 224 12 197 0 158 0 c 2
 76 0 l 2
 37 0 9 12 9 50 c 0
 9 82 34 100 66 100 c 1
 66 483 l 17
 16 483 7 514 7 533 c 0
 7 574 34 583 73 583 c 2
 166 583 l 1
 280 271 l 1
 280 483 l 17
 229 483 220 513 220 533 c 0
 220 574 247 583 286 583 c 2
 363 583 l 2
EndSplineSet
Validated: 3073
EndChar

StartChar: uni01CC
Encoding: 460 460 374
Width: 600
Flags: MW
LayerCount: 2
Fore
SplineSet
560 623 m 1
 560 518 l 1
 441 518 l 1
 441 623 l 1
 560 623 l 1
197 -150 m 0
 197 -107 228 -100 263 -100 c 2
 374 -100 l 2
 431 -100 468 -67 468 -15 c 2
 468 337 l 1
 447 337 l 2
 409 337 381 349 381 387 c 0
 381 428 408 437 447 437 c 2
 568 437 l 1
 568 -15 l 2
 568 -120 486 -200 377 -200 c 2
 263 -200 l 2
 225 -200 197 -188 197 -150 c 0
260 0 m 25
 260 278 l 1
 260 327 258 350 227 350 c 0
 184 350 169 313 169 282 c 1
 169 100 l 17
 196 100 204 98 214 91 c 0
 227 81 235 66 235 50 c 0
 235 33 226 17 211 7 c 0
 203 2 190 0 169 0 c 2
 69 0 l 2
 45 0 33 3 23 10 c 0
 11 19 3 35 3 50 c 0
 3 67 12 84 27 93 c 0
 36 98 44 100 69 100 c 1
 69 337 l 1
 30 338 8 355 8 387 c 0
 8 423 36 437 75 437 c 2
 169 437 l 1
 169 389 l 1
 180 429 219 450 248 450 c 0
 325 450 360 392 360 282 c 2
 360 100 l 1
 399 100 421 82 421 50 c 0
 421 33 412 16 397 7 c 0
 389 2 376 0 355 0 c 2
 260 0 l 25
EndSplineSet
Validated: 3073
EndChar

StartChar: uni01D5
Encoding: 469 469 381
Width: 600
Flags: M
LayerCount: 2
Fore
SplineSet
529 205 m 2
 529 72 419 -14 300 -14 c 0
 180 -14 71 74 71 205 c 2
 71 405 l 1
 31 406 10 423 10 455 c 0
 10 496 37 505 76 505 c 2
 206 505 l 2
 242 505 272 499 272 455 c 0
 272 414 243 405 206 405 c 2
 171 405 l 1
 171 196 l 2
 171 135 229 86 300 86 c 0
 371 86 429 135 429 196 c 2
 429 405 l 1
 394 405 l 2
 359 405 328 413 328 455 c 0
 328 496 355 505 394 505 c 2
 524 505 l 2
 564 505 590 496 590 455 c 0
 590 423 569 405 529 405 c 1
 529 205 l 2
196 666 m 0
 230 666 256 639 256 605 c 0
 256 573 229 546 196 546 c 0
 163 546 136 573 136 606 c 0
 136 639 163 666 196 666 c 0
404 666 m 0
 438 666 464 639 464 605 c 0
 464 573 437 546 404 546 c 0
 371 546 344 573 344 606 c 0
 344 639 371 666 404 666 c 0
178 720 m 2
 148 720 125 727 125 760 c 0
 125 785 144 800 178 800 c 2
 422 800 l 2
 452 800 475 793 475 760 c 0
 475 735 455 720 422 720 c 2
 178 720 l 2
EndSplineSet
Validated: 3073
EndChar

StartChar: uni01D7
Encoding: 471 471 383
Width: 600
Flags: M
LayerCount: 2
Fore
SplineSet
529 205 m 2
 529 72 419 -14 300 -14 c 0
 180 -14 71 74 71 205 c 2
 71 405 l 1
 31 406 10 423 10 455 c 0
 10 496 37 505 76 505 c 2
 206 505 l 2
 242 505 272 499 272 455 c 0
 272 414 243 405 206 405 c 2
 171 405 l 1
 171 196 l 2
 171 135 229 86 300 86 c 0
 371 86 429 135 429 196 c 2
 429 405 l 1
 394 405 l 2
 359 405 328 413 328 455 c 0
 328 496 355 505 394 505 c 2
 524 505 l 2
 564 505 590 496 590 455 c 0
 590 423 569 405 529 405 c 1
 529 205 l 2
196 661 m 0
 230 661 256 634 256 600 c 0
 256 568 229 541 196 541 c 0
 163 541 136 568 136 601 c 0
 136 634 163 661 196 661 c 0
404 661 m 0
 438 661 464 634 464 600 c 0
 464 568 437 541 404 541 c 0
 371 541 344 568 344 601 c 0
 344 634 371 661 404 661 c 0
400 728 m 2
 332 681 l 2
 316.196 670.076 310 665 300 665 c 0
 280 665 263 682 263 701 c 0
 263 714 268.926 726.449 286 738 c 2
 354 784 l 2
 370 797 375 800 386 800 c 0
 407 800 423 784 423 763 c 0
 423 751 417.489 740.088 400 728 c 2
EndSplineSet
Validated: 3073
EndChar

StartChar: uni01D9
Encoding: 473 473 385
Width: 600
Flags: M
LayerCount: 2
Fore
SplineSet
302 723 m 1
 414 785 l 2
 426.437 791.885 434 798 443 798 c 0
 461 798 477 781 477 763 c 0
 477 752 473 744 462 735 c 0
 302 634 l 1
 150 728 l 2
 128.185 741.491 126 749.25 126 763 c 0
 126 781 142 798 161 798 c 0
 170 798 176.538 791.838 189 785 c 2
 302 723 l 1
529 205 m 2
 529 72 419 -14 300 -14 c 0
 180 -14 71 74 71 205 c 2
 71 405 l 1
 31 406 10 423 10 455 c 0
 10 496 37 505 76 505 c 2
 206 505 l 2
 242 505 272 499 272 455 c 0
 272 414 243 405 206 405 c 2
 171 405 l 1
 171 196 l 2
 171 135 229 86 300 86 c 0
 371 86 429 135 429 196 c 2
 429 405 l 1
 394 405 l 2
 359 405 328 413 328 455 c 0
 328 496 355 505 394 505 c 2
 524 505 l 2
 564 505 590 496 590 455 c 0
 590 423 569 405 529 405 c 1
 529 205 l 2
171 660 m 0
 205 660 231 633 231 599 c 0
 231 567 204 540 171 540 c 0
 138 540 111 567 111 600 c 0
 111 633 138 660 171 660 c 0
432 660 m 0
 466 660 492 633 492 599 c 0
 492 567 465 540 432 540 c 0
 399 540 372 567 372 600 c 0
 372 633 399 660 432 660 c 0
EndSplineSet
Validated: 3073
EndChar

StartChar: uni01DA
Encoding: 474 474 386
Width: 600
Flags: M
LayerCount: 2
Fore
SplineSet
302 712 m 1
 414 774 l 2
 426.437 780.885 434 787 443 787 c 0
 461 787 477 770 477 752 c 0
 477 741 473 733 462 724 c 0
 302 623 l 1
 150 717 l 2
 126.842 731.321 126 738 126 752 c 0
 126 770 142 787 161 787 c 0
 170 787 176.538 780.838 189 774 c 2
 302 712 l 1
365 337 m 0
 320 337 309 368 309 387 c 0
 309 428 338 437 375 437 c 2
 510 437 l 1
 510 100 l 1
 549 100 571 82 571 50 c 0
 571 9 540 0 505 0 c 2
 410 0 l 1
 410 48 l 1
 360 1 328 -13 273 -13 c 0
 172 -13 95 46 95 156 c 2
 95 337 l 1
 68 337 l 2
 35 337 13 358 13 387 c 0
 13 428 40 437 79 437 c 2
 195 437 l 1
 195 159 l 2
 195 110 223 87 283 87 c 0
 333 87 358 100 410 155 c 1
 410 337 l 1
 375 337 l 2
 371 337 368 337 365 337 c 0
190.5 604 m 0
 224.5 604 250.5 577 250.5 543 c 0
 250.5 511 223.5 484 190.5 484 c 0
 157.5 484 130.5 511 130.5 544 c 0
 130.5 577 157.5 604 190.5 604 c 0
398.5 604 m 0
 432.5 604 458.5 577 458.5 543 c 0
 458.5 511 431.5 484 398.5 484 c 0
 365.5 484 338.5 511 338.5 544 c 0
 338.5 577 365.5 604 398.5 604 c 0
EndSplineSet
Validated: 3073
EndChar

StartChar: uni01DB
Encoding: 475 475 387
Width: 600
Flags: M
LayerCount: 2
Fore
SplineSet
232 784 m 2
 327 703 l 2
 342.687 689.625 350 679 350 666 c 0
 350 647 333 630 313 630 c 0
 303 630 295.544 633.446 281 646 c 2
 186 728 l 1
 169 741 163 751 163 764 c 0
 163 784 179 800 200 800 c 0
 211 800 216 797 232 784 c 2
529 205 m 2
 529 72 419 -14 300 -14 c 0
 180 -14 71 74 71 205 c 2
 71 405 l 1
 31 406 10 423 10 455 c 0
 10 496 37 505 76 505 c 2
 206 505 l 2
 242 505 272 499 272 455 c 0
 272 414 243 405 206 405 c 2
 171 405 l 1
 171 196 l 2
 171 135 229 86 300 86 c 0
 371 86 429 135 429 196 c 2
 429 405 l 1
 394 405 l 2
 359 405 328 413 328 455 c 0
 328 496 355 505 394 505 c 2
 524 505 l 2
 564 505 590 496 590 455 c 0
 590 423 569 405 529 405 c 1
 529 205 l 2
162 651 m 0
 196 651 222 624 222 590 c 0
 222 558 195 531 162 531 c 0
 129 531 102 558 102 591 c 0
 102 624 129 651 162 651 c 0
444 651 m 0
 478 651 504 624 504 590 c 0
 504 558 477 531 444 531 c 0
 411 531 384 558 384 591 c 0
 384 624 411 651 444 651 c 0
EndSplineSet
Validated: 3073
EndChar

StartChar: uni01DE
Encoding: 478 478 390
Width: 600
Flags: M
LayerCount: 2
Fore
SplineSet
350 42.5 m 0
 350 77.3496 377 85 416 85 c 2
 439 85 l 1
 416 134.3 l 1
 178 134.3 l 1
 155 85 l 1
 178 85 l 2
 213 85 244 78.2002 244 42.5 c 0
 244 8.5 215 0 178 0 c 2
 45 0 l 2
 1 0 -21 14.4502 -21 42.5 c 0
 -21 79.0498 9 85 46 85 c 1
 201 410.55 l 1
 138 410.55 l 2
 102 410.55 71 417.35 71 453.05 c 0
 71 489.6 101 495.55 138 495.55 c 2
 354 495.55 l 1
 553 85 l 1
 589 85 621 78.2002 621 42.5 c 0
 621 8.5 592 0 555 0 c 2
 416 0 l 2
 360 0 350 24.6504 350 42.5 c 0
375 219.3 m 1
 297 382.5 l 1
 218 219.3 l 1
 375 219.3 l 1
180 669 m 0
 214 669 240 642 240 608 c 0
 240 576 213 549 180 549 c 0
 147 549 120 576 120 609 c 0
 120 642 147 669 180 669 c 0
388 669 m 0
 422 669 448 642 448 608 c 0
 448 576 421 549 388 549 c 0
 355 549 328 576 328 609 c 0
 328 642 355 669 388 669 c 0
161 720 m 2
 131 720 108 727 108 760 c 0
 108 785 127 800 161 800 c 2
 405 800 l 2
 435 800 458 793 458 760 c 0
 458 735 438 720 405 720 c 2
 161 720 l 2
EndSplineSet
Validated: 3073
EndChar

StartChar: uni01E0
Encoding: 480 480 392
Width: 600
Flags: HM
LayerCount: 2
Fore
SplineSet
350 42.5 m 0
 350 77.3496 377 85 416 85 c 2
 439 85 l 1
 416 134.3 l 1
 178 134.3 l 1
 155 85 l 1
 178 85 l 2
 213 85 244 78.2002 244 42.5 c 0
 244 8.5 215 0 178 0 c 2
 45 0 l 2
 1 0 -21 14.4502 -21 42.5 c 0
 -21 79.0498 9 85 46 85 c 1
 201 410.55 l 1
 138 410.55 l 2
 102 410.55 71 417.35 71 453.05 c 0
 71 489.6 101 495.55 138 495.55 c 2
 354 495.55 l 1
 553 85 l 1
 589 85 621 78.2002 621 42.5 c 0
 621 8.5 592 0 555 0 c 2
 416 0 l 2
 360 0 350 24.6504 350 42.5 c 0
375 219.3 m 1
 297 382.5 l 1
 218 219.3 l 1
 375 219.3 l 1
294 673 m 0
 328 673 354 646 354 612 c 0
 354 580 327 553 294 553 c 0
 261 553 234 580 234 613 c 0
 234 646 261 673 294 673 c 0
172 720 m 2
 142 720 119 727 119 760 c 0
 119 785 138 800 172 800 c 2
 416 800 l 2
 446 800 469 793 469 760 c 0
 469 735 449 720 416 720 c 2
 172 720 l 2
EndSplineSet
Validated: 3073
EndChar

StartChar: uni01E4
Encoding: 484 484 396
Width: 600
Flags: MW
LayerCount: 2
Fore
SplineSet
595 161 m 0
 595 120 568 111 529 111 c 2
 498 111 l 1
 498 48 l 1
 409 1 365 -14 291 -14 c 0
 69 -14 13 143 13 246 c 2
 13 317 l 2
 13 469 127 597 297 597 c 0
 344 597 389 586 431 565 c 1
 443 589 453 597 472 597 c 0
 510 597 519 571 519 531 c 2
 519 453 l 2
 519 415 511 387 469 387 c 0
 429 387 425 422 420 440 c 0
 410 474 358 497 302 497 c 0
 150 497 113 385 113 317 c 2
 113 253 l 2
 113 111 217 86 285 86 c 0
 330 86 360 94 398 111 c 1
 398 211 l 1
 298 211 l 2
 259 211 232 223 232 261 c 0
 232 302 259 311 298 311 c 2
 498 311 l 1
 498 211 l 1
 529 211 l 2
 568 211 595 199 595 161 c 0
EndSplineSet
Validated: 3073
EndChar

StartChar: uni01EA
Encoding: 490 490 400
Width: 600
Flags: M
LayerCount: 2
Fore
SplineSet
273 -124 m 0
 300 -124 323 -100 346 -100 c 0
 368 -100 385 -117 385 -138 c 0
 385 -182 308 -200 266 -200 c 0
 208 -200 172 -166 172 -111 c 0
 172 -62.792 193.295 -44.1031 248.263 -8.74417 c 1
 118.952 17.871 21 142.398 21 292 c 0
 21 460 146 597 300 597 c 0
 359 597 579 550 579 287 c 0
 579 139.302 475.993 13.5026 344.486 -10.0472 c 1
 274.884 -57.2955 249 -72.668 249 -104 c 0
 249 -117 258 -124 273 -124 c 0
300 497 m 0
 202 497 121 404 121 292 c 0
 121 179 202 86 300 86 c 0
 397 86 479 179 479 289 c 0
 479 404 399 497 300 497 c 0
EndSplineSet
Validated: 3073
EndChar

StartChar: uni01EB
Encoding: 491 491 401
Width: 600
Flags: M
LayerCount: 2
Fore
SplineSet
273 -124 m 0
 300 -124 323 -100 346 -100 c 0
 368 -100 385 -117 385 -138 c 0
 385 -182 308 -200 266 -200 c 0
 208 -200 172 -166 172 -111 c 0
 172 -63.041 193.075 -46.4514 247.414 -11.2919 c 1
 129.205 10.2537 42 103.3 42 217 c 0
 42 349 155 450 303 450 c 0
 444 450 558 346 558 217 c 0
 558 100.358 466.225 5.45275 343.349 -12.8198 c 1
 274.602 -59.6273 249 -72.8398 249 -104 c 0
 249 -117 258 -124 273 -124 c 0
302 350 m 0
 211 350 142 293 142 217 c 0
 142 142 211 84 300 84 c 0
 389 84 458 142 458 217 c 0
 458 291 389 350 302 350 c 0
EndSplineSet
Validated: 3073
EndChar

StartChar: uni01F6
Encoding: 502 502 408
Width: 600
Flags: MW
LayerCount: 2
Fore
SplineSet
352 583 m 2
 391 583 418 573 418 533 c 0
 418 504 399 486 366 483 c 1
 366 100 l 1
 380 100 l 18
 440 100 468 123 468 172 c 0
 468 350 l 1
 441 350 l 2
 408 350 386 371 386 400 c 0
 386 441 413 450 452 450 c 2
 568 450 l 1
 568 169 l 2
 568 34 462 0 390 0 c 10
 266 0 l 1
 266 241 l 1
 195 241 l 1
 195 0 l 1
 89 0 l 2
 52 0 23 10 23 50 c 0
 23 91 50 100 89 100 c 2
 95 100 l 1
 95 483 l 1
 62 486 43 504 43 533 c 0
 43 574 70 583 109 583 c 2
 195 583 l 1
 195 341 l 1
 266 341 l 1
 266 583 l 1
 352 583 l 2
EndSplineSet
Validated: 3073
EndChar

StartChar: Aringacute
Encoding: 506 506 411
Width: 600
Flags: M
LayerCount: 2
Fore
SplineSet
350 38.25 m 0
 350 69.6143 377 76.5 416 76.5 c 2
 439 76.5 l 1
 416 120.87 l 1
 178 120.87 l 1
 155 76.5 l 1
 178 76.5 l 2
 213 76.5 244 70.3799 244 38.25 c 0
 244 7.65039 215 0 178 0 c 2
 45 0 l 2
 1 0 -21 13.0049 -21 38.25 c 0
 -21 71.1445 9 76.5 46 76.5 c 1
 201 369.495 l 1
 138 369.495 l 2
 102 369.495 71 375.615 71 407.745 c 0
 71 440.64 101 445.995 138 445.995 c 2
 354 445.995 l 1
 553 76.5 l 1
 589 76.5 621 70.3799 621 38.25 c 0
 621 7.65039 592 0 555 0 c 2
 416 0 l 2
 360 0 350 22.1855 350 38.25 c 0
375 197.37 m 1
 297 344.25 l 1
 218 197.37 l 1
 375 197.37 l 1
299 640.967 m 0
 351 640.967 392 600.967 392 548.967 c 0
 392 500.967 350 459.967 299 459.967 c 0
 248 459.967 206 500.967 206 550.967 c 0
 206 599.967 248 640.967 299 640.967 c 0
299 579.217 m 0
 282.5 579.217 269 566.217 269 550.717 c 0
 269 534.717 282.5 521.717 299 521.717 c 0
 315.5 521.717 329 534.717 329 550.217 c 0
 329 566.217 315.5 579.217 299 579.217 c 0
EndSplineSet
Refer: 115 180 N 1 0 0 1 -62 140 0
Validated: 35841
EndChar

StartChar: aringacute
Encoding: 507 507 412
Width: 600
Flags: M
LayerCount: 2
Fore
SplineSet
42 107.1 m 0
 42 185.4 134 259.2 284 259.2 c 0
 316 259.2 347 256.5 388 250.2 c 1
 388 270.9 l 2
 388 301.5 359 315 295 315 c 0
 223 315 171 294.3 139 294.3 c 0
 111 294.3 90 314.1 90 340.2 c 0
 90 359.1 100 371.7 120 378 c 0
 168 393.3 242 405 292 405 c 0
 415 405 489 355.5 489 271.8 c 2
 489 90 l 1
 505 90 l 2
 544 90 571 81 571 45 c 0
 571 9 542 0 505 0 c 2
 388 0 l 1
 388 20.7002 l 1
 340 -1.7998 281 -14.4004 222 -14.4004 c 0
 123 -14.4004 42 40.5 42 107.1 c 0
389 121.5 m 1
 389 166.5 l 1
 349 172.8 312 176.4 278 176.4 c 0
 210 176.4 148 144.9 148 110.7 c 0
 148 90.9004 181 75.5996 224 75.5996 c 0
 278 75.5996 334 90.9004 389 121.5 c 1
289 618 m 0
 341 618 382 578 382 526 c 0
 382 478 340 437 289 437 c 0
 238 437 196 478 196 528 c 0
 196 577 238 618 289 618 c 0
289 556.25 m 0
 272.5 556.25 259 543.25 259 527.75 c 0
 259 511.75 272.5 498.75 289 498.75 c 0
 305.5 498.75 319 511.75 319 527.25 c 0
 319 543.25 305.5 556.25 289 556.25 c 0
EndSplineSet
Refer: 115 180 N 1 0 0 1 2 139 0
Validated: 35841
EndChar

StartChar: uni0224
Encoding: 548 548 447
Width: 600
Flags: MW
LayerCount: 2
Fore
SplineSet
278 -86 m 0
 292 -86 312 -100 349 -100 c 0
 395 -100 427 -64 427 -11 c 2
 427 0 l 1
 73 0 l 1
 73 100 l 1
 375 483 l 1
 196 483 l 1
 196 413 l 2
 196 378 188 347 146 347 c 0
 106 347 96 376 96 413 c 2
 96 583 l 1
 504 583 l 1
 504 486 l 1
 201 100 l 1
 427 100 l 1
 427 172 l 2
 427 210 436 238 477 238 c 0
 518 238 527 211 527 172 c 2
 527 -11 l 2
 527 -118 451 -200 352 -200 c 0
 275 -200 230 -176 230 -136 c 0
 230 -109 253 -86 278 -86 c 0
EndSplineSet
Validated: 3073
EndChar

StartChar: uni0225
Encoding: 549 549 448
Width: 600
Flags: MW
LayerCount: 2
Fore
SplineSet
469 154 m 0
 510 154 519 125 519 88 c 2
 519 -11 l 2
 519 -118 443 -200 344 -200 c 0
 267 -200 222 -176 222 -136 c 0
 222 -109 245 -86 270 -86 c 0
 284 -86 304 -100 341 -100 c 0
 387 -100 419 -64 419 -11 c 2
 419 0 l 1
 85 0 l 1
 85 83 l 1
 346 337 l 1
 197 337 l 1
 197 328 l 2
 197 293 189 262 147 262 c 0
 107 262 97 291 97 328 c 2
 97 437 l 1
 506 437 l 1
 506 356 l 1
 244 100 l 1
 419 100 l 1
 421 135 439 154 469 154 c 0
EndSplineSet
Validated: 3073
EndChar

StartChar: uni0228
Encoding: 552 552 451
Width: 600
Flags: M
LayerCount: 2
Fore
SplineSet
233 -102 m 0
 252 -102 279 -130 319 -130 c 0
 342 -130 355 -121 355 -105 c 0
 355 -84 336 -71 302 -71 c 0
 297 -71 293 -71 280 -73 c 1
 280 -2.77556e-15 l 1
 79 0 l 2
 23 0 13 29 13 50 c 0
 13 92 44 100 79 100 c 2
 94 100 l 1
 94 483 l 1
 79 483 l 2
 42 483 13 492 13 533 c 0
 13 574 40 583 79 583 c 2
 528 583 l 1
 528 433 l 2
 528 395 519 366 478 366 c 0
 436 366 428 397 428 433 c 2
 428 483 l 1
 194 483 l 1
 194 342 l 1
 279 342 l 1
 279 349 l 2
 279 385 287 416 328 416 c 0
 366 416 378 388 378 349 c 2
 378 236 l 2
 378 200 369 170 329 170 c 0
 288 170 279 199 279 236 c 2
 279 243 l 1
 194 243 l 1
 194 100 l 1
 450 100 l 1
 450 152 l 2
 450 192 460 219 500 219 c 0
 542 219 550 188 550 152 c 2
 550 0 l 1
 350 -1.38778e-16 l 1
 350 -12 l 1
 401 -23 425 -52 425 -103 c 0
 425 -160 380 -200 318 -200 c 0
 280 -200 198 -180 198 -137 c 0
 198 -118 214 -102 233 -102 c 0
EndSplineSet
Validated: 3073
EndChar

StartChar: uni0229
Encoding: 553 553 452
Width: 600
Flags: M
LayerCount: 2
Fore
SplineSet
215 -102 m 0
 234 -102 261 -130 301 -130 c 0
 324 -130 337 -121 337 -105 c 0
 337 -84 318 -71 284 -71 c 0
 279 -71 275 -71 262 -73 c 1
 262 -14.3139 l 1
 125.841 -0.960052 33 90.4849 33 216 c 0
 33 348 145 450 291 450 c 0
 440 450 550 349 550 211 c 2
 550 172 l 1
 142 172 l 1
 165 112 218 84 306 84 c 0
 399 84 463 117 502 117 c 0
 529 117 550 95 550 67 c 0
 550 8.18781 405.909 -8.87793 332 -13.4375 c 1
 383 -24.4375 407 -52 407 -103 c 0
 407 -160 362 -200 300 -200 c 0
 262 -200 180 -180 180 -137 c 0
 180 -118 196 -102 215 -102 c 0
145 260 m 1
 439 260 l 1
 423 315 365 350 292 350 c 0
 219 350 160 314 145 260 c 1
EndSplineSet
Validated: 3073
EndChar

StartChar: uni022A
Encoding: 554 554 453
Width: 600
Flags: M
LayerCount: 2
Fore
SplineSet
300 507.45 m 0
 359 507.45 579 467.5 579 243.95 c 0
 579 104.55 452 -11.9004 300 -11.9004 c 0
 146 -11.9004 21 104.55 21 248.2 c 0
 21 391 146 507.45 300 507.45 c 0
300 422.45 m 0
 202 422.45 121 343.4 121 248.2 c 0
 121 152.15 202 73.0996 300 73.0996 c 0
 397 73.0996 479 152.15 479 245.65 c 0
 479 343.4 399 422.45 300 422.45 c 0
196 666 m 0
 230 666 256 639 256 605 c 0
 256 573 229 546 196 546 c 0
 163 546 136 573 136 606 c 0
 136 639 163 666 196 666 c 0
404 666 m 0
 438 666 464 639 464 605 c 0
 464 573 437 546 404 546 c 0
 371 546 344 573 344 606 c 0
 344 639 371 666 404 666 c 0
EndSplineSet
Refer: 110 175 S 1 0 0 1 3 174 0
Validated: 35841
EndChar

StartChar: uni022C
Encoding: 556 556 455
Width: 600
Flags: M
LayerCount: 2
Fore
SplineSet
300 507.45 m 0
 359 507.45 579 467.5 579 243.95 c 0
 579 104.55 452 -11.9004 300 -11.9004 c 0
 146 -11.9004 21 104.55 21 248.2 c 0
 21 391 146 507.45 300 507.45 c 0
300 422.45 m 0
 202 422.45 121 343.4 121 248.2 c 0
 121 152.15 202 73.0996 300 73.0996 c 0
 397 73.0996 479 152.15 479 245.65 c 0
 479 343.4 399 422.45 300 422.45 c 0
373 622 m 0
 406 622 420 686 453 686 c 0
 470 686 485 672 485 658 c 0
 485 637 439 553 376 553 c 0
 324 553 262 617 227 617 c 0
 186 617 180 556 146 556 c 0
 129 556 115 570 115 586 c 0
 115 610 160 686 225 686 c 0
 277 686 339 622 373 622 c 0
EndSplineSet
Refer: 110 175 N 1 0 0 1 -5 173 0
Validated: 35841
EndChar

StartChar: uni0230
Encoding: 560 560 459
Width: 600
Flags: M
LayerCount: 2
Fore
SplineSet
300 507.45 m 0
 359 507.45 579 467.5 579 243.95 c 0
 579 104.55 452 -11.9004 300 -11.9004 c 0
 146 -11.9004 21 104.55 21 248.2 c 0
 21 391 146 507.45 300 507.45 c 0
300 422.45 m 0
 202 422.45 121 343.4 121 248.2 c 0
 121 152.15 202 73.0996 300 73.0996 c 0
 397 73.0996 479 152.15 479 245.65 c 0
 479 343.4 399 422.45 300 422.45 c 0
300 680 m 0
 334 680 360 653 360 619 c 0
 360 587 333 560 300 560 c 0
 267 560 240 587 240 620 c 0
 240 653 267 680 300 680 c 0
EndSplineSet
Refer: 110 175 S 1 0 0 1 0 174 0
Validated: 35841
EndChar

StartChar: uni0251
Encoding: 593 593 464
Width: 600
Flags: MW
LayerCount: 2
Fore
SplineSet
431 217 m 0
 431 296 372 351 281 351 c 0
 188 351 133 290 133 219 c 0
 133 166 170 86 282 86 c 0
 372 86 431 143 431 217 c 0
481 467 m 0
 522 467 531 440 531 401 c 2
 531 100 l 1
 547 100 l 2
 586 100 613 90 613 50 c 0
 613 9 584 0 547 0 c 2
 431 0 l 1
 431 35 l 1
 378 -1 339 -14 280 -14 c 0
 126 -14 33 91 33 219 c 0
 33 347 126 451 281 451 c 0
 341 451 388 435 431 401 c 1
 431 436 439 467 481 467 c 0
EndSplineSet
Validated: 3073
EndChar

StartChar: uni0253
Encoding: 595 595 466
Width: 600
Flags: MW
LayerCount: 2
Fore
SplineSet
323 351 m 0
 230 351 174 292 174 220 c 0
 174 141 235 86 323 86 c 0
 410 86 471 142 471 219 c 0
 471 293 412 351 323 351 c 0
-8 50 m 0
 -8 91 19 100 58 100 c 2
 74 100 l 1
 74 459 l 2
 74 558 152 638 248 638 c 0
 323 638 368 615 368 577 c 0
 368 547 347 524 320 524 c 0
 295 524 290 538 247 538 c 0
 207 538 174 501 174 456 c 2
 174 401 l 1
 217 435 264 451 324 451 c 0
 478 451 571 347 571 218 c 0
 571 88 475 -14 325 -14 c 0
 266 -14 226 -1 174 35 c 1
 174 0 l 1
 58 0 l 2
 21 0 -8 10 -8 50 c 0
EndSplineSet
Validated: 3073
EndChar

StartChar: uni0254
Encoding: 596 596 467
Width: 600
Flags: MW
LayerCount: 2
Fore
SplineSet
79 307 m 2
 79 384 l 2
 79 430 94 450 127 450 c 0
 148 450 159 441 165 420 c 1
 204 440 252 450 309 450 c 0
 460 450 565 350 565 207 c 0
 565 110 511 -16 296 -16 c 0
 146 -16 54 34 54 89 c 0
 54 117 77 140 104 140 c 0
 145 140 135 84 289 84 c 0
 406 84 465 125 465 207 c 0
 465 292 404 350 309 350 c 0
 265 350 229 341 203 325 c 0
 167 299 191 241 129 241 c 0
 87 241 79 272 79 307 c 2
EndSplineSet
Validated: 3073
EndChar

StartChar: uni0256
Encoding: 598 598 468
Width: 600
Flags: MW
LayerCount: 2
Fore
SplineSet
431 217 m 0
 431 296 372 351 281 351 c 0
 188 351 133 290 133 219 c 0
 133 166 170 86 282 86 c 0
 372 86 431 143 431 217 c 0
349 575 m 0
 349 615 376 624 415 624 c 2
 531 624 l 1
 531 -11 l 2
 531 -64 563 -100 609 -100 c 0
 647 -100 666 -86 680 -86 c 0
 705 -86 728 -109 728 -136 c 0
 728 -176 683 -200 606 -200 c 0
 507 -200 431 -118 431 -11 c 2
 431 35 l 1
 378 -1 339 -14 280 -14 c 0
 126 -14 33 91 33 219 c 0
 33 347 126 451 281 451 c 0
 341 451 388 435 431 401 c 1
 431 525 l 1
 415 525 l 2
 377 525 349 534 349 575 c 0
EndSplineSet
Validated: 3073
EndChar

StartChar: uni0257
Encoding: 599 599 469
Width: 600
Flags: MW
LayerCount: 2
Fore
SplineSet
431 217 m 0
 431 296 372 351 281 351 c 0
 188 351 133 290 133 219 c 0
 133 144 192 86 282 86 c 0
 372 86 431 143 431 217 c 0
33 219 m 0
 33 347 126 451 281 451 c 0
 341 451 388 435 431 401 c 1
 431 459 l 2
 431 558 509 638 605 638 c 0
 680 638 725 615 725 577 c 0
 725 547 704 524 677 524 c 0
 652 524 647 538 604 538 c 0
 564 538 531 501 531 456 c 2
 531 100 l 1
 547 100 l 2
 586 100 613 90 613 50 c 0
 613 9 584 0 547 0 c 2
 431 0 l 1
 431 35 l 1
 378 -1 339 -14 280 -14 c 0
 126 -14 33 91 33 219 c 0
EndSplineSet
Validated: 3073
EndChar

StartChar: uni0258
Encoding: 600 600 470
Width: 600
Flags: MW
LayerCount: 2
Fore
SplineSet
33 67 m 0
 33 95 54 117 81 117 c 0
 120 117 184 84 277 84 c 0
 365 84 418 112 441 172 c 1
 33 172 l 1
 33 211 l 2
 33 349 143 450 292 450 c 0
 438 450 550 348 550 216 c 0
 550 80 441 -16 286 -16 c 0
 243 -16 33 -4 33 67 c 0
438 260 m 1
 423 314 364 350 291 350 c 0
 218 350 160 315 144 260 c 1
 438 260 l 1
EndSplineSet
Validated: 3073
EndChar

StartChar: uni025B
Encoding: 603 603 472
Width: 600
Flags: MW
LayerCount: 2
Fore
SplineSet
527 100 m 2
 527 67 l 2
 527 32 519 1 476 1 c 0
 463 1 455 4 444 13 c 1
 404 -6 353 -16 296 -16 c 0
 167 -16 73 43 73 125 c 0
 73 164 96 205 129 225 c 1
 129 235 l 1
 109 252 94 281 94 313 c 0
 94 393 180 450 300 450 c 0
 349 450 390 442 429 424 c 1
 437 443 446 450 461 450 c 0
 493 450 508 430 508 384 c 2
 508 347 l 2
 508 310 499 281 458 281 c 0
 437 281 423 290 411 312 c 2
 406 321 l 1
 378 341 345 350 303 350 c 0
 252 350 204 333 204 315 c 0
 204 293 253 278 314 278 c 2
 345 278 l 2
 346 278 347 278 349 278 c 0
 391 278 412 260 412 228 c 0
 412 196 390 178 351 178 c 2
 309 178 l 2
 250 178 183 158 183 127 c 0
 183 104 236 84 300 84 c 0
 354 84 396 97 425 123 c 1
 434 153 450 167 476 167 c 0
 518 167 527 137 527 100 c 2
EndSplineSet
Validated: 3073
EndChar

StartChar: uni025F
Encoding: 607 607 474
Width: 600
Flags: MW
LayerCount: 2
Fore
SplineSet
117 -150 m 0
 117 -107 148 -100 183 -100 c 2
 294 -100 l 2
 351 -100 388 -67 388 -15 c 2
 388 0 l 1
 186 0 l 2
 149 0 120 9 120 50 c 0
 120 91 149 100 186 100 c 2
 388 100 l 1
 388 337 l 1
 186 337 l 2
 148 337 120 349 120 387 c 0
 120 428 147 437 186 437 c 2
 488 437 l 1
 488 100 l 1
 498 100 l 2
 538 100 564 91 564 50 c 0
 564 10 535 0 498 0 c 2
 488 0 l 1
 488 -15 l 2
 488 -120 406 -200 297 -200 c 2
 183 -200 l 2
 145 -200 117 -188 117 -150 c 0
EndSplineSet
Validated: 3073
EndChar

StartChar: uni0260
Encoding: 608 608 475
Width: 600
Flags: MW
LayerCount: 2
Fore
SplineSet
271 351 m 0
 195 351 133 292 133 219 c 0
 133 145 195 86 271 86 c 0
 347 86 410 145 410 217 c 0
 410 292 349 351 271 351 c 0
141 -150 m 0
 141 -109 168 -100 207 -100 c 2
 316 -100 l 2
 373 -100 410 -67 410 -15 c 2
 410 35 l 1
 364 1 321 -14 269 -14 c 0
 135 -14 33 86 33 218 c 0
 33 351 135 451 269 451 c 0
 323 451 371 434 410 401 c 1
 410 459 l 2
 410 558 488 638 584 638 c 0
 659 638 704 615 704 577 c 0
 704 547 683 524 656 524 c 0
 631 524 626 538 583 538 c 0
 543 538 510 501 510 456 c 2
 510 -15 l 2
 510 -121 428 -200 319 -200 c 2
 207 -200 l 2
 168 -200 141 -188 141 -150 c 0
EndSplineSet
Validated: 3073
EndChar

StartChar: uni0261
Encoding: 609 609 476
Width: 600
Flags: MW
LayerCount: 2
Fore
SplineSet
271 351 m 0
 195 351 133 292 133 219 c 0
 133 145 195 86 271 86 c 0
 347 86 410 145 410 217 c 0
 410 292 349 351 271 351 c 0
460 462 m 0
 500 462 510 432 510 396 c 2
 510 -15 l 2
 510 -121 428 -200 319 -200 c 2
 207 -200 l 2
 168 -200 141 -188 141 -150 c 0
 141 -109 168 -100 207 -100 c 2
 316 -100 l 2
 373 -100 410 -67 410 -15 c 2
 410 35 l 1
 364 1 321 -14 269 -14 c 0
 135 -14 33 86 33 218 c 0
 33 351 135 451 269 451 c 0
 323 451 371 434 410 401 c 1
 410 453 442 462 460 462 c 0
EndSplineSet
Validated: 3073
EndChar

StartChar: uni0266
Encoding: 614 614 478
Width: 600
Flags: MW
LayerCount: 2
Fore
SplineSet
23 50 m 0
 23 91 53 100 89 100 c 2
 95 100 l 1
 95 459 l 2
 95 558 173 638 269 638 c 0
 344 638 389 615 389 577 c 0
 389 547 368 524 341 524 c 0
 316 524 311 538 268 538 c 0
 228 538 195 501 195 456 c 2
 195 389 l 1
 235 430 280 450 332 450 c 0
 438 450 509 384 509 284 c 2
 509 100 l 1
 515 100 l 2
 554 100 581 90 581 50 c 0
 581 10 552 0 515 0 c 2
 403 0 l 2
 367 0 336 10 336 50 c 0
 336 92 367 100 403 100 c 2
 409 100 l 1
 409 271 l 2
 409 314 399 350 321 350 c 0
 274 350 252 338 195 283 c 1
 195 100 l 1
 201 100 l 2
 239 100 268 91 268 50 c 0
 268 9 238 0 201 0 c 2
 89 0 l 2
 51 0 23 12 23 50 c 0
EndSplineSet
Validated: 3073
EndChar

StartChar: uni0267
Encoding: 615 615 479
Width: 600
Flags: MW
LayerCount: 2
Fore
SplineSet
341 524 m 0
 316 524 311 538 268 538 c 0
 228 538 195 501 195 456 c 2
 195 389 l 1
 235 430 280 450 332 450 c 0
 438 450 509 384 509 284 c 2
 509 -11 l 2
 509 -118 433 -200 334 -200 c 0
 257 -200 212 -176 212 -136 c 0
 212 -109 235 -86 260 -86 c 0
 274 -86 294 -100 331 -100 c 0
 377 -100 409 -64 409 -11 c 2
 409 271 l 2
 409 314 399 350 321 350 c 0
 274 350 252 338 195 283 c 1
 195 100 l 1
 201 100 l 2
 239 100 268 91 268 50 c 0
 268 9 238 0 201 0 c 2
 89 0 l 2
 51 0 23 12 23 50 c 0
 23 91 53 100 89 100 c 2
 95 100 l 1
 95 459 l 2
 95 558 173 638 269 638 c 0
 344 638 389 615 389 577 c 0
 389 547 368 524 341 524 c 0
EndSplineSet
Validated: 3073
EndChar

StartChar: uni0268
Encoding: 616 616 480
Width: 600
Flags: MW
LayerCount: 2
Fore
SplineSet
336 623 m 1
 336 518 l 1
 218 518 l 1
 218 623 l 1
 336 623 l 1
62 50 m 0
 62 91 89 100 128 100 c 2
 250 100 l 1
 250 154 l 1
 171 154 l 2
 134 154 105 163 105 204 c 0
 105 245 134 254 171 254 c 2
 250 254 l 1
 250 337 l 1
 172 337 l 2
 135 337 105 347 105 387 c 0
 105 430 135 437 172 437 c 2
 350 437 l 1
 350 254 l 1
 429 254 l 2
 469 254 495 245 495 204 c 0
 495 164 466 154 429 154 c 2
 350 154 l 1
 350 100 l 1
 472 100 l 2
 507 100 538 92 538 50 c 0
 538 12 511 0 472 0 c 2
 128 0 l 2
 72 0 62 29 62 50 c 0
EndSplineSet
Validated: 3073
EndChar

StartChar: uni0269
Encoding: 617 617 481
Width: 600
Flags: MW
LayerCount: 2
Fore
SplineSet
105 387 m 0
 105 430 135 437 172 437 c 2
 350 437 l 1
 350 173 l 2
 350 120 382 84 428 84 c 0
 466 84 485 98 499 98 c 0
 524 98 547 75 547 48 c 0
 547 8 502 -16 425 -16 c 0
 326 -16 250 66 250 173 c 2
 250 337 l 1
 172 337 l 2
 135 337 105 347 105 387 c 0
EndSplineSet
Validated: 3073
EndChar

StartChar: uni026A
Encoding: 618 618 482
Width: 600
Flags: MW
LayerCount: 2
Fore
SplineSet
490 387 m 0
 490 346 461 337 424 337 c 2
 350 337 l 1
 350 100 l 1
 424 100 l 2
 462 100 490 91 490 50 c 0
 490 17 468 0 424 0 c 2
 176 0 l 2
 120 0 110 30 110 50 c 0
 110 91 137 100 176 100 c 2
 250 100 l 1
 250 337 l 1
 176 337 l 2
 139 337 110 346 110 387 c 0
 110 428 137 437 176 437 c 2
 424 437 l 2
 462 437 490 428 490 387 c 0
EndSplineSet
Validated: 3073
EndChar

StartChar: uni026B
Encoding: 619 619 483
Width: 600
Flags: MW
LayerCount: 2
Fore
SplineSet
62 252 m 0
 62 282 129 385 213 385 c 0
 226 385 238 384 250 379 c 1
 250 524 l 1
 172 524 l 2
 135 524 105 533 105 574 c 0
 105 616 133 624 172 624 c 2
 350 624 l 1
 350 307 l 1
 368 292 380 284 389 284 c 0
 424 284 436 364 488 364 c 0
 515 364 538 341 538 314 c 0
 538 287 468 179 391 179 c 0
 378 179 364 182 350 187 c 1
 350 100 l 1
 472 100 l 2
 507 100 538 92 538 50 c 0
 538 12 511 0 472 0 c 2
 128 0 l 2
 72 0 62 29 62 50 c 0
 62 91 89 100 128 100 c 2
 250 100 l 1
 250 257 l 1
 231 273 219 281 212 281 c 0
 184 281 154 201 113 201 c 0
 86 201 62 225 62 252 c 0
EndSplineSet
Validated: 3073
EndChar

StartChar: uni026D
Encoding: 621 621 484
Width: 600
Flags: MW
LayerCount: 2
Fore
SplineSet
105 574 m 0
 105 616 133 624 172 624 c 2
 350 624 l 1
 350 -11 l 2
 350 -64 382 -100 428 -100 c 0
 466 -100 485 -86 499 -86 c 0
 524 -86 547 -109 547 -136 c 0
 547 -176 502 -200 425 -200 c 0
 326 -200 250 -118 250 -11 c 2
 250 524 l 1
 172 524 l 2
 135 524 105 533 105 574 c 0
EndSplineSet
Validated: 3073
EndChar

StartChar: uni0270
Encoding: 624 624 486
Width: 600
Flags: MW
LayerCount: 2
Fore
SplineSet
556 437 m 2
 592 437 623 426 623 387 c 0
 623 355 601 337 563 337 c 1
 563 -100 l 1
 601 -101 623 -119 623 -150 c 0
 623 -185 596 -200 556 -200 c 2
 463 -200 l 1
 463 24 l 1
 428 -4 408 -13 378 -13 c 0
 339 -13 306 3 276 36 c 1
 245 2 213 -13 172 -13 c 0
 97 -13 41 43 41 118 c 2
 41 337 l 1
 3 337 -19 355 -19 387 c 0
 -19 420 3 437 47 437 c 2
 141 437 l 1
 141 126 l 2
 141 97 150 87 176 87 c 0
 202 87 218 96 252 132 c 1
 252 337 l 1
 214 337 192 356 192 387 c 0
 192 428 223 437 258 437 c 2
 352 437 l 1
 352 126 l 2
 352 98 362 87 387 87 c 0
 414 87 433 98 463 132 c 1
 463 337 l 1
 424 337 402 355 402 387 c 0
 402 428 433 437 468 437 c 2
 556 437 l 2
EndSplineSet
Validated: 3073
EndChar

StartChar: uni0271
Encoding: 625 625 487
Width: 600
Flags: MW
LayerCount: 2
Fore
SplineSet
48 0 m 2
 12 0 -19 11 -19 50 c 0
 -19 82 3 100 41 100 c 1
 41 337 l 1
 3 338 -19 356 -19 387 c 0
 -19 422 8 437 48 437 c 2
 141 437 l 1
 141 413 l 1
 176 441 196 450 226 450 c 0
 265 450 298 434 328 401 c 1
 359 435 391 450 432 450 c 0
 507 450 563 394 563 319 c 2
 563 -11 l 2
 563 -118 487 -200 388 -200 c 0
 311 -200 266 -176 266 -136 c 0
 266 -109 289 -86 314 -86 c 0
 328 -86 348 -100 385 -100 c 0
 431 -100 463 -64 463 -11 c 2
 463 311 l 2
 463 340 454 350 428 350 c 0
 402 350 386 341 352 305 c 1
 352 100 l 1
 390 100 412 81 412 50 c 0
 412 9 381 0 346 0 c 2
 252 0 l 1
 252 311 l 2
 252 339 242 350 217 350 c 0
 190 350 171 339 141 305 c 1
 141 100 l 1
 180 100 202 82 202 50 c 0
 202 9 171 0 136 0 c 2
 48 0 l 2
EndSplineSet
Validated: 3073
EndChar

StartChar: uni0272
Encoding: 626 626 488
Width: 600
Flags: MW
LayerCount: 2
Fore
SplineSet
-54 -86 m 0
 -40 -86 -20 -100 17 -100 c 0
 63 -100 95 -64 95 -11 c 2
 95 337 l 1
 56 338 34 355 34 387 c 0
 34 423 62 437 101 437 c 2
 195 437 l 1
 195 389 l 1
 243 435 277 450 332 450 c 0
 432 450 510 392 510 282 c 2
 510 100 l 1
 549 100 571 82 571 50 c 0
 571 10 542 0 505 0 c 2
 416 0 l 2
 371 0 349 17 349 50 c 0
 349 82 371 100 410 100 c 1
 410 278 l 2
 410 327 382 350 320 350 c 0
 274 350 242 333 195 282 c 1
 195 -11 l 2
 195 -118 119 -200 20 -200 c 0
 -57 -200 -102 -176 -102 -136 c 0
 -102 -109 -79 -86 -54 -86 c 0
EndSplineSet
Validated: 3073
EndChar

StartChar: uni0273
Encoding: 627 627 489
Width: 600
Flags: MW
LayerCount: 2
Fore
SplineSet
23 50 m 0
 23 91 53 100 89 100 c 2
 95 100 l 1
 95 337 l 1
 56 338 34 355 34 387 c 0
 34 423 62 437 101 437 c 2
 195 437 l 1
 195 389 l 1
 243 435 277 450 332 450 c 0
 432 450 510 392 510 282 c 2
 510 -11 l 2
 510 -64 542 -100 588 -100 c 0
 626 -100 645 -86 659 -86 c 0
 684 -86 707 -109 707 -136 c 0
 707 -176 662 -200 585 -200 c 0
 486 -200 410 -118 410 -11 c 2
 410 278 l 2
 410 327 382 350 320 350 c 0
 274 350 242 333 195 282 c 1
 195 100 l 1
 201 100 l 2
 236 100 267 92 267 50 c 0
 267 9 236 0 201 0 c 2
 89 0 l 2
 50 0 23 12 23 50 c 0
EndSplineSet
Validated: 3073
EndChar

StartChar: uni0274
Encoding: 628 628 490
Width: 600
Flags: MW
LayerCount: 2
Fore
SplineSet
477 437 m 2
 512 437 543 429 543 387 c 0
 543 355 524 338 494 337 c 1
 494 0 l 1
 395 0 l 1
 222 262 l 1
 222 100 l 17
 271 100 280 70 280 50 c 0
 280 12 253 0 214 0 c 2
 132 0 l 2
 93 0 65 12 65 50 c 0
 65 82 90 100 122 100 c 1
 122 337 l 17
 72 337 63 368 63 387 c 0
 63 428 90 437 129 437 c 2
 222 437 l 1
 394 177 l 1
 394 337 l 17
 343 337 334 367 334 387 c 0
 334 428 361 437 400 437 c 2
 477 437 l 2
EndSplineSet
Validated: 3073
EndChar

StartChar: uni027B
Encoding: 635 635 493
Width: 600
Flags: MW
LayerCount: 2
Fore
SplineSet
571 387 m 0
 571 346 544 337 505 337 c 2
 447 337 l 1
 447 -11 l 2
 447 -64 479 -100 525 -100 c 0
 563 -100 582 -86 596 -86 c 0
 621 -86 644 -109 644 -136 c 0
 644 -176 599 -200 522 -200 c 0
 423 -200 347 -118 347 -11 c 2
 347 65 l 1
 267 5 229 -12 180 -12 c 0
 128 -12 54 27 54 73 c 0
 54 101 77 124 104 124 c 0
 137 124 149 88 182 88 c 0
 214 88 252 112 347 190 c 1
 347 337 l 1
 208 337 l 2
 170 337 141 346 141 387 c 0
 141 427 171 437 208 437 c 2
 505 437 l 2
 543 437 571 425 571 387 c 0
EndSplineSet
Validated: 3073
EndChar

StartChar: uni027C
Encoding: 636 636 494
Width: 600
Flags: MW
LayerCount: 2
Fore
SplineSet
143 337 m 2
 104 337 77 349 77 387 c 0
 77 418 99 437 143 437 c 2
 278 437 l 1
 278 372 l 1
 358 432 396 449 445 449 c 0
 497 449 571 410 571 364 c 0
 571 336 548 313 521 313 c 0
 488 313 476 349 443 349 c 0
 411 349 373 325 278 247 c 1
 278 -100 l 1
 417 -100 l 2
 455 -100 484 -109 484 -150 c 0
 484 -190 454 -200 417 -200 c 2
 120 -200 l 2
 82 -200 54 -188 54 -150 c 0
 54 -109 81 -100 120 -100 c 2
 178 -100 l 1
 178 337 l 1
 143 337 l 2
EndSplineSet
Validated: 3073
EndChar

StartChar: uni027D
Encoding: 637 637 495
Width: 600
Flags: MW
LayerCount: 2
Fore
SplineSet
521 313 m 0
 488 313 476 349 443 349 c 0
 411 349 373 325 278 247 c 1
 278 -11 l 2
 278 -64 310 -100 356 -100 c 0
 394 -100 413 -86 427 -86 c 0
 452 -86 475 -109 475 -136 c 0
 475 -176 430 -200 353 -200 c 0
 254 -200 178 -118 178 -11 c 2
 178 337 l 1
 143 337 l 2
 104 337 77 349 77 387 c 0
 77 418 99 437 143 437 c 2
 278 437 l 1
 278 372 l 1
 358 432 396 449 445 449 c 0
 497 449 571 410 571 364 c 0
 571 336 548 313 521 313 c 0
EndSplineSet
Validated: 3073
EndChar

StartChar: uni027E
Encoding: 638 638 496
Width: 600
Flags: MW
LayerCount: 2
Fore
SplineSet
54 50 m 0
 54 91 81 100 120 100 c 2
 178 100 l 1
 178 271 l 2
 178 370 256 450 352 450 c 0
 427 450 472 427 472 389 c 0
 472 359 451 336 424 336 c 0
 399 336 394 350 351 350 c 0
 311 350 278 313 278 268 c 2
 278 100 l 1
 417 100 l 2
 455 100 484 91 484 50 c 0
 484 10 454 0 417 0 c 2
 120 0 l 2
 82 0 54 12 54 50 c 0
EndSplineSet
Validated: 3073
EndChar

StartChar: uni027F
Encoding: 639 639 497
Width: 600
Flags: MW
LayerCount: 2
Fore
SplineSet
484 50 m 0
 484 12 456 0 418 0 c 2
 121 0 l 2
 84 0 54 10 54 50 c 0
 54 91 83 100 121 100 c 2
 260 100 l 1
 260 268 l 2
 260 313 227 350 187 350 c 0
 144 350 139 336 114 336 c 0
 87 336 66 359 66 389 c 0
 66 427 111 450 186 450 c 0
 282 450 360 370 360 271 c 2
 360 100 l 1
 418 100 l 2
 457 100 484 91 484 50 c 0
EndSplineSet
Validated: 3073
EndChar

StartChar: uni0280
Encoding: 640 640 498
Width: 600
Flags: MW
LayerCount: 2
Fore
SplineSet
519 50 m 0
 519 12 492 0 453 0 c 2
 375 0 l 1
 360 80 330 128 279 151 c 1
 234 151 l 1
 234 100 l 17
 267 100 286 77 286 50 c 0
 286 12 259 0 220 0 c 2
 141 0 l 2
 85 0 75 29 75 50 c 0
 75 72 87 100 134 100 c 1
 134 337 l 17
 88 337 77 368 77 387 c 0
 77 428 104 437 143 437 c 2
 283 437 l 2
 413 437 458 360 458 289 c 0
 456 238 436 202 388 183 c 1
 412 176 434 132 441 100 c 1
 453 100 l 2
 492 100 519 90 519 50 c 0
234 251 m 1
 251 251 l 2
 335 251 352 256 352 292 c 0
 352 314 351 337 287 337 c 2
 234 337 l 1
 234 251 l 1
EndSplineSet
Validated: 3073
EndChar

StartChar: uni0288
Encoding: 648 648 501
Width: 600
Flags: MW
LayerCount: 2
Fore
SplineSet
461 387 m 0
 461 347 432 337 395 337 c 2
 214 337 l 1
 214 -43 l 2
 214 -81 226 -100 300 -100 c 0
 414 -100 446 -55 481 -55 c 0
 508 -55 529 -78 529 -106 c 0
 529 -166 375 -200 299 -200 c 0
 185 -200 114 -147 114 -62 c 2
 114 337 l 1
 79 337 l 2
 42 337 13 347 13 387 c 0
 13 428 40 437 79 437 c 2
 114 437 l 1
 114 525 l 2
 114 560 122 591 164 591 c 0
 205 591 214 564 214 525 c 2
 214 437 l 1
 395 437 l 2
 433 437 461 428 461 387 c 0
EndSplineSet
Validated: 3073
EndChar

StartChar: uni0289
Encoding: 649 649 502
Width: 600
Flags: MW
LayerCount: 2
Fore
SplineSet
409 154 m 1
 195 154 l 1
 197 108 225 87 283 87 c 0
 333 87 358 100 409 154 c 1
571 50 m 0
 571 9 540 0 505 0 c 2
 410 0 l 1
 410 48 l 1
 360 1 328 -13 273 -13 c 0
 172 -13 95 46 95 154 c 1
 79 154 l 2
 42 154 13 163 13 204 c 0
 13 245 42 254 79 254 c 2
 95 254 l 1
 95 337 l 1
 68 337 l 2
 35 337 13 358 13 387 c 0
 13 428 40 437 79 437 c 2
 195 437 l 1
 195 254 l 1
 410 254 l 1
 410 337 l 1
 375 337 l 2
 371 337 368 337 365 337 c 0
 320 337 309 368 309 387 c 0
 309 428 338 437 375 437 c 2
 510 437 l 1
 510 254 l 1
 543 254 571 244 571 204 c 0
 571 184 562 154 510 154 c 1
 510 100 l 1
 549 100 571 82 571 50 c 0
EndSplineSet
Validated: 3073
EndChar

StartChar: uni0290
Encoding: 656 656 506
Width: 600
Flags: MW
LayerCount: 2
Fore
SplineSet
597 -100 m 0
 635 -100 654 -86 668 -86 c 0
 693 -86 716 -109 716 -136 c 0
 716 -176 671 -200 594 -200 c 0
 495 -200 419 -118 419 -11 c 2
 419 0 l 1
 85 0 l 1
 85 83 l 1
 346 337 l 1
 197 337 l 1
 197 328 l 2
 197 293 189 262 147 262 c 0
 107 262 97 291 97 328 c 2
 97 437 l 1
 506 437 l 1
 506 356 l 1
 244 100 l 1
 419 100 l 1
 421 135 439 154 469 154 c 0
 510 154 519 127 519 88 c 2
 519 -11 l 2
 519 -64 551 -100 597 -100 c 0
EndSplineSet
Validated: 3073
EndChar

StartChar: uni0294
Encoding: 660 660 507
Width: 600
Flags: MW
LayerCount: 2
Fore
SplineSet
154 394 m 0
 114 394 104 424 104 460 c 2
 104 539 l 1
 200 585 244 598 308 598 c 0
 432 598 517 521 517 409 c 0
 517 328 474 281 353 228 c 1
 353 100 l 1
 369 100 l 2
 409 100 435 91 435 50 c 0
 435 10 405 0 369 0 c 2
 237 0 l 2
 200 0 171 9 171 50 c 0
 171 91 200 100 237 100 c 2
 253 100 l 1
 253 296 l 1
 381 345 417 371 417 414 c 0
 417 464 373 498 309 498 c 0
 271 498 237 490 204 474 c 1
 204 460 l 2
 204 424 195 394 154 394 c 0
EndSplineSet
Validated: 3073
EndChar

StartChar: uni0295
Encoding: 661 661 508
Width: 600
Flags: MW
LayerCount: 2
Fore
SplineSet
467 394 m 0
 426 394 417 424 417 460 c 2
 417 474 l 1
 384 490 350 498 312 498 c 0
 248 498 204 464 204 414 c 0
 204 371 240 345 368 296 c 1
 368 100 l 1
 384 100 l 2
 421 100 450 91 450 50 c 0
 450 9 421 0 384 0 c 2
 252 0 l 2
 216 0 186 10 186 50 c 0
 186 91 212 100 252 100 c 2
 268 100 l 1
 268 228 l 1
 147 281 104 328 104 409 c 0
 104 521 189 598 313 598 c 0
 377 598 421 585 517 539 c 1
 517 460 l 2
 517 424 507 394 467 394 c 0
EndSplineSet
Validated: 3073
EndChar

StartChar: uni0297
Encoding: 663 663 510
Width: 600
Flags: MW
LayerCount: 2
Fore
SplineSet
564 -77 m 0
 564 -129 469 -200 327 -200 c 0
 157 -200 33 -89 33 63 c 2
 33 315 l 2
 33 475 151 597 305 597 c 0
 357 597 392 589 447 563 c 2
 457 559 l 1
 470 577 482 583 499 583 c 0
 540 583 549 556 549 517 c 2
 549 433 l 2
 549 396 540 367 499 367 c 0
 428 367 480 432 406 473 c 0
 379 488 343 497 309 497 c 0
 207 497 133 420 133 315 c 2
 133 65 l 2
 133 -35 210 -100 330 -100 c 0
 469 -100 471 -27 514 -27 c 0
 541 -27 564 -50 564 -77 c 0
EndSplineSet
Validated: 3073
EndChar

StartChar: uni0298
Encoding: 664 664 511
Width: 600
Flags: MW
LayerCount: 2
Fore
SplineSet
300 352 m 0
 334 352 360 325 360 291 c 0
 360 259 333 232 300 232 c 0
 267 232 240 259 240 292 c 0
 240 325 267 352 300 352 c 0
300 597 m 0
 359 597 579 550 579 287 c 0
 579 123 452 -14 300 -14 c 0
 146 -14 21 123 21 292 c 0
 21 460 146 597 300 597 c 0
300 497 m 0
 202 497 121 404 121 292 c 0
 121 179 202 86 300 86 c 0
 397 86 479 179 479 289 c 0
 479 404 399 497 300 497 c 0
EndSplineSet
Validated: 3073
EndChar

StartChar: uni029C
Encoding: 668 668 512
Width: 600
Flags: MW
LayerCount: 2
Fore
SplineSet
476 437 m 2
 515 437 542 427 542 387 c 0
 542 358 523 340 490 337 c 1
 490 100 l 1
 518 100 540 78 540 50 c 0
 540 22 518 0 490 0 c 2
 390 0 l 2
 362 0 340 22 340 50 c 0
 340 78 362 100 390 100 c 1
 390 178 l 1
 210 178 l 1
 210 100 l 1
 238 100 260 78 260 50 c 0
 260 22 238 0 210 0 c 2
 110 0 l 2
 82 0 60 22 60 50 c 0
 60 78 82 100 110 100 c 1
 110 337 l 1
 77 340 58 358 58 387 c 0
 58 428 85 437 124 437 c 2
 210 437 l 2
 238 437 260 415 260 387 c 0
 260 359 238 337 210 337 c 1
 210 278 l 1
 390 278 l 1
 390 337 l 1
 362 337 340 359 340 387 c 0
 340 415 362 437 390 437 c 2
 476 437 l 2
EndSplineSet
Validated: 3073
EndChar

StartChar: uni029F
Encoding: 671 671 514
Width: 600
Flags: MW
LayerCount: 2
Fore
SplineSet
363 387 m 0
 363 346 334 337 297 337 c 2
 264 337 l 1
 264 100 l 1
 439 100 l 1
 439 128 l 2
 439 167 449 195 489 195 c 0
 530 195 539 167 539 128 c 2
 539 0 l 1
 132 0 l 2
 76 0 66 29 66 50 c 0
 66 91 93 100 132 100 c 2
 164 100 l 1
 164 337 l 1
 132 337 l 2
 95 337 66 346 66 387 c 0
 66 428 93 437 132 437 c 2
 297 437 l 2
 332 437 363 429 363 387 c 0
EndSplineSet
Validated: 3073
EndChar

StartChar: uni02A0
Encoding: 672 672 515
Width: 600
Flags: MW
LayerCount: 2
Fore
SplineSet
282 110 m 0
 371 110 431 162 431 229 c 0
 431 300 370 350 281 350 c 0
 192 350 133 296 133 230 c 0
 133 162 193 110 282 110 c 0
307 -150 m 0
 307 -109 337 -100 373 -100 c 2
 431 -100 l 1
 431 66 l 1
 379 26 334 10 275 10 c 0
 136 10 33 101 33 224 c 0
 33 354 137 450 277 450 c 0
 340 450 382 434 431 392 c 1
 431 459 l 2
 431 558 509 638 605 638 c 0
 680 638 725 615 725 577 c 0
 725 547 704 524 677 524 c 0
 652 524 647 538 604 538 c 0
 564 538 531 501 531 456 c 2
 531 -100 l 1
 547 -100 l 2
 586 -100 613 -110 613 -150 c 0
 613 -190 583 -200 547 -200 c 2
 373 -200 l 2
 337 -200 307 -192 307 -150 c 0
EndSplineSet
Validated: 3073
EndChar

StartChar: uni02A1
Encoding: 673 673 516
Width: 600
Flags: MW
LayerCount: 2
Fore
SplineSet
171 50 m 0
 171 91 200 100 237 100 c 2
 253 100 l 1
 253 148 l 1
 170 148 l 2
 126 148 104 165 104 198 c 0
 104 238 130 248 170 248 c 2
 253 248 l 1
 253 296 l 1
 381 345 417 371 417 414 c 0
 417 464 373 498 309 498 c 0
 271 498 237 490 204 474 c 1
 204 460 l 2
 204 424 195 394 154 394 c 0
 114 394 104 424 104 460 c 2
 104 539 l 1
 200 585 244 598 308 598 c 0
 432 598 517 521 517 409 c 0
 517 328 474 281 353 228 c 1
 353 100 l 1
 369 100 l 2
 409 100 435 91 435 50 c 0
 435 10 405 0 369 0 c 2
 237 0 l 2
 200 0 171 9 171 50 c 0
EndSplineSet
Validated: 3073
EndChar

StartChar: uni02A2
Encoding: 674 674 517
Width: 600
Flags: MW
LayerCount: 2
Fore
SplineSet
450 50 m 0
 450 9 421 0 384 0 c 2
 252 0 l 2
 216 0 186 10 186 50 c 0
 186 91 212 100 252 100 c 2
 268 100 l 1
 268 228 l 1
 147 281 104 328 104 409 c 0
 104 521 189 598 313 598 c 0
 377 598 421 585 517 539 c 1
 517 460 l 2
 517 424 507 394 467 394 c 0
 426 394 417 424 417 460 c 2
 417 474 l 1
 384 490 350 498 312 498 c 0
 248 498 204 464 204 414 c 0
 204 371 240 345 368 296 c 1
 368 248 l 1
 451 248 l 2
 491 248 517 238 517 198 c 0
 517 165 495 148 451 148 c 2
 368 148 l 1
 368 100 l 1
 384 100 l 2
 421 100 450 91 450 50 c 0
EndSplineSet
Validated: 3073
EndChar

StartChar: circumflex
Encoding: 710 710 518
Width: 600
Flags: MW
LayerCount: 2
Fore
SplineSet
301 572 m 1
 188 510 l 2
 175.538 503.162 169 497 160 497 c 0
 141 497 125 514 125 532 c 0
 125 546 126.169 552.881 149 567 c 2
 301 661 l 1
 461 560 l 0
 472 551 476 543 476 532 c 0
 476 514 460 497 442 497 c 0
 433 497 425.437 503.115 413 510 c 2
 301 572 l 1
EndSplineSet
Validated: 3073
EndChar

StartChar: caron
Encoding: 711 711 519
Width: 600
Flags: MW
LayerCount: 2
Fore
SplineSet
301 579 m 1
 413 641 l 2
 425.437 647.885 433 654 442 654 c 0
 460 654 476 637 476 619 c 0
 476 608 472 600 461 591 c 0
 301 490 l 1
 149 584 l 2
 126.135 598.14 125 605 125 619 c 0
 125 637 141 654 160 654 c 0
 169 654 175.538 647.838 188 641 c 2
 301 579 l 1
EndSplineSet
Validated: 3073
EndChar

StartChar: uni02D0
Encoding: 720 720 520
Width: 600
Flags: MW
LayerCount: 2
Fore
SplineSet
235 437 m 10
 365 437 l 18
 383 437 391 430 391 419 c 0
 391 415 390 411 388 406 c 10
 318 261 l 18
 314 251 307 246 300 246 c 0
 293 246 286 251 282 261 c 10
 212 406 l 18
 210 411 209 415 209 419 c 0
 209 430 217 437 235 437 c 10
235 0 m 18
 217 0 209 7 209 18 c 0
 209 22 210 26 212 31 c 10
 282 176 l 18
 286 186 293 191 300 191 c 0
 307 191 314 186 318 176 c 10
 388 31 l 18
 390 26 391 22 391 18 c 0
 391 7 383 0 365 0 c 10
 235 0 l 18
EndSplineSet
Validated: 3073
EndChar

StartChar: uni02D1
Encoding: 721 721 521
Width: 600
Flags: MW
LayerCount: 2
Fore
SplineSet
235 437 m 10
 365 437 l 18
 383 437 391 430 391 419 c 0
 391 415 390 411 388 406 c 10
 318 261 l 18
 314 251 307 246 300 246 c 0
 293 246 286 251 282 261 c 10
 212 406 l 18
 210 411 209 415 209 419 c 0
 209 430 217 437 235 437 c 10
EndSplineSet
Validated: 3073
EndChar

StartChar: breve
Encoding: 728 728 522
Width: 600
Flags: MW
LayerCount: 2
Fore
SplineSet
159 656 m 0
 179 656 186 650 193 624 c 0
 199.431 600.112 245 571 300 571 c 0
 355 571 399.725 600.355 407 624 c 0
 415 650 421 656 441 656 c 0
 461 656 475 646 475 623 c 0
 475 563 392 503 300 503 c 0
 208 503 125 564 125 624 c 0
 125 647 139 656 159 656 c 0
EndSplineSet
Validated: 3073
EndChar

StartChar: dotaccent
Encoding: 729 729 523
Width: 600
Flags: MW
LayerCount: 2
Fore
SplineSet
300 654 m 0
 334 654 360 627 360 593 c 0
 360 561 333 534 300 534 c 0
 267 534 240 561 240 594 c 0
 240 627 267 654 300 654 c 0
EndSplineSet
Validated: 3073
EndChar

StartChar: ring
Encoding: 730 730 524
Width: 600
Flags: MW
LayerCount: 2
Fore
SplineSet
300 677 m 0
 352 677 393 637 393 585 c 0
 393 537 351 496 300 496 c 0
 249 496 207 537 207 587 c 0
 207 636 249 677 300 677 c 0
300 615.25 m 0
 283.5 615.25 270 602.25 270 586.75 c 0
 270 570.75 283.5 557.75 300 557.75 c 0
 316.5 557.75 330 570.75 330 586.25 c 0
 330 602.25 316.5 615.25 300 615.25 c 0
EndSplineSet
Validated: 3073
EndChar

StartChar: ogonek
Encoding: 731 731 525
Width: 600
Flags: MW
LayerCount: 2
Fore
SplineSet
351 -124 m 0
 378 -124 401 -104 424 -104 c 0
 446 -104 463 -116 463 -137 c 0
 463 -181 386 -200 344 -200 c 0
 286 -200 250 -170 250 -115 c 0
 250 -66 272 -36 329 0 c 1
 427 0 l 1
 354 -49 327 -76 327 -108 c 0
 327 -121 336 -124 351 -124 c 0
EndSplineSet
Validated: 3073
EndChar

StartChar: tilde
Encoding: 732 732 526
Width: 600
Flags: MW
LayerCount: 2
Fore
SplineSet
373 600 m 0
 406 600 420 648 453 648 c 0
 470 648 485 634 485 620 c 0
 485 599 439 531 376 531 c 0
 324 531 262 579 227 579 c 0
 186 579 180 534 146 534 c 0
 129 534 115 548 115 564 c 0
 115 588 160 648 225 648 c 0
 277 648 339 600 373 600 c 0
EndSplineSet
Validated: 3073
EndChar

StartChar: hungarumlaut
Encoding: 733 733 527
Width: 600
Flags: MW
LayerCount: 2
Fore
SplineSet
452 588 m 0
 367 512 l 2
 352.67 499.188 345 496 335 496 c 0
 315 496 298 513 298 532 c 0
 298 545 305.548 555.365 321 569 c 2
 406 644 l 2
 422 657 427 660 438 660 c 0
 459 660 475 644 475 623 c 0
 475 611 468 602 452 588 c 0
279 588 m 0
 194 512 l 2
 179.67 499.188 172 496 162 496 c 0
 142 496 125 513 125 532 c 0
 125 545 132.548 555.365 148 569 c 2
 233 644 l 2
 249 657 254 660 265 660 c 0
 286 660 302 644 302 623 c 0
 302 611 295 602 279 588 c 0
EndSplineSet
Validated: 3073
EndChar

StartChar: uni0302
Encoding: 770 770 530
Width: 600
Flags: MW
AnchorPoint: "above" -300 444 mark 0
LayerCount: 2
Fore
SplineSet
-299 607 m 1
 -412 510 l 2
 -423 501 -431 497 -440 497 c 0
 -459 497 -475 514 -475 532 c 0
 -475 546 -473 549 -451 567 c 2
 -299 696 l 1
 -139 560 l 0
 -128 551 -124 543 -124 532 c 0
 -124 514 -140 497 -158 497 c 0
 -167 497 -176 501 -187 510 c 2
 -299 607 l 1
EndSplineSet
Validated: 3073
EndChar

StartChar: uni0305
Encoding: 773 773 533
Width: 600
Flags: MW
AnchorPoint: "above" -300 444 mark 0
LayerCount: 2
Fore
SplineSet
-492 546 m 2
 -522 546 -545 553 -545 586 c 0
 -545 611 -526 626 -492 626 c 2
 -108 626 l 2
 -78 626 -55 619 -55 586 c 0
 -55 561 -75 546 -108 546 c 2
 -492 546 l 2
EndSplineSet
Validated: 3073
EndChar

StartChar: hookabovecomb
Encoding: 777 777 537
Width: 600
Flags: MW
AnchorPoint: "above" -300 444 mark 0
LayerCount: 2
Fore
SplineSet
-208 588 m 2
 -208 584 l 2
 -208 524 -273 532.5 -273 499 c 0
 -273 488 -289 486 -300 486 c 0
 -311 486 -328 488 -328 499 c 0
 -328 555 -263 554.5 -263 586 c 0
 -263 606.5 -277 625 -300 625 c 0
 -322.5 625 -339 611 -339 587 c 0
 -339 572.5 -352 559 -368 559 c 0
 -382.5 559 -396 572 -396 587 c 0
 -396 637.57 -358.489 682 -300 682 c 0
 -246 682 -208 638 -208 588 c 2
EndSplineSet
Validated: 3073
EndChar

StartChar: uni030D
Encoding: 781 781 541
Width: 600
Flags: MW
AnchorPoint: "above" -300 444 mark 0
LayerCount: 2
Fore
SplineSet
-260 692 m 2
 -260 554 l 2
 -260 532 -278 514 -300 514 c 0
 -322 514 -340 532 -340 554 c 2
 -340 692 l 2
 -340 714 -322 732 -300 732 c 0
 -278 732 -260 714 -260 692 c 2
EndSplineSet
Validated: 3073
EndChar

StartChar: uni030E
Encoding: 782 782 542
Width: 600
Flags: MW
AnchorPoint: "above" -300 444 mark 0
LayerCount: 2
Fore
SplineSet
-180 692 m 2
 -180 554 l 2
 -180 532 -198 514 -220 514 c 0
 -242 514 -260 532 -260 554 c 2
 -260 692 l 2
 -260 714 -242 732 -220 732 c 0
 -198 732 -180 714 -180 692 c 2
-340 692 m 2
 -340 554 l 2
 -340 532 -358 514 -380 514 c 0
 -402 514 -420 532 -420 554 c 2
 -420 692 l 2
 -420 714 -402 732 -380 732 c 0
 -358 732 -340 714 -340 692 c 2
EndSplineSet
Validated: 3073
EndChar

StartChar: uni0310
Encoding: 784 784 544
Width: 600
Flags: MW
AnchorPoint: "above" -300 444 mark 0
LayerCount: 2
Fore
SplineSet
-441 687 m 0
 -421 687 -414 678 -407 647 c 0
 -397 601 -355 571 -300 571 c 0
 -245 571 -203 601 -193 647 c 0
 -186 678 -179 687 -159 687 c 0
 -139 687 -125 672 -125 649 c 0
 -125 573 -208 503 -300 503 c 0
 -392 503 -475 573 -475 649 c 0
 -475 672 -461 687 -441 687 c 0
-300 746 m 0
 -266 746 -240 719 -240 685 c 0
 -240 653 -267 626 -300 626 c 0
 -333 626 -360 653 -360 686 c 0
 -360 719 -333 746 -300 746 c 0
EndSplineSet
Validated: 3073
EndChar

StartChar: uni0311
Encoding: 785 785 545
Width: 600
Flags: MW
AnchorPoint: "above" -300 444 mark 0
LayerCount: 2
Fore
SplineSet
-159 500 m 0
 -179 500 -186 506 -193 532 c 0
 -199.431 555.888 -245 585 -300 585 c 0
 -355 585 -399.725 555.645 -407 532 c 0
 -415 506 -421 500 -441 500 c 0
 -461 500 -475 510 -475 533 c 0
 -475 593 -392 653 -300 653 c 0
 -208 653 -125 592 -125 532 c 0
 -125 509 -139 500 -159 500 c 0
EndSplineSet
Validated: 3073
EndChar

StartChar: uni031B
Encoding: 795 795 546
Width: 600
Flags: MW
LayerCount: 2
Fore
SplineSet
-269 698 m 0
 -238 698 -192 652 -192 593 c 0
 -192 514 -267 483 -324 483 c 0
 -329 483 -333 484 -337 484 c 0
 -354 484 l 1
 -354 584 l 1
 -337 584 l 0
 -298 584 -292 588 -292 593 c 8
 -292 607 -321 613 -321 647 c 0
 -321 677 -296 698 -269 698 c 0
EndSplineSet
Validated: 3073
EndChar

StartChar: uni0321
Encoding: 801 801 547
Width: 600
Flags: MW
LayerCount: 2
Fore
SplineSet
-428 -100 m 0
 -382 -100 -350 -64 -350 -11 c 2
 -350 0 l 25
 -250 0 l 25
 -250 -11 l 2
 -250 -118 -326 -200 -425 -200 c 0
 -502 -200 -547 -176 -547 -136 c 0
 -547 -109 -524 -86 -499 -86 c 0
 -485 -86 -466 -100 -428 -100 c 0
EndSplineSet
Validated: 3073
EndChar

StartChar: uni0322
Encoding: 802 802 548
Width: 600
Flags: MW
LayerCount: 2
Fore
SplineSet
-172 -100 m 0
 -134 -100 -115 -86 -101 -86 c 0
 -76 -86 -53 -109 -53 -136 c 0
 -53 -176 -98 -200 -175 -200 c 0
 -274 -200 -350 -118 -350 -11 c 2
 -350 0 l 25
 -250 0 l 25
 -250 -11 l 2
 -250 -64 -218 -100 -172 -100 c 0
EndSplineSet
Validated: 3073
EndChar

StartChar: uni0337
Encoding: 823 823 551
Width: 600
Flags: MW
LayerCount: 2
Fore
SplineSet
-445 316 m 2
 -188 451 l 2
 -180 454 -172 456 -164 456 c 0
 -139 456 -114 435 -114 406 c 0
 -114 388 -124 371 -141 362 c 2
 -399 228 l 2
 -406 224 -414 222 -422 222 c 0
 -447 222 -472 243 -472 272 c 0
 -472 290 -462 307 -445 316 c 2
EndSplineSet
Validated: 3073
EndChar

StartChar: uni037A
Encoding: 890 890 554
Width: 600
Flags: MW
LayerCount: 2
Fore
SplineSet
409 -100 m 0
 447 -100 466 -86 480 -86 c 0
 505 -86 528 -109 528 -136 c 0
 528 -176 483 -200 406 -200 c 0
 307 -200 231 -118 231 -11 c 2
 231 0 l 25
 331 0 l 25
 331 -11 l 2
 331 -64 363 -100 409 -100 c 0
EndSplineSet
Validated: 3073
EndChar

StartChar: dieresistonos
Encoding: 901 901 557
Width: 600
Flags: HMW
LayerCount: 2
Fore
SplineSet
167.8 618 m 0
 195 618 215.8 596.4 215.8 569.2 c 0
 215.8 543.6 194.2 522 167.8 522 c 0
 141.4 522 119.8 543.6 119.8 570 c 0
 119.8 596.4 141.4 618 167.8 618 c 0
416.2 618 m 0
 443.4 618 464.2 596.4 464.2 569.2 c 0
 464.2 543.6 442.6 522 416.2 522 c 0
 389.8 522 368.2 543.6 368.2 570 c 0
 368.2 596.4 389.8 618 416.2 618 c 0
416 707.5 m 2
 309 539 l 2
 300.675 525.89 290 523 277 523 c 0
 260 523 242 531 242 553.5 c 0
 242 562 243.215 567.319 251.5 580 c 2
 358 743 l 2
 366.038 755.302 379 759 390 759 c 0
 411 759 423.5 750.5 423.5 732.5 c 0
 423.5 724.5 421.571 716.273 416 707.5 c 2
EndSplineSet
Validated: 3073
EndChar

StartChar: Delta
Encoding: 916 916 570
Width: 600
Flags: MW
LayerCount: 2
Fore
SplineSet
589 50 m 0
 589 10 560 0 523 0 c 2
 77 0 l 2
 33 0 11 17 11 50 c 0
 11 93 41 100 78 100 c 1
 201 483 l 1
 138 483 l 2
 102 483 71 491 71 533 c 0
 71 576 101 583 138 583 c 2
 354 583 l 1
 521 100 l 1
 557 100 589 92 589 50 c 0
184 100 m 1
 413 100 l 1
 297 450 l 1
 184 100 l 1
EndSplineSet
Validated: 3073
EndChar

StartChar: Theta
Encoding: 920 920 574
Width: 600
Flags: MW
LayerCount: 2
Fore
SplineSet
300 597 m 0
 359 597 579 550 579 287 c 0
 579 123 452 -14 300 -14 c 0
 146 -14 21 123 21 292 c 0
 21 460 146 597 300 597 c 0
300 497 m 0
 202 497 121 404 121 292 c 0
 121 179 202 86 300 86 c 0
 397 86 479 179 479 289 c 0
 479 404 399 497 300 497 c 0
157 359 m 2
 157 388 164 408 198 408 c 0
 225 408 240 387 240 359 c 2
 240 334 l 1
 355 334 l 1
 355 359 l 2
 355 387 363 408 396 408 c 0
 421 408 438 395 438 359 c 2
 438 225 l 2
 438 192 422 173 396 173 c 0
 381 173 355 183 355 225 c 2
 355 247 l 1
 240 247 l 1
 240 225 l 2
 240 181 206 173 198 173 c 0
 165 173 157 197 157 225 c 2
 157 359 l 2
EndSplineSet
Validated: 3073
EndChar

StartChar: Lambda
Encoding: 923 923 577
Width: 600
Flags: MW
LayerCount: 2
Fore
SplineSet
350 50 m 0
 350 91 377 100 416 100 c 2
 439 100 l 1
 297 450 l 1
 155 100 l 1
 178 100 l 2
 213 100 244 92 244 50 c 0
 244 10 215 0 178 0 c 2
 45 0 l 2
 1 0 -21 17 -21 50 c 0
 -21 93 9 100 46 100 c 1
 201 483 l 1
 138 483 l 2
 102 483 71 491 71 533 c 0
 71 576 101 583 138 583 c 2
 354 583 l 1
 553 100 l 1
 589 100 621 92 621 50 c 0
 621 10 592 0 555 0 c 2
 416 0 l 2
 360 0 350 29 350 50 c 0
EndSplineSet
Validated: 3073
EndChar

StartChar: Xi
Encoding: 926 926 580
Width: 600
Flags: MW
LayerCount: 2
Fore
SplineSet
465 100 m 1
 465 167 l 2
 465 195 487 217 515 217 c 0
 543 217 565 195 565 167 c 2
 565 0 l 1
 35 0 l 1
 35 167 l 2
 35 195 57 217 85 217 c 0
 113 217 135 195 135 167 c 2
 135 100 l 1
 465 100 l 1
163 375 m 0
 163 408 179 416 204 416 c 0
 238 416 246 390 246 367 c 2
 246 342 l 1
 355 342 l 1
 355 367 l 2
 355 395 363 416 396 416 c 0
 434 416 438 395 438 367 c 2
 438 233 l 2
 438 202 430 181 396 181 c 0
 362 181 355 204 355 233 c 2
 355 255 l 1
 246 255 l 1
 246 233 l 2
 246 204 240 181 204 181 c 0
 173 181 163 199 163 224 c 0
 163 233 l 2
 163 367 l 2
 163 370 163 373 163 375 c 0
453 483 m 1
 147 483 l 1
 147 416 l 2
 147 388 125 366 97 366 c 0
 69 366 47 388 47 416 c 2
 47 583 l 1
 553 583 l 1
 553 416 l 2
 553 388 531 366 503 366 c 0
 475 366 453 388 453 416 c 2
 453 483 l 1
EndSplineSet
Validated: 3073
EndChar

StartChar: Pi
Encoding: 928 928 582
Width: 600
Flags: MW
LayerCount: 2
Fore
SplineSet
328 50 m 0
 328 91 357 100 394 100 c 2
 409 100 l 1
 409 483 l 1
 195 483 l 1
 195 100 l 1
 210 100 l 2
 245 100 276 92 276 50 c 0
 276 10 247 0 210 0 c 2
 89 0 l 2
 52 0 23 10 23 50 c 0
 23 91 50 100 89 100 c 2
 95 100 l 1
 95 483 l 1
 62 486 43 504 43 533 c 0
 43 574 70 583 109 583 c 2
 495 583 l 2
 534 583 561 573 561 533 c 0
 561 504 542 486 509 483 c 1
 509 100 l 1
 515 100 l 2
 550 100 581 92 581 50 c 0
 581 10 552 0 515 0 c 2
 394 0 l 2
 356 0 328 12 328 50 c 0
EndSplineSet
Validated: 3073
EndChar

StartChar: Psi
Encoding: 936 936 589
Width: 600
Flags: HMW
LayerCount: 2
Fore
SplineSet
550 583 m 2
 585 583 616 575 616 533 c 0
 616 490.834 583.721 483 550 483 c 1
 550 360 l 2
 550 241 453 143 350 143 c 1
 350 100 l 1
 375 100 l 2
 413 100 441 91 441 50 c 0
 441 17 419 0 375 0 c 2
 225 0 l 2
 169 0 159 30 159 50 c 0
 159 91 186 100 225 100 c 2
 250 100 l 1
 250 143 l 1
 147 143 50 241 50 360 c 2
 50 483 l 1
 16.2789 483 -16 490.834 -16 533 c 0
 -16 575 14 583 50 583 c 2
 150 583 l 1
 150 344 l 2
 150 298 197 247 250 247 c 1
 250 483 l 1
 212.398 483 183 491.644 183 533 c 0
 183 574 210 583 249 583 c 2
 351 583 l 2
 389 583 417 574 417 533 c 0
 417 491.644 387.589 483 350 483 c 1
 350 248 l 1
 405 248 450 298 450 344 c 2
 450 583 l 1
 550 583 l 2
EndSplineSet
Validated: 3073
EndChar

StartChar: Omega
Encoding: 937 937 590
Width: 600
Flags: MW
LayerCount: 2
Fore
SplineSet
180 118 m 1
 92 156 40 251 40 344 c 0
 40 469 127 583 276 583 c 2
 324 583 l 2
 480 583 560 451 560 344 c 0
 560 251 508 156 420 118 c 1
 420 100 l 1
 471 100 l 1
 471 108 l 2
 471 136 493 158 521 158 c 0
 549 158 571 136 571 108 c 2
 571 0 l 1
 320 0 l 1
 320 202 l 1
 342 202 l 2
 403 202 460 270 460 344 c 0
 460 419 425 483 324 483 c 2
 276 483 l 2
 179 483 140 432 140 344 c 0
 140 270 196 202 258 202 c 2
 280 202 l 1
 280 0 l 1
 29 0 l 1
 29 108 l 2
 29 136 51 158 79 158 c 0
 107 158 129 136 129 108 c 2
 129 100 l 1
 180 100 l 1
 180 118 l 1
EndSplineSet
Validated: 3073
EndChar

StartChar: beta
Encoding: 946 946 599
Width: 600
Flags: MW
LayerCount: 2
Fore
SplineSet
13 -150 m 0
 13 -107 44 -100 79 -100 c 2
 95 -100 l 1
 95 478 l 2
 95 563 167 623 268 623 c 0
 369 623 446 551 446 456 c 0
 446 419 438 397 411 365 c 1
 488 320 529 249 529 165 c 0
 529 57 441 -16 342 -16 c 0
 292 -16 225 -4 195 1 c 1
 195 -100 l 1
 223 -105 238 -122 238 -149 c 0
 238 -184 217 -200 172 -200 c 2
 79 -200 l 2
 42 -200 13 -190 13 -150 c 0
223 353 m 0
 223 433 346 372 346 459 c 0
 346 496 314 523 268 523 c 0
 221 523 195 502 195 461 c 2
 195 100 l 1
 219 94 270 84 350 84 c 0
 382 84 429 116 429 164 c 0
 429 282 309 299 278 303 c 0
 241 307 223 323 223 353 c 0
EndSplineSet
Validated: 3073
EndChar

StartChar: gamma
Encoding: 947 947 600
Width: 600
Flags: MW
LayerCount: 2
Fore
SplineSet
179 437 m 2
 217 437 245 428 245 387 c 0
 245 356 224 338 186 337 c 1
 300 114 l 1
 420 337 l 1
 379 337 356 355 356 387 c 0
 356 423 384 437 423 437 c 2
 515 437 l 2
 553 437 581 428 581 387 c 0
 581 358 562 340 529 337 c 1
 350 -3 l 1
 350 -100 l 1
 361 -100 l 2
 399 -100 427 -109 427 -150 c 0
 427 -190 397 -200 361 -200 c 2
 238 -200 l 2
 234 -200 231 -200 228 -200 c 0
 183 -200 172 -169 172 -150 c 0
 172 -109 201 -100 238 -100 c 2
 249 -100 l 1
 249 -3 l 1
 72 337 l 1
 41 341 23 359 23 387 c 0
 23 422 52 437 89 437 c 2
 179 437 l 2
EndSplineSet
Validated: 3073
EndChar

StartChar: delta
Encoding: 948 948 601
Width: 600
Flags: MW
LayerCount: 2
Fore
SplineSet
302 350 m 0
 211 350 142 293 142 217 c 0
 142 142 211 84 300 84 c 0
 389 84 458 142 458 217 c 0
 458 291 389 350 302 350 c 0
551 529 m 2
 551 491 542 463 501 463 c 0
 475 463 462 480 449 503 c 1
 400 514 316 538 248 538 c 0
 176 538 160 521 160 492 c 0
 160 474 173 453 270 450 c 0
 303 450 l 2
 444 450 558 346 558 217 c 0
 558 87 444 -16 300 -16 c 0
 156 -16 42 87 42 217 c 0
 42 284 71 343 119 385 c 1
 84 408 60 443 60 492 c 0
 60 599 162 638 248 638 c 0
 323 638 411 614 471 601 c 1
 476 622 489 632 504 632 c 8
 536 632 551 612 551 566 c 2
 551 529 l 2
EndSplineSet
Validated: 3073
EndChar

StartChar: epsilon
Encoding: 949 949 602
Width: 600
Flags: MW
LayerCount: 2
Fore
SplineSet
527 100 m 2
 527 67 l 2
 527 32 519 1 476 1 c 0
 463 1 455 4 444 13 c 1
 404 -6 353 -16 296 -16 c 0
 167 -16 73 43 73 125 c 0
 73 164 96 205 129 225 c 1
 129 235 l 1
 109 252 94 281 94 313 c 0
 94 393 180 450 300 450 c 0
 349 450 390 442 429 424 c 1
 437 443 446 450 461 450 c 0
 493 450 508 430 508 384 c 2
 508 347 l 2
 508 310 499 281 458 281 c 0
 437 281 423 290 411 312 c 2
 406 321 l 1
 378 341 345 350 303 350 c 0
 252 350 204 333 204 315 c 0
 204 293 253 278 314 278 c 2
 345 278 l 2
 346 278 347 278 349 278 c 0
 391 278 412 260 412 228 c 0
 412 196 390 178 351 178 c 2
 309 178 l 2
 250 178 183 158 183 127 c 0
 183 104 236 84 300 84 c 0
 354 84 396 97 425 123 c 1
 434 153 450 167 476 167 c 0
 518 167 527 137 527 100 c 2
EndSplineSet
Validated: 3073
EndChar

StartChar: zeta
Encoding: 950 950 603
Width: 600
Flags: MW
LayerCount: 2
Fore
SplineSet
329 -200 m 0
 284 -200 273 -169 273 -150 c 0
 273 -109 302 -100 339 -100 c 2
 362 -100 l 1
 374 -74 378 -45 378 -22 c 0
 378 -4 363 0 300 0 c 0
 164 0 92 79 92 182 c 0
 92 277 145 367 238 446 c 2
 330 524 l 1
 197 524 l 1
 197 515 l 2
 197 480 189 449 147 449 c 0
 107 449 97 478 97 515 c 2
 97 624 l 1
 506 624 l 1
 506 543 l 1
 302 370 l 2
 223 303 192 244 192 182 c 0
 192 146 238 100 300 100 c 0
 434 100 478 94 478 -6 c 0
 478 -27 477 -64 467 -100 c 1
 501 -102 517 -124 517 -150 c 0
 517 -190 487 -200 451 -200 c 2
 339 -200 l 2
 335 -200 332 -200 329 -200 c 0
EndSplineSet
Validated: 3073
EndChar

StartChar: eta
Encoding: 951 951 604
Width: 600
Flags: MW
LayerCount: 2
Fore
SplineSet
23 50 m 0
 23 91 53 100 89 100 c 2
 95 100 l 1
 95 337 l 1
 56 338 34 355 34 387 c 0
 34 423 62 437 101 437 c 2
 195 437 l 1
 195 389 l 1
 243 435 277 450 332 450 c 0
 432 450 510 392 510 282 c 2
 510 -100 l 1
 549 -100 571 -118 571 -150 c 0
 571 -190 542 -200 505 -200 c 2
 410 -200 l 17
 410 278 l 2
 410 327 382 350 320 350 c 0
 274 350 242 333 195 282 c 1
 195 100 l 1
 201 100 l 2
 236 100 267 92 267 50 c 0
 267 9 236 0 201 0 c 2
 89 0 l 2
 50 0 23 12 23 50 c 0
EndSplineSet
Validated: 3073
EndChar

StartChar: theta
Encoding: 952 952 605
Width: 600
Flags: MW
LayerCount: 2
Fore
SplineSet
300 623 m 0
 450 623 517 487 517 344 c 2
 517 264 l 2
 517 120 449 -15 300 -15 c 0
 150 -15 83 121 83 264 c 2
 83 344 l 2
 83 488 151 623 300 623 c 0
183 353 m 1
 417 353 l 1
 416 456 371 523 300 523 c 0
 229 523 184 456 183 353 c 1
417 253 m 1
 183 253 l 1
 184 151 230 85 300 85 c 0
 370 85 416 151 417 253 c 1
EndSplineSet
Validated: 3073
EndChar

StartChar: lambda
Encoding: 955 955 608
Width: 600
Flags: MW
LayerCount: 2
Fore
SplineSet
30 574 m 0
 30 593 43 624 86 624 c 0
 89 624 92 624 96 624 c 2
 193 624 l 2
 271 624 283 569 306 524 c 2
 527 100 l 1
 560 97 579 79 579 50 c 0
 579 9 550 0 513 0 c 2
 421 0 l 2
 384 0 354 13 354 50 c 0
 354 82 377 100 418 100 c 1
 298 323 l 1
 184 100 l 1
 222 99 243 81 243 50 c 0
 243 9 214 0 177 0 c 2
 87 0 l 2
 52 0 21 13 21 50 c 0
 21 78 39 96 70 100 c 1
 242 434 l 1
 196 524 l 1
 96 524 l 2
 59 524 30 533 30 574 c 0
EndSplineSet
Validated: 3073
EndChar

StartChar: uni03BC
Encoding: 956 956 609
Width: 600
Flags: MW
LayerCount: 2
Fore
SplineSet
571 50 m 0
 571 9 540 0 505 0 c 2
 410 0 l 1
 410 48 l 1
 360 1 328 -13 273 -13 c 0
 245 -13 219 -8 195 1 c 1
 195 -100 l 1
 201 -100 l 2
 239 -100 267 -109 267 -150 c 0
 267 -190 237 -200 201 -200 c 2
 89 -200 l 2
 85 -200 82 -200 79 -200 c 0
 34 -200 23 -169 23 -150 c 0
 23 -109 52 -100 89 -100 c 2
 95 -100 l 1
 95 337 l 1
 68 337 l 2
 35 337 13 358 13 387 c 0
 13 428 40 437 79 437 c 2
 195 437 l 1
 195 159 l 2
 195 110 223 87 283 87 c 0
 333 87 358 100 410 155 c 1
 410 337 l 1
 375 337 l 2
 371 337 368 337 365 337 c 0
 320 337 309 368 309 387 c 0
 309 428 338 437 375 437 c 2
 510 437 l 1
 510 100 l 1
 549 100 571 82 571 50 c 0
EndSplineSet
Validated: 3073
EndChar

StartChar: xi
Encoding: 958 958 611
Width: 600
Flags: MW
LayerCount: 2
Fore
SplineSet
347 -200 m 2
 320 -200 298 -192 298 -157 c 0
 298 -120 318 -114 347 -114 c 2
 376 -114 l 1
 413 -69 418 -94.1327 418 -79 c 0
 418 -13 237 -42 177 15 c 0
 150.411 40.2594 128 76 128 149 c 0
 128 274 235 348 269 357 c 1
 247 377 236 403 236 446 c 0
 235.998 448.749 l 0
 235.998 470.722 236.918 503.041 282 551 c 1
 201 551 l 1
 201 528 l 2
 201 487 175 476 157 476 c 0
 140 476 117 484 117 528 c 2
 117 637 l 1
 505 637 l 1
 505 553 l 1
 434 554 l 2
 350 528 315 487 315 443 c 0
 315 407 351 392 385 378 c 1
 431 378 l 2
 460 378 479 361 479 335 c 0
 479 307 451 291 431 291 c 2
 384 291 l 2
 278 291 206 245 206 149 c 0
 206 86 231 56 318 42 c 0
 415.238 26.3526 499 22 499 -73 c 0
 499 -100 487 -97 476 -114 c 1
 506 -115 522 -136 522 -157 c 0
 522 -185 489 -200 472 -200 c 2
 347 -200 l 2
EndSplineSet
Validated: 3073
EndChar

StartChar: rho
Encoding: 961 961 614
Width: 600
Flags: MW
LayerCount: 2
Fore
SplineSet
-24 -150 m 0
 -24 -109 5 -100 42 -100 c 1
 42 217 l 2
 42 349 155 450 303 450 c 0
 444 450 558 346 558 217 c 0
 558 87 444 -16 300 -16 c 0
 240 -16 185 2 142 32 c 1
 142 -100 l 1
 170 -100 l 2
 208 -100 236 -109 236 -150 c 0
 236 -190 206 -200 170 -200 c 2
 42 -200 l 2
 38 -200 35 -200 32 -200 c 0
 -13 -200 -24 -169 -24 -150 c 0
142 217 m 0
 142 142 211 84 300 84 c 0
 389 84 458 142 458 217 c 0
 458 291 389 350 302 350 c 0
 211 350 142 293 142 217 c 0
EndSplineSet
Validated: 3073
EndChar

StartChar: sigma1
Encoding: 962 962 615
Width: 600
Flags: MW
LayerCount: 2
Fore
SplineSet
470 447 m 0
 502 447 510 418 510 400 c 2
 510 315 l 2
 510 284 498 261 462 261 c 1
 456 271 431 271 431 309 c 0
 431 324 410 382 311 382 c 0
 218 382 195 342 195 311 c 0
 195 234 367 244 416 216 c 0
 476 188 493 147 493 103 c 0
 493 56 471 25 434 0 c 0
 402 -21 367 -36 323 -36 c 2
 304 -36 l 2
 269 -36 235 -26 202 -5 c 1
 194 -11 184 -19 175 -19 c 0
 159 -19 134 -12 134 31 c 2
 134 103 l 2
 134 131 142 152 175 152 c 0
 183 152 214 146 214 109 c 0
 214 62 291 53 311 53 c 2
 321 51 l 2
 393 51 411 91 411 103 c 0
 411 164 266 144 209 177 c 0
 178 191 113 231 113 311 c 0
 113 396 184 463 298 463 c 2
 309 463 l 2
 360 463 402 452 437 431 c 1
 440 433 449 447 470 447 c 0
EndSplineSet
Validated: 3073
EndChar

StartChar: sigma
Encoding: 963 963 616
Width: 600
Flags: MW
LayerCount: 2
Fore
SplineSet
302 350 m 0
 211 350 142 293 142 217 c 0
 142 142 211 84 300 84 c 0
 389 84 458 142 458 217 c 0
 458 291 389 350 302 350 c 0
513 350 m 1
 541 312 558 267 558 217 c 0
 558 87 444 -16 300 -16 c 0
 156 -16 42 87 42 217 c 0
 42 349 155 450 303 450 c 2
 552 450 l 2
 580 450 602 428 602 400 c 0
 602 372 580 350 552 350 c 2
 513 350 l 1
EndSplineSet
Validated: 3073
EndChar

StartChar: tau
Encoding: 964 964 617
Width: 600
Flags: MW
LayerCount: 2
Fore
SplineSet
412 84 m 0
 450 84 469 98 483 98 c 0
 508 98 531 75 531 48 c 0
 531 8 486 -16 409 -16 c 0
 310 -16 234 66 234 173 c 2
 234 337 l 1
 120 337 l 2
 92 337 70 359 70 387 c 0
 70 415 92 437 120 437 c 2
 468 437 l 2
 496 437 518 415 518 387 c 0
 518 359 496 337 468 337 c 2
 334 337 l 1
 334 173 l 2
 334 120 366 84 412 84 c 0
EndSplineSet
Validated: 3073
EndChar

StartChar: upsilon
Encoding: 965 965 618
Width: 600
Flags: MW
LayerCount: 2
Fore
SplineSet
296 84 m 0
 340 84 405 99 405 181 c 2
 405 337 l 1
 386 337 l 2
 349 337 320 346 320 387 c 0
 320 428 349 437 386 437 c 2
 521 437 l 2
 559 437 587 428 587 387 c 0
 587 346 558 337 521 337 c 2
 505 337 l 1
 505 166 l 2
 505 42 420 -16 294 -16 c 0
 171 -16 92 44 92 164 c 2
 92 337 l 1
 65 337 l 2
 32 337 10 358 10 387 c 0
 10 428 37 437 76 437 c 2
 192 437 l 1
 192 177 l 2
 192 126 211 84 296 84 c 0
EndSplineSet
Validated: 3073
EndChar

